#VRML V2.0 utf8
# 3D model generated by easyeda2kicad.py (https://github.com/uPesy/easyeda2kicad.py)

Shape{
    appearance Appearance {
        material  Material 	{
            diffuseColor 0.14901960784313725 0.14901960784313725 0.14901960784313725
            specularColor 0.07450980392156863 0.07450980392156863 0.07450980392156863
            ambientIntensity 0.149
            transparency 0.0
            shininess 0.5
        }
    }
    geometry IndexedFaceSet {
        ccw TRUE
        solid FALSE
        coord DEF co Coordinate {
            point [
                0.1595 -1.3118 0.0, 0.1444 -1.3433 0.0, 0.1314 -1.3301 0.0, 0.1424 -1.3756 0.0, 0.1451 -1.3912 0.0, 0.013 -1.409 0.0, 0.1595 -1.3795 0.0, 0.1588 -1.3733 0.0, 0.1546 -1.3607 0.0, 0.0384 -1.3404 0.0, 0.029 -1.328 0.0, 0.1286 -1.328 0.0, 0.1334 -1.4616 0.0, 0.1477 -1.4452 0.0, 0.1575 -1.5602 0.0, -0.3031 -1.3118 0.0, 0.1454 -1.3976 0.0, 0.1431 -1.4162 0.0, 0.1368 -1.4323 0.0, 0.1179 -1.4724 0.0, -0.0012 -1.4211 0.0, 0.006 -1.4399 0.0, 0.0 -1.4996 0.0, -0.3031 -1.5945 0.0, 0.0 -1.5743 0.0, 0.1595 -1.5945 0.0, 0.1575 -1.5743 0.0, 0.1191 -1.3404 0.0, 0.1316 -1.3534 0.0, 0.0296 -1.3491 0.0, 0.1396 -1.3675 0.0, 0.02 -1.363 0.0, 0.0143 -1.3782 0.0, 0.1267 -1.4468 0.0, 0.1153 -1.4565 0.0, 0.1013 -1.4635 0.0, 0.0612 -1.4652 0.0, 0.0481 -1.4602 0.0, 0.0786 -1.4673 0.0, 0.0359 -1.4518 0.0, 0.0253 -1.4403 0.0, 0.0121 -1.3966 0.0, 0.0862 -1.4669 0.0, 0.0171 -1.425 0.0, 0.0162 -1.5602 0.0, 0.0797 -1.4814 0.0, 0.1012 -1.4788 0.0, 0.0169 -1.4551 0.0, 0.0235 -1.4615 0.0, 0.0162 -1.4996 0.0, 0.0407 -1.4729 0.0, 0.0589 -1.4792 0.0, 0.0144 -1.3419 0.0, 0.0039 -1.3588 0.0, -0.0015 -1.3743 0.0, -0.004 -1.3941 0.0, -0.004 -1.3965 0.0, 0.1608 -1.4093 0.0, 0.1615 -1.3967 0.0, 0.3031 -1.3118 0.0, 0.1595 -1.4146 0.0, 0.1562 -1.4285 0.0, 0.3031 -1.5945 0.0, 0.0 -1.2068 0.0, 0.0 -1.2957 0.0, 0.1575 -1.2957 0.0, 0.1575 -1.2068 0.0, 0.0219 -1.0685 0.0, 0.0119 -1.0798 0.0, 0.0 -1.0292 0.0, 0.0052 -1.093 0.0, 0.0 -0.8951 0.0, -0.3031 -0.6102 0.0, 0.0 -0.8798 0.0, 0.1595 -0.6102 0.0, 0.0505 -0.9184 0.0, 0.0505 -0.9898 0.0, 0.0 -1.0137 0.0, 0.0768 -1.0494 0.0, 0.0557 -1.0516 0.0, 0.0381 -1.0578 0.0, 0.1413 -1.2815 0.0, 0.0929 -1.2815 0.0, 0.1413 -1.2068 0.0, 0.0929 -1.2068 0.0, 0.0767 -1.2068 0.0, 0.0 -1.1786 0.0, 0.1575 -1.1786 0.0, 0.1575 -0.9545 0.0, 0.1575 -0.9525 0.0, 0.0009 -1.1129 0.0, 0.0 -1.1298 0.0, 0.0162 -1.2068 0.0, 0.0162 -1.2815 0.0, 0.0767 -1.2815 0.0, 0.1565 -1.1216 0.0, 0.1518 -1.0968 0.0, 0.1438 -1.0809 0.0, 0.1336 -1.0692 0.0, 0.1575 -1.1468 0.0, 0.1192 -1.0591 0.0, 0.1026 -1.0526 0.0, 0.0834 -1.0496 0.0, 0.3031 -0.6102 0.0, 0.4557 -1.5945 0.1831, 4.126 -1.5945 0.3661, 3.874 -1.5945 0.3661, 3.5443 -1.5945 0.1831, 3.126 -1.5945 0.3661, 2.874 -1.5945 0.3661, 2.5443 -1.5945 0.1831, 2.126 -1.5945 0.3661, 1.874 -1.5945 0.3661, 1.5443 -1.5945 0.1831, 1.126 -1.5945 0.3661, 0.874 -1.5945 0.3661, 0.5443 -1.5945 0.1831, 0.126 -1.5945 0.3661, -0.126 -1.5945 0.3661, -0.4557 -1.5945 0.1831, -4.5 -1.5945 0.2362, -4.4557 -1.5945 0.1831, -4.313 -1.5945 0.1831, -4.313 -1.5945 0.0118, -0.874 -1.5945 0.3661, -1.126 -1.5945 0.3661, -1.4557 -1.5945 0.1831, -0.6969 -1.5945 0.0, -0.5443 -1.5945 0.1831, -1.3031 -1.5945 0.0, -1.5 -1.5945 0.2362, -1.126 -1.5945 0.6181, -1.5 -1.5945 0.748, -0.5 -1.5945 0.2362, -0.874 -1.5945 0.6181, -2.126 -1.5945 0.6181, -2.5 -1.5945 0.2362, -2.126 -1.5945 0.3661, -2.4557 -1.5945 0.1831, -1.874 -1.5945 0.3661, -1.874 -1.5945 0.6181, -1.6969 -1.5945 0.9843, -1.5443 -1.5945 0.1831, -2.3031 -1.5945 0.0, -1.6969 -1.5945 0.0, -3.126 -1.5945 0.6181, -3.5 -1.5945 0.2362, -3.126 -1.5945 0.3661, -3.4557 -1.5945 0.1831, -2.874 -1.5945 0.3661, -2.874 -1.5945 0.6181, -2.6969 -1.5945 0.9843, -2.5 -1.5945 0.748, -2.5443 -1.5945 0.1831, -2.3031 -1.5945 0.9843, -3.3031 -1.5945 0.0, -2.6969 -1.5945 0.0, -3.5 -1.5945 0.748, -3.6969 -1.5945 0.9843, -3.874 -1.5945 0.6181, -4.3031 -1.5945 0.9843, -4.126 -1.5945 0.6181, -4.313 -1.5945 0.9724, -4.126 -1.5945 0.3661, -3.874 -1.5945 0.3661, -3.5443 -1.5945 0.1831, -3.3031 -1.5945 0.9843, -4.3031 -1.5945 0.0, -3.6969 -1.5945 0.0, -4.5 -1.5945 0.748, -0.126 -1.5945 0.6181, -0.5 -1.5945 0.748, -0.6969 -1.5945 0.9843, -1.3031 -1.5945 0.9843, 0.5 -1.5945 0.2362, 0.126 -1.5945 0.6181, 0.874 -1.5945 0.6181, 0.5 -1.5945 0.748, 0.3031 -1.5945 0.9843, -0.3031 -1.5945 0.9843, 1.4557 -1.5945 0.1831, 1.5 -1.5945 0.2362, 1.126 -1.5945 0.6181, 1.874 -1.5945 0.6181, 1.5 -1.5945 0.748, 1.3031 -1.5945 0.9843, 0.6969 -1.5945 0.9843, 2.4557 -1.5945 0.1831, 2.5 -1.5945 0.2362, 2.126 -1.5945 0.6181, 2.874 -1.5945 0.6181, 2.5 -1.5945 0.748, 2.3031 -1.5945 0.9843, 1.6969 -1.5945 0.9843, 3.4557 -1.5945 0.1831, 3.5 -1.5945 0.2362, 3.126 -1.5945 0.6181, 3.874 -1.5945 0.6181, 3.6969 -1.5945 0.9843, 3.5 -1.5945 0.748, 3.3031 -1.5945 0.9843, 2.6969 -1.5945 0.9843, 4.3031 -1.5945 0.9843, 4.126 -1.5945 0.6181, 4.5 -1.5945 0.748, 4.5 -1.5945 0.2362, 4.4557 -1.5945 0.1831, 3.6969 -1.5945 0.0, 4.3031 -1.5945 0.0, 2.6969 -1.5945 0.0, 3.3031 -1.5945 0.0, 1.6969 -1.5945 0.0, 2.3031 -1.5945 0.0, 0.6969 -1.5945 0.0, 1.3031 -1.5945 0.0, -0.874 -0.8071 0.6181, -1.126 -0.8071 0.6181, -1.5 -0.8071 0.7421, -2.874 -0.8071 0.6181, -3.126 -0.8071 0.6181, -3.5 -0.8071 0.7421, 2.126 -0.8071 0.6181, 1.874 -0.8071 0.6181, 1.5 -0.8071 0.7421, 0.126 -0.8071 0.6181, 0.5 -0.8071 0.2362, 0.126 -0.8071 0.3661, 0.4016 -0.8071 0.1181, -0.126 -0.8071 0.3661, -0.4016 -0.8071 0.1181, -0.5 -0.8071 0.2362, -0.126 -0.8071 0.6181, -0.5 -0.8071 0.7421, 0.5 -0.8071 0.7421, 1.126 -0.8071 0.6181, 1.5 -0.8071 0.2362, 1.126 -0.8071 0.3661, 1.4016 -0.8071 0.1181, 0.874 -0.8071 0.3661, 0.5984 -0.8071 0.1181, 0.874 -0.8071 0.6181, 1.874 -0.8071 0.3661, 3.126 -0.8071 0.6181, 3.5 -0.8071 0.2362, 3.126 -0.8071 0.3661, 3.4016 -0.8071 0.1181, 2.874 -0.8071 0.3661, 2.5984 -0.8071 0.1181, 2.5 -0.8071 0.2362, 2.874 -0.8071 0.6181, 2.5 -0.8071 0.7421, 3.5 -0.8071 0.7421, 4.126 -0.8071 0.6181, 4.5 -0.8071 0.2362, 4.126 -0.8071 0.3661, 4.4016 -0.8071 0.1181, 3.874 -0.8071 0.3661, 3.5984 -0.8071 0.1181, 3.874 -0.8071 0.6181, 4.5 -0.8071 0.7421, 3.5984 -0.8071 0.8661, 4.4016 -0.8071 0.8661, 3.5 -0.8071 0.748, 4.5 -0.8071 0.748, 2.5984 -0.8071 0.8661, 3.4016 -0.8071 0.8661, 2.5 -0.8071 0.748, 1.5984 -0.8071 0.8661, 2.4016 -0.8071 0.8661, 1.5 -0.8071 0.748, 0.5984 -0.8071 0.8661, 1.4016 -0.8071 0.8661, 0.5 -0.8071 0.748, -0.4016 -0.8071 0.8661, 0.4016 -0.8071 0.8661, -0.5 -0.8071 0.748, -1.4016 -0.8071 0.8661, -0.5984 -0.8071 0.8661, -1.5 -0.8071 0.748, 2.126 -0.8071 0.3661, 2.4016 -0.8071 0.1181, 1.5984 -0.8071 0.1181, -3.4016 -0.8071 0.8661, -2.5984 -0.8071 0.8661, -3.5 -0.8071 0.748, -2.5 -0.8071 0.748, -2.5 -0.8071 0.7421, -4.4016 -0.8071 0.8661, -4.313 -0.8071 0.8661, -4.5 -0.8071 0.748, -4.313 -0.8071 0.7421, -4.5 -0.8071 0.7421, -4.313 -0.8071 0.1181, -4.4016 -0.8071 0.1181, -4.5 -0.8071 0.2362, -3.874 -0.8071 0.6181, -3.5 -0.8071 0.2362, -3.874 -0.8071 0.3661, -3.5984 -0.8071 0.1181, -4.126 -0.8071 0.3661, -4.126 -0.8071 0.6181, -3.126 -0.8071 0.3661, -3.5984 -0.8071 0.8661, -2.5 -0.8071 0.2362, -2.874 -0.8071 0.3661, -2.5984 -0.8071 0.1181, -3.4016 -0.8071 0.1181, -1.874 -0.8071 0.6181, -1.5 -0.8071 0.2362, -1.874 -0.8071 0.3661, -1.5984 -0.8071 0.1181, -2.126 -0.8071 0.3661, -2.4016 -0.8071 0.1181, -2.126 -0.8071 0.6181, -1.126 -0.8071 0.3661, -2.4016 -0.8071 0.8661, -1.5984 -0.8071 0.8661, -0.874 -0.8071 0.3661, -0.5984 -0.8071 0.1181, -1.4016 -0.8071 0.1181, -0.6969 -0.6102 0.0, -1.3031 -0.6102 0.0, -0.5984 -0.6102 0.1181, -1.4016 -0.6102 0.1181, -0.4016 -0.6102 0.1181, 0.4016 -0.6102 0.1181, -3.4016 -0.6102 0.1181, -2.5984 -0.6102 0.1181, -3.3031 -0.6102 0.0, -2.6969 -0.6102 0.0, -2.4016 -0.6102 0.1181, -1.5984 -0.6102 0.1181, -2.3031 -0.6102 0.0, -1.6969 -0.6102 0.0, 3.3031 -0.6102 0.0, 2.6969 -0.6102 0.0, 3.4016 -0.6102 0.1181, 2.5984 -0.6102 0.1181, 0.5984 -0.6102 0.1181, 1.4016 -0.6102 0.1181, 0.6969 -0.6102 0.0, 1.3031 -0.6102 0.0, 1.5984 -0.6102 0.1181, 2.4016 -0.6102 0.1181, 1.6969 -0.6102 0.0, 2.3031 -0.6102 0.0, -0.5984 -0.6102 0.8661, -1.4016 -0.6102 0.8661, -0.6969 -0.6102 0.9843, -1.3031 -0.6102 0.9843, -0.3031 -0.6102 0.9843, 0.3031 -0.6102 0.9843, -0.4016 -0.6102 0.8661, 0.4016 -0.6102 0.8661, -2.5984 -0.6102 0.8661, -3.4016 -0.6102 0.8661, -2.6969 -0.6102 0.9843, -3.3031 -0.6102 0.9843, -2.3031 -0.6102 0.9843, -1.6969 -0.6102 0.9843, -2.4016 -0.6102 0.8661, -1.5984 -0.6102 0.8661, 3.4016 -0.6102 0.8661, 2.5984 -0.6102 0.8661, 3.3031 -0.6102 0.9843, 2.6969 -0.6102 0.9843, 0.6969 -0.6102 0.9843, 1.3031 -0.6102 0.9843, 0.5984 -0.6102 0.8661, 1.4016 -0.6102 0.8661, 1.6969 -0.6102 0.9843, 2.3031 -0.6102 0.9843, 1.5984 -0.6102 0.8661, 2.4016 -0.6102 0.8661, -3.5984 -0.6102 0.1181, -3.6969 -0.6102 0.0, -4.4016 -0.6102 0.1181, -4.3031 -0.6102 0.0, 3.5984 -0.6102 0.1181, 4.4016 -0.6102 0.1181, 3.6969 -0.6102 0.0, 4.3031 -0.6102 0.0, 3.6969 -0.6102 0.9843, 4.3031 -0.6102 0.9843, 3.5984 -0.6102 0.8661, 4.4016 -0.6102 0.8661, -3.6969 -0.6102 0.9843, -4.3031 -0.6102 0.9843, -4.4016 -0.6102 0.8661, -3.5984 -0.6102 0.8661
            ]
        }
        coordIndex [
            0,1,2,-1,3,4,5,-1,6,7,0,-1,0,7,8,-1,0,8,1,-1,9,10,11,-1,12,13,14,-1,2,11,0,-1,0,11,10,-1,0,10,15,-1,4,16,5,-1,5,16,17,-1,5,17,18,-1,12,14,19,-1,20,21,15,-1,15,21,22,-1,15,22,23,-1,23,22,24,-1,23,24,25,-1,25,24,26,-1,25,26,14,-1,11,27,9,-1,9,27,28,-1,9,28,29,-1,29,28,30,-1,29,30,31,-1,31,30,32,-1,18,33,5,-1,5,33,34,-1,5,34,35,-1,36,37,38,-1,38,37,39,-1,38,39,40,-1,3,5,30,-1,30,5,41,-1,30,41,32,-1,35,42,5,-1,5,42,38,-1,5,38,43,-1,43,38,40,-1,44,45,14,-1,14,45,46,-1,14,46,19,-1,21,47,22,-1,22,47,48,-1,22,48,49,-1,49,48,50,-1,49,50,44,-1,44,50,51,-1,44,51,45,-1,10,52,15,-1,15,52,53,-1,15,53,54,-1,54,55,15,-1,15,55,56,-1,15,56,20,-1,57,58,59,-1,57,59,60,-1,13,61,14,-1,14,61,60,-1,14,60,25,-1,25,60,59,-1,25,59,62,-1,63,64,15,-1,15,64,0,-1,0,64,65,-1,0,65,66,-1,67,68,69,-1,69,68,70,-1,71,72,73,-1,73,72,74,-1,75,76,71,-1,71,76,77,-1,71,77,72,-1,72,77,69,-1,78,79,69,-1,69,79,80,-1,69,80,67,-1,81,82,83,-1,83,82,84,-1,85,86,84,-1,84,86,87,-1,84,87,83,-1,0,88,74,-1,74,88,89,-1,74,89,73,-1,70,90,69,-1,69,90,91,-1,69,91,72,-1,72,91,86,-1,15,72,63,-1,63,72,86,-1,63,86,92,-1,92,86,85,-1,92,85,93,-1,93,85,94,-1,95,96,88,-1,88,96,97,-1,88,97,98,-1,95,88,99,-1,99,88,0,-1,99,0,87,-1,87,0,66,-1,87,66,83,-1,98,100,88,-1,88,100,101,-1,88,101,69,-1,69,101,102,-1,69,102,78,-1,74,103,0,-1,0,103,59,-1,0,59,6,-1,6,59,58,-1,25,62,104,-1,105,106,107,-1,108,109,110,-1,111,112,113,-1,114,115,116,-1,117,118,119,-1,120,121,122,-1,122,121,123,-1,124,125,126,-1,127,128,129,-1,129,128,126,-1,126,125,130,-1,130,125,131,-1,130,131,132,-1,126,128,124,-1,124,128,133,-1,124,133,134,-1,135,136,137,-1,137,136,138,-1,137,138,139,-1,135,140,141,-1,141,140,132,-1,132,140,130,-1,130,140,139,-1,130,139,142,-1,139,138,142,-1,142,138,143,-1,142,143,144,-1,145,146,147,-1,147,146,148,-1,147,148,149,-1,145,150,151,-1,151,150,152,-1,149,153,136,-1,141,154,135,-1,135,154,152,-1,135,152,136,-1,136,152,150,-1,136,150,149,-1,149,148,153,-1,153,148,155,-1,153,155,156,-1,157,158,159,-1,159,158,160,-1,159,160,161,-1,161,160,162,-1,161,162,163,-1,164,165,146,-1,151,166,145,-1,145,166,157,-1,145,157,146,-1,146,157,159,-1,146,159,164,-1,167,168,123,-1,123,168,165,-1,123,165,122,-1,122,165,164,-1,122,164,163,-1,163,162,122,-1,122,162,169,-1,122,169,120,-1,119,118,133,-1,118,170,133,-1,133,170,171,-1,133,171,134,-1,134,171,172,-1,134,172,131,-1,131,172,173,-1,131,173,132,-1,117,104,174,-1,117,174,175,-1,116,115,174,-1,115,176,174,-1,174,176,177,-1,174,177,175,-1,175,177,178,-1,175,178,170,-1,170,178,179,-1,170,179,171,-1,114,180,181,-1,114,181,182,-1,113,112,181,-1,112,183,181,-1,181,183,184,-1,181,184,182,-1,182,184,185,-1,182,185,176,-1,176,185,186,-1,176,186,177,-1,111,187,188,-1,111,188,189,-1,110,109,188,-1,109,190,188,-1,188,190,191,-1,188,191,189,-1,189,191,192,-1,189,192,183,-1,183,192,193,-1,183,193,184,-1,108,194,195,-1,108,195,196,-1,197,198,199,-1,107,106,195,-1,106,197,195,-1,195,197,199,-1,195,199,196,-1,196,199,200,-1,196,200,190,-1,190,200,201,-1,190,201,191,-1,198,197,202,-1,202,197,203,-1,202,203,204,-1,204,203,205,-1,205,203,105,-1,205,105,206,-1,105,107,206,-1,206,107,207,-1,206,207,208,-1,108,110,194,-1,194,110,209,-1,194,209,210,-1,111,113,187,-1,187,113,211,-1,187,211,212,-1,114,116,180,-1,180,116,213,-1,180,213,214,-1,117,119,104,-1,104,119,23,-1,104,23,25,-1,215,216,217,-1,218,219,220,-1,221,222,223,-1,224,225,226,-1,226,225,227,-1,226,227,228,-1,227,229,228,-1,228,229,230,-1,228,230,231,-1,231,230,232,-1,231,232,224,-1,224,232,233,-1,224,233,225,-1,234,235,236,-1,236,235,237,-1,236,237,238,-1,237,239,238,-1,238,239,225,-1,238,225,240,-1,240,225,233,-1,240,233,234,-1,234,233,223,-1,234,223,235,-1,235,223,222,-1,235,222,241,-1,242,243,244,-1,244,243,245,-1,244,245,246,-1,245,247,246,-1,246,247,248,-1,246,248,249,-1,249,248,250,-1,249,250,242,-1,242,250,251,-1,242,251,243,-1,252,253,254,-1,254,253,255,-1,254,255,256,-1,255,257,256,-1,256,257,243,-1,256,243,258,-1,258,243,251,-1,258,251,252,-1,252,251,259,-1,252,259,253,-1,260,261,262,-1,262,261,263,-1,264,265,266,-1,266,265,262,-1,267,268,269,-1,269,268,266,-1,269,266,250,-1,250,266,262,-1,250,262,251,-1,251,262,263,-1,251,263,259,-1,270,271,272,-1,272,271,269,-1,273,274,275,-1,275,274,272,-1,276,277,278,-1,278,277,275,-1,278,275,232,-1,232,275,272,-1,232,272,233,-1,233,272,269,-1,233,269,223,-1,223,269,250,-1,223,250,221,-1,221,250,248,-1,221,248,279,-1,279,248,280,-1,279,280,241,-1,241,280,281,-1,241,281,235,-1,282,283,284,-1,284,283,285,-1,284,285,286,-1,286,285,217,-1,287,288,289,-1,289,288,290,-1,289,290,291,-1,292,293,290,-1,290,293,294,-1,290,294,291,-1,295,296,297,-1,297,296,298,-1,297,298,299,-1,299,298,292,-1,299,292,300,-1,300,292,290,-1,300,290,295,-1,295,290,220,-1,295,220,296,-1,296,220,219,-1,296,219,301,-1,288,302,290,-1,290,302,284,-1,290,284,220,-1,220,284,286,-1,220,286,218,-1,218,286,303,-1,218,303,304,-1,304,303,305,-1,304,305,301,-1,301,305,306,-1,301,306,296,-1,307,308,309,-1,309,308,310,-1,309,310,311,-1,310,312,311,-1,311,312,303,-1,311,303,313,-1,313,303,286,-1,313,286,307,-1,307,286,217,-1,307,217,308,-1,308,217,216,-1,308,216,314,-1,315,316,285,-1,285,316,278,-1,285,278,217,-1,217,278,232,-1,217,232,215,-1,215,232,230,-1,215,230,317,-1,317,230,318,-1,317,318,314,-1,314,318,319,-1,314,319,308,-1,320,321,322,-1,322,321,323,-1,72,324,74,-1,74,324,325,-1,74,325,103,-1,326,327,328,-1,328,327,329,-1,330,331,332,-1,332,331,333,-1,334,335,336,-1,336,335,337,-1,338,339,340,-1,340,339,341,-1,342,343,344,-1,344,343,345,-1,346,347,348,-1,348,347,349,-1,350,351,352,-1,352,351,353,-1,354,355,356,-1,356,355,357,-1,358,359,360,-1,360,359,361,-1,362,363,364,-1,364,363,365,-1,366,367,368,-1,368,367,369,-1,370,371,372,-1,372,371,373,-1,129,321,127,-1,127,321,320,-1,329,156,328,-1,328,156,155,-1,333,144,332,-1,332,144,143,-1,209,335,210,-1,210,335,334,-1,341,214,340,-1,340,214,213,-1,345,212,344,-1,344,212,211,-1,348,349,172,-1,172,349,173,-1,179,178,350,-1,350,178,351,-1,356,357,151,-1,151,357,166,-1,154,141,358,-1,358,141,359,-1,364,365,200,-1,200,365,201,-1,186,185,366,-1,366,185,367,-1,193,192,370,-1,370,192,371,-1,322,323,318,-1,318,323,319,-1,229,227,324,-1,324,227,325,-1,306,305,326,-1,326,305,327,-1,312,310,330,-1,330,310,331,-1,336,337,245,-1,245,337,247,-1,239,237,338,-1,338,237,339,-1,281,280,342,-1,342,280,343,-1,277,276,346,-1,346,276,347,-1,352,353,273,-1,273,353,274,-1,283,282,354,-1,354,282,355,-1,360,361,315,-1,315,361,316,-1,265,264,362,-1,362,264,363,-1,368,369,270,-1,270,369,271,-1,372,373,267,-1,267,373,268,-1,374,375,376,-1,376,375,377,-1,378,379,380,-1,380,379,381,-1,382,383,384,-1,384,383,385,-1,386,387,158,-1,158,387,160,-1,381,208,380,-1,380,208,207,-1,263,204,259,-1,259,204,205,-1,259,205,253,-1,388,387,389,-1,389,387,386,-1,294,120,289,-1,289,120,169,-1,198,202,382,-1,382,202,383,-1,375,168,377,-1,377,168,167,-1,168,375,298,-1,298,375,374,-1,168,298,165,-1,165,298,296,-1,165,296,146,-1,376,377,293,-1,293,377,167,-1,293,167,294,-1,294,167,120,-1,387,388,287,-1,289,169,287,-1,287,169,160,-1,287,160,387,-1,389,386,302,-1,302,386,158,-1,302,158,284,-1,284,158,157,-1,257,255,378,-1,378,255,379,-1,293,298,376,-1,376,298,374,-1,302,287,389,-1,389,287,388,-1,384,385,260,-1,260,385,261,-1,
        ]
    }
}
Shape{
    appearance Appearance {
        material  Material 	{
            diffuseColor 0.7529411764705882 0.7529411764705882 0.7529411764705882
            specularColor 0.3764705882352941 0.3764705882352941 0.3764705882352941
            ambientIntensity 0.7529
            transparency 0.0
            shininess 0.5
        }
    }
    geometry IndexedFaceSet {
        ccw TRUE
        solid FALSE
        coord DEF co Coordinate {
            point [
                -4.126 0.0591 0.6181, -3.874 0.0591 0.6181, -3.874 0.0892 0.6121, -4.126 0.0892 0.6121, -3.874 0.1147 0.595, -4.126 0.1147 0.595, -3.874 0.1318 0.5695, -4.126 0.1318 0.5695, -3.874 0.1378 0.5394, -4.126 0.1378 0.5394, -4.126 0.1378 -1.1024, -3.874 0.1378 -1.1024, -4.126 0.0591 -1.1811, -3.874 0.0591 -1.1811, -4.126 -0.0354 -1.1811, -3.874 -0.0354 -1.1811, -4.126 -0.1142 -1.1024, -3.874 -0.1142 -1.1024, -4.126 -0.1142 0.2874, -3.874 -0.1142 0.2874, -4.126 -0.1202 0.3175, -3.874 -0.1202 0.3175, -4.126 -0.1372 0.3431, -3.874 -0.1372 0.3431, -4.126 -0.1628 0.3602, -3.874 -0.1628 0.3602, -4.126 -0.1929 0.3661, -3.874 -0.1929 0.3661, -3.874 -0.8071 0.6181, -3.874 -0.8071 0.3661, -4.126 -0.8071 0.3661, -4.126 -0.8071 0.6181, -3.874 -1.5945 0.3661, -3.874 -3.878 0.3661, -4.126 -1.5945 0.3661, -4.126 -3.878 0.3661, -4.126 -1.5945 0.6181, -4.126 -3.878 0.6181, -3.874 -1.5945 0.6181, -3.874 -3.878 0.6181, -4.126 -3.9567 0.5394, -4.126 -3.9567 0.4449, -3.874 -3.9567 0.4449, -3.874 -3.9567 0.5394
            ]
        }
        coordIndex [
            0,1,2,-1,0,2,3,-1,3,2,4,-1,3,4,5,-1,5,4,6,-1,5,6,7,-1,7,6,8,-1,7,8,9,-1,10,9,11,-1,11,9,8,-1,12,10,13,-1,13,10,11,-1,14,12,15,-1,15,12,13,-1,16,14,17,-1,17,14,15,-1,18,16,19,-1,19,16,17,-1,18,19,20,-1,20,19,21,-1,20,21,22,-1,22,21,23,-1,22,23,24,-1,24,23,25,-1,24,25,26,-1,26,25,27,-1,1,28,29,-1,29,27,1,-1,1,27,25,-1,1,25,2,-1,2,25,23,-1,15,13,17,-1,17,13,11,-1,17,11,19,-1,19,11,8,-1,19,8,21,-1,21,8,6,-1,21,6,23,-1,23,6,4,-1,23,4,2,-1,30,31,26,-1,26,31,0,-1,26,0,24,-1,24,0,3,-1,24,3,22,-1,10,12,14,-1,3,5,22,-1,22,5,7,-1,22,7,20,-1,20,7,9,-1,20,9,18,-1,18,9,10,-1,18,10,16,-1,16,10,14,-1,28,1,31,-1,31,1,0,-1,30,26,29,-1,29,26,27,-1,32,33,34,-1,34,33,35,-1,36,37,38,-1,38,37,39,-1,40,37,41,-1,41,37,36,-1,41,36,35,-1,35,36,34,-1,42,33,43,-1,43,33,32,-1,43,32,39,-1,39,32,38,-1,41,35,42,-1,42,35,33,-1,40,41,43,-1,43,41,42,-1,37,40,39,-1,39,40,43,-1,
        ]
    }
}
Shape{
    appearance Appearance {
        material  Material 	{
            diffuseColor 0.14901960784313725 0.14901960784313725 0.14901960784313725
            specularColor 0.07450980392156863 0.07450980392156863 0.07450980392156863
            ambientIntensity 0.149
            transparency 0.0
            shininess 0.5
        }
    }
    geometry IndexedFaceSet {
        ccw TRUE
        solid FALSE
        coord DEF co Coordinate {
            point [
                -3.3031 -0.6102 0.9843, -3.4016 -0.6102 0.8661, -3.4016 -0.8071 0.8661, -3.5 -0.8071 0.748, -3.5 -1.5945 0.748, -3.3031 -1.5945 0.9843, 2.4016 -0.6102 0.8661, 2.3031 -0.6102 0.9843, 2.4016 -0.8071 0.8661, 2.3031 -1.5945 0.9843, 2.5 -0.8071 0.748, 2.5 -1.5945 0.748, 2.6969 -0.6102 0.9843, 2.5984 -0.6102 0.8661, 2.5984 -0.8071 0.8661, 2.6969 -1.5945 0.9843, 1.4016 -0.6102 0.8661, 1.3031 -0.6102 0.9843, 1.4016 -0.8071 0.8661, 1.3031 -1.5945 0.9843, 1.5 -0.8071 0.748, 1.5 -1.5945 0.748, 1.6969 -0.6102 0.9843, 1.5984 -0.6102 0.8661, 1.5984 -0.8071 0.8661, 1.6969 -1.5945 0.9843, 4.4016 -0.6102 0.8661, 4.3031 -0.6102 0.9843, 4.4016 -0.8071 0.8661, 4.3031 -1.5945 0.9843, 4.5 -0.8071 0.748, 4.5 -1.5945 0.748, 3.4016 -0.6102 0.8661, 3.3031 -0.6102 0.9843, 3.4016 -0.8071 0.8661, 3.3031 -1.5945 0.9843, 3.5 -0.8071 0.748, 3.5 -1.5945 0.748, 3.6969 -0.6102 0.9843, 3.5984 -0.6102 0.8661, 3.5984 -0.8071 0.8661, 3.6969 -1.5945 0.9843, -1.5984 -0.6102 0.8661, -1.6969 -0.6102 0.9843, -1.5984 -0.8071 0.8661, -1.6969 -1.5945 0.9843, -1.5 -0.8071 0.748, -1.5 -1.5945 0.748, -1.3031 -0.6102 0.9843, -1.4016 -0.6102 0.8661, -1.4016 -0.8071 0.8661, -1.3031 -1.5945 0.9843, -2.5984 -0.6102 0.8661, -2.6969 -0.6102 0.9843, -2.5984 -0.8071 0.8661, -2.6969 -1.5945 0.9843, -2.5 -0.8071 0.748, -2.5 -1.5945 0.748, -2.3031 -0.6102 0.9843, -2.4016 -0.6102 0.8661, -2.4016 -0.8071 0.8661, -2.3031 -1.5945 0.9843, 0.4016 -0.6102 0.8661, 0.3031 -0.6102 0.9843, 0.4016 -0.8071 0.8661, 0.3031 -1.5945 0.9843, 0.5 -0.8071 0.748, 0.5 -1.5945 0.748, 0.6969 -0.6102 0.9843, 0.5984 -0.6102 0.8661, 0.5984 -0.8071 0.8661, 0.6969 -1.5945 0.9843, -0.5984 -0.6102 0.8661, -0.6969 -0.6102 0.9843, -0.5984 -0.8071 0.8661, -0.6969 -1.5945 0.9843, -0.5 -0.8071 0.748, -0.5 -1.5945 0.748, -0.3031 -0.6102 0.9843, -0.4016 -0.6102 0.8661, -0.4016 -0.8071 0.8661, -0.3031 -1.5945 0.9843, 2.3031 -1.5945 0.0, 2.3031 -0.6102 0.0, 2.4016 -0.8071 0.1181, 2.4016 -0.6102 0.1181, 2.4557 -1.5945 0.1831, 2.5 -0.8071 0.2362, 2.5 -1.5945 0.2362, 2.5984 -0.8071 0.1181, 2.5984 -0.6102 0.1181, 2.6969 -0.6102 0.0, 2.5443 -1.5945 0.1831, 2.6969 -1.5945 0.0, 1.3031 -1.5945 0.0, 1.3031 -0.6102 0.0, 1.4016 -0.8071 0.1181, 1.4016 -0.6102 0.1181, 1.4557 -1.5945 0.1831, 1.5 -0.8071 0.2362, 1.5 -1.5945 0.2362, 1.5984 -0.8071 0.1181, 1.5984 -0.6102 0.1181, 1.6969 -0.6102 0.0, 1.5443 -1.5945 0.1831, 1.6969 -1.5945 0.0, 4.3031 -1.5945 0.0, 4.3031 -0.6102 0.0, 4.4016 -0.8071 0.1181, 4.4016 -0.6102 0.1181, 4.4557 -1.5945 0.1831, 4.5 -0.8071 0.2362, 4.5 -1.5945 0.2362, 3.3031 -1.5945 0.0, 3.3031 -0.6102 0.0, 3.4016 -0.8071 0.1181, 3.4016 -0.6102 0.1181, 3.4557 -1.5945 0.1831, 3.5 -0.8071 0.2362, 3.5 -1.5945 0.2362, 3.5984 -0.8071 0.1181, 3.5984 -0.6102 0.1181, 3.6969 -0.6102 0.0, 3.5443 -1.5945 0.1831, 3.6969 -1.5945 0.0, -1.6969 -1.5945 0.0, -1.6969 -0.6102 0.0, -1.5984 -0.8071 0.1181, -1.5984 -0.6102 0.1181, -1.5443 -1.5945 0.1831, -1.5 -0.8071 0.2362, -1.5 -1.5945 0.2362, -1.4016 -0.8071 0.1181, -1.4016 -0.6102 0.1181, -1.3031 -0.6102 0.0, -1.4557 -1.5945 0.1831, -1.3031 -1.5945 0.0, -2.6969 -1.5945 0.0, -2.6969 -0.6102 0.0, -2.5984 -0.8071 0.1181, -2.5984 -0.6102 0.1181, -2.5443 -1.5945 0.1831, -2.5 -0.8071 0.2362, -2.5 -1.5945 0.2362, -2.4016 -0.8071 0.1181, -2.4016 -0.6102 0.1181, -2.3031 -0.6102 0.0, -2.4557 -1.5945 0.1831, -2.3031 -1.5945 0.0, -3.4016 -0.8071 0.1181, -3.4016 -0.6102 0.1181, -3.3031 -0.6102 0.0, -3.5 -1.5945 0.2362, -3.5 -0.8071 0.2362, -3.4557 -1.5945 0.1831, -3.3031 -1.5945 0.0, 0.4557 -1.5945 0.1831, 0.3031 -1.5945 0.0, 0.3031 -1.3118 0.0, 0.5 -1.5945 0.2362, 0.5 -0.8071 0.2362, 0.4016 -0.8071 0.1181, 0.3031 -0.6102 0.0, 0.4016 -0.6102 0.1181, 0.5984 -0.8071 0.1181, 0.5984 -0.6102 0.1181, 0.6969 -0.6102 0.0, 0.5443 -1.5945 0.1831, 0.6969 -1.5945 0.0, -0.6969 -1.5945 0.0, -0.6969 -0.6102 0.0, -0.5984 -0.8071 0.1181, -0.5984 -0.6102 0.1181, -0.5443 -1.5945 0.1831, -0.5 -0.8071 0.2362, -0.5 -1.5945 0.2362, -0.4016 -0.8071 0.1181, -0.4016 -0.6102 0.1181, -0.3031 -0.6102 0.0, -0.3031 -1.3118 0.0, -0.3031 -1.5945 0.0, -0.4557 -1.5945 0.1831
            ]
        }
        coordIndex [
            0,1,2,-1,3,4,2,-1,2,4,5,-1,2,5,0,-1,6,7,8,-1,8,7,9,-1,8,9,10,-1,10,9,11,-1,12,13,14,-1,10,11,14,-1,14,11,15,-1,14,15,12,-1,16,17,18,-1,18,17,19,-1,18,19,20,-1,20,19,21,-1,22,23,24,-1,20,21,24,-1,24,21,25,-1,24,25,22,-1,26,27,28,-1,28,27,29,-1,28,29,30,-1,30,29,31,-1,32,33,34,-1,34,33,35,-1,34,35,36,-1,36,35,37,-1,38,39,40,-1,36,37,40,-1,40,37,41,-1,40,41,38,-1,42,43,44,-1,44,43,45,-1,44,45,46,-1,46,45,47,-1,48,49,50,-1,46,47,50,-1,50,47,51,-1,50,51,48,-1,52,53,54,-1,54,53,55,-1,54,55,56,-1,56,55,57,-1,58,59,60,-1,56,57,60,-1,60,57,61,-1,60,61,58,-1,62,63,64,-1,64,63,65,-1,64,65,66,-1,66,65,67,-1,68,69,70,-1,66,67,70,-1,70,67,71,-1,70,71,68,-1,72,73,74,-1,74,73,75,-1,74,75,76,-1,76,75,77,-1,78,79,80,-1,76,77,80,-1,80,77,81,-1,80,81,78,-1,82,83,84,-1,84,83,85,-1,82,84,86,-1,86,84,87,-1,86,87,88,-1,89,90,91,-1,88,87,92,-1,92,87,89,-1,92,89,93,-1,93,89,91,-1,94,95,96,-1,96,95,97,-1,94,96,98,-1,98,96,99,-1,98,99,100,-1,101,102,103,-1,100,99,104,-1,104,99,101,-1,104,101,105,-1,105,101,103,-1,106,107,108,-1,108,107,109,-1,106,108,110,-1,110,108,111,-1,110,111,112,-1,113,114,115,-1,115,114,116,-1,113,115,117,-1,117,115,118,-1,117,118,119,-1,120,121,122,-1,119,118,123,-1,123,118,120,-1,123,120,124,-1,124,120,122,-1,125,126,127,-1,127,126,128,-1,125,127,129,-1,129,127,130,-1,129,130,131,-1,132,133,134,-1,131,130,135,-1,135,130,132,-1,135,132,136,-1,136,132,134,-1,137,138,139,-1,139,138,140,-1,137,139,141,-1,141,139,142,-1,141,142,143,-1,144,145,146,-1,143,142,147,-1,147,142,144,-1,147,144,148,-1,148,144,146,-1,149,150,151,-1,152,153,154,-1,154,153,149,-1,154,149,155,-1,155,149,151,-1,156,157,158,-1,159,156,160,-1,160,156,158,-1,160,158,161,-1,161,158,162,-1,161,162,163,-1,164,165,166,-1,159,160,167,-1,167,160,164,-1,167,164,168,-1,168,164,166,-1,169,170,171,-1,171,170,172,-1,169,171,173,-1,173,171,174,-1,173,174,175,-1,176,177,178,-1,179,180,181,-1,178,179,176,-1,176,179,181,-1,176,181,174,-1,174,181,175,-1,
        ]
    }
}
Shape{
    appearance Appearance {
        material  Material 	{
            diffuseColor 0.7529411764705882 0.7529411764705882 0.7529411764705882
            specularColor 0.3764705882352941 0.3764705882352941 0.3764705882352941
            ambientIntensity 0.7529
            transparency 0.0
            shininess 0.5
        }
    }
    geometry IndexedFaceSet {
        ccw TRUE
        solid FALSE
        coord DEF co Coordinate {
            point [
                -3.126 0.0591 0.6181, -2.874 0.0591 0.6181, -2.874 0.0766 0.6161, -3.126 0.0766 0.6161, -2.874 0.0932 0.6103, -3.126 0.0932 0.6103, -2.874 0.1081 0.6009, -3.126 0.1081 0.6009, -2.874 0.1206 0.5885, -3.126 0.1206 0.5885, -2.874 0.13 0.5735, -3.126 0.13 0.5735, -2.874 0.1358 0.5569, -3.126 0.1358 0.5569, -2.874 0.1378 0.5394, -3.126 0.1378 0.5394, -3.126 0.1378 -1.1024, -2.874 0.1378 -1.1024, -3.126 0.0591 -1.1811, -2.874 0.0591 -1.1811, -3.126 -0.0354 -1.1811, -2.874 -0.0354 -1.1811, -3.126 -0.1142 -1.1024, -2.874 -0.1142 -1.1024, -3.126 -0.1142 0.2874, -2.874 -0.1142 0.2874, -3.126 -0.1161 0.3049, -2.874 -0.1161 0.3049, -3.126 -0.122 0.3216, -2.874 -0.122 0.3216, -3.126 -0.1314 0.3365, -2.874 -0.1314 0.3365, -3.126 -0.1438 0.349, -2.874 -0.1438 0.349, -3.126 -0.1588 0.3583, -2.874 -0.1588 0.3583, -3.126 -0.1754 0.3642, -2.874 -0.1754 0.3642, -3.126 -0.1929 0.3661, -2.874 -0.1929 0.3661, -2.874 -0.8071 0.6181, -2.874 -0.8071 0.3661, -3.126 -0.8071 0.3661, -3.126 -0.8071 0.6181, -2.874 -1.5945 0.3661, -2.874 -3.878 0.3661, -3.126 -1.5945 0.3661, -3.126 -3.878 0.3661, -3.126 -1.5945 0.6181, -3.126 -3.878 0.6181, -2.874 -1.5945 0.6181, -2.874 -3.878 0.6181, -3.126 -3.9567 0.5394, -3.126 -3.9567 0.4449, -2.874 -3.9567 0.4449, -2.874 -3.9567 0.5394, -2.126 0.0591 0.6181, -1.874 0.0591 0.6181, -1.874 0.0766 0.6161, -2.126 0.0766 0.6161, -1.874 0.0932 0.6103, -2.126 0.0932 0.6103, -1.874 0.1081 0.6009, -2.126 0.1081 0.6009, -1.874 0.1206 0.5885, -2.126 0.1206 0.5885, -1.874 0.13 0.5735, -2.126 0.13 0.5735, -1.874 0.1358 0.5569, -2.126 0.1358 0.5569, -1.874 0.1378 0.5394, -2.126 0.1378 0.5394, -2.126 0.1378 -1.1024, -1.874 0.1378 -1.1024, -2.126 0.0591 -1.1811, -1.874 0.0591 -1.1811, -2.126 -0.0354 -1.1811, -1.874 -0.0354 -1.1811, -2.126 -0.1142 -1.1024, -1.874 -0.1142 -1.1024, -2.126 -0.1142 0.2874, -1.874 -0.1142 0.2874, -2.126 -0.1161 0.3049, -1.874 -0.1161 0.3049, -2.126 -0.122 0.3216, -1.874 -0.122 0.3216, -2.126 -0.1314 0.3365, -1.874 -0.1314 0.3365, -2.126 -0.1438 0.349, -1.874 -0.1438 0.349, -2.126 -0.1588 0.3583, -1.874 -0.1588 0.3583, -2.126 -0.1754 0.3642, -1.874 -0.1754 0.3642, -2.126 -0.1929 0.3661, -1.874 -0.1929 0.3661, -1.874 -0.8071 0.6181, -1.874 -0.8071 0.3661, -2.126 -0.8071 0.3661, -2.126 -0.8071 0.6181, -1.874 -1.5945 0.3661, -1.874 -3.878 0.3661, -2.126 -1.5945 0.3661, -2.126 -3.878 0.3661, -2.126 -1.5945 0.6181, -2.126 -3.878 0.6181, -1.874 -1.5945 0.6181, -1.874 -3.878 0.6181, -2.126 -3.9567 0.5394, -2.126 -3.9567 0.4449, -1.874 -3.9567 0.4449, -1.874 -3.9567 0.5394, -1.126 0.0591 0.6181, -0.874 0.0591 0.6181, -0.874 0.0766 0.6161, -1.126 0.0766 0.6161, -0.874 0.0932 0.6103, -1.126 0.0932 0.6103, -0.874 0.1081 0.6009, -1.126 0.1081 0.6009, -0.874 0.1206 0.5885, -1.126 0.1206 0.5885, -0.874 0.13 0.5735, -1.126 0.13 0.5735, -0.874 0.1358 0.5569, -1.126 0.1358 0.5569, -0.874 0.1378 0.5394, -1.126 0.1378 0.5394, -1.126 0.1378 -1.1024, -0.874 0.1378 -1.1024, -1.126 0.0591 -1.1811, -0.874 0.0591 -1.1811, -1.126 -0.0354 -1.1811, -0.874 -0.0354 -1.1811, -1.126 -0.1142 -1.1024, -0.874 -0.1142 -1.1024, -1.126 -0.1142 0.2874, -0.874 -0.1142 0.2874, -1.126 -0.1161 0.3049, -0.874 -0.1161 0.3049, -1.126 -0.122 0.3216, -0.874 -0.122 0.3216, -1.126 -0.1314 0.3365, -0.874 -0.1314 0.3365, -1.126 -0.1438 0.349, -0.874 -0.1438 0.349, -1.126 -0.1588 0.3583, -0.874 -0.1588 0.3583, -1.126 -0.1754 0.3642, -0.874 -0.1754 0.3642, -1.126 -0.1929 0.3661, -0.874 -0.1929 0.3661, -0.874 -0.8071 0.6181, -0.874 -0.8071 0.3661, -1.126 -0.8071 0.3661, -1.126 -0.8071 0.6181, -0.874 -1.5945 0.3661, -0.874 -3.878 0.3661, -1.126 -1.5945 0.3661, -1.126 -3.878 0.3661, -1.126 -1.5945 0.6181, -1.126 -3.878 0.6181, -0.874 -1.5945 0.6181, -0.874 -3.878 0.6181, -1.126 -3.9567 0.5394, -1.126 -3.9567 0.4449, -0.874 -3.9567 0.4449, -0.874 -3.9567 0.5394, -0.126 0.0591 0.6181, 0.126 0.0591 0.6181, 0.126 0.0766 0.6161, -0.126 0.0766 0.6161, 0.126 0.0932 0.6103, -0.126 0.0932 0.6103, 0.126 0.1081 0.6009, -0.126 0.1081 0.6009, 0.126 0.1206 0.5885, -0.126 0.1206 0.5885, 0.126 0.13 0.5735, -0.126 0.13 0.5735, 0.126 0.1358 0.5569, -0.126 0.1358 0.5569, 0.126 0.1378 0.5394, -0.126 0.1378 0.5394, -0.126 0.1378 -1.1024, 0.126 0.1378 -1.1024, -0.126 0.0591 -1.1811, 0.126 0.0591 -1.1811, -0.126 -0.0354 -1.1811, 0.126 -0.0354 -1.1811, -0.126 -0.1142 -1.1024, 0.126 -0.1142 -1.1024, -0.126 -0.1142 0.2874, 0.126 -0.1142 0.2874, -0.126 -0.1161 0.3049, 0.126 -0.1161 0.3049, -0.126 -0.122 0.3216, 0.126 -0.122 0.3216, -0.126 -0.1314 0.3365, 0.126 -0.1314 0.3365, -0.126 -0.1438 0.349, 0.126 -0.1438 0.349, -0.126 -0.1588 0.3583, 0.126 -0.1588 0.3583, -0.126 -0.1754 0.3642, 0.126 -0.1754 0.3642, -0.126 -0.1929 0.3661, 0.126 -0.1929 0.3661, 0.126 -0.8071 0.6181, 0.126 -0.8071 0.3661, -0.126 -0.8071 0.3661, -0.126 -0.8071 0.6181, 0.126 -1.5945 0.3661, 0.126 -3.878 0.3661, -0.126 -1.5945 0.3661, -0.126 -3.878 0.3661, -0.126 -1.5945 0.6181, -0.126 -3.878 0.6181, 0.126 -1.5945 0.6181, 0.126 -3.878 0.6181, -0.126 -3.9567 0.5394, -0.126 -3.9567 0.4449, 0.126 -3.9567 0.4449, 0.126 -3.9567 0.5394, 0.874 0.0591 0.6181, 1.126 0.0591 0.6181, 1.126 0.0766 0.6161, 0.874 0.0766 0.6161, 1.126 0.0932 0.6103, 0.874 0.0932 0.6103, 1.126 0.1081 0.6009, 0.874 0.1081 0.6009, 1.126 0.1206 0.5885, 0.874 0.1206 0.5885, 1.126 0.13 0.5735, 0.874 0.13 0.5735, 1.126 0.1358 0.5569, 0.874 0.1358 0.5569, 1.126 0.1378 0.5394, 0.874 0.1378 0.5394, 0.874 0.1378 -1.1024, 1.126 0.1378 -1.1024, 0.874 0.0591 -1.1811, 1.126 0.0591 -1.1811, 0.874 -0.0354 -1.1811, 1.126 -0.0354 -1.1811, 0.874 -0.1142 -1.1024, 1.126 -0.1142 -1.1024, 0.874 -0.1142 0.2874, 1.126 -0.1142 0.2874, 0.874 -0.1161 0.3049, 1.126 -0.1161 0.3049, 0.874 -0.122 0.3216, 1.126 -0.122 0.3216, 0.874 -0.1314 0.3365, 1.126 -0.1314 0.3365, 0.874 -0.1438 0.349, 1.126 -0.1438 0.349, 0.874 -0.1588 0.3583, 1.126 -0.1588 0.3583, 0.874 -0.1754 0.3642, 1.126 -0.1754 0.3642, 0.874 -0.1929 0.3661, 1.126 -0.1929 0.3661, 1.126 -0.8071 0.6181, 1.126 -0.8071 0.3661, 0.874 -0.8071 0.3661, 0.874 -0.8071 0.6181, 1.126 -1.5945 0.3661, 1.126 -3.878 0.3661, 0.874 -1.5945 0.3661, 0.874 -3.878 0.3661, 0.874 -1.5945 0.6181, 0.874 -3.878 0.6181, 1.126 -1.5945 0.6181, 1.126 -3.878 0.6181, 0.874 -3.9567 0.5394, 0.874 -3.9567 0.4449, 1.126 -3.9567 0.4449, 1.126 -3.9567 0.5394, 1.874 0.0591 0.6181, 2.126 0.0591 0.6181, 2.126 0.0766 0.6161, 1.874 0.0766 0.6161, 2.126 0.0932 0.6103, 1.874 0.0932 0.6103, 2.126 0.1081 0.6009, 1.874 0.1081 0.6009, 2.126 0.1206 0.5885, 1.874 0.1206 0.5885, 2.126 0.13 0.5735, 1.874 0.13 0.5735, 2.126 0.1358 0.5569, 1.874 0.1358 0.5569, 2.126 0.1378 0.5394, 1.874 0.1378 0.5394, 1.874 0.1378 -1.1024, 2.126 0.1378 -1.1024, 1.874 0.0591 -1.1811, 2.126 0.0591 -1.1811, 1.874 -0.0354 -1.1811, 2.126 -0.0354 -1.1811, 1.874 -0.1142 -1.1024, 2.126 -0.1142 -1.1024, 1.874 -0.1142 0.2874, 2.126 -0.1142 0.2874, 1.874 -0.1161 0.3049, 2.126 -0.1161 0.3049, 1.874 -0.122 0.3216, 2.126 -0.122 0.3216, 1.874 -0.1314 0.3365, 2.126 -0.1314 0.3365, 1.874 -0.1438 0.349, 2.126 -0.1438 0.349, 1.874 -0.1588 0.3583, 2.126 -0.1588 0.3583, 1.874 -0.1754 0.3642, 2.126 -0.1754 0.3642, 1.874 -0.1929 0.3661, 2.126 -0.1929 0.3661, 2.126 -0.8071 0.6181, 2.126 -0.8071 0.3661, 1.874 -0.8071 0.3661, 1.874 -0.8071 0.6181, 2.126 -1.5945 0.3661, 2.126 -3.878 0.3661, 1.874 -1.5945 0.3661, 1.874 -3.878 0.3661, 1.874 -1.5945 0.6181, 1.874 -3.878 0.6181, 2.126 -1.5945 0.6181, 2.126 -3.878 0.6181, 1.874 -3.9567 0.5394, 1.874 -3.9567 0.4449, 2.126 -3.9567 0.4449, 2.126 -3.9567 0.5394, 2.874 0.0591 0.6181, 3.126 0.0591 0.6181, 3.126 0.0766 0.6161, 2.874 0.0766 0.6161, 3.126 0.0932 0.6103, 2.874 0.0932 0.6103, 3.126 0.1081 0.6009, 2.874 0.1081 0.6009, 3.126 0.1206 0.5885, 2.874 0.1206 0.5885, 3.126 0.13 0.5735, 2.874 0.13 0.5735, 3.126 0.1358 0.5569, 2.874 0.1358 0.5569, 3.126 0.1378 0.5394, 2.874 0.1378 0.5394, 2.874 0.1378 -1.1024, 3.126 0.1378 -1.1024, 2.874 0.0591 -1.1811, 3.126 0.0591 -1.1811, 2.874 -0.0354 -1.1811, 3.126 -0.0354 -1.1811, 2.874 -0.1142 -1.1024, 3.126 -0.1142 -1.1024, 2.874 -0.1142 0.2874, 3.126 -0.1142 0.2874, 2.874 -0.1161 0.3049, 3.126 -0.1161 0.3049, 2.874 -0.122 0.3216, 3.126 -0.122 0.3216, 2.874 -0.1314 0.3365, 3.126 -0.1314 0.3365, 2.874 -0.1438 0.349, 3.126 -0.1438 0.349, 2.874 -0.1588 0.3583, 3.126 -0.1588 0.3583, 2.874 -0.1754 0.3642, 3.126 -0.1754 0.3642, 2.874 -0.1929 0.3661, 3.126 -0.1929 0.3661, 3.126 -0.8071 0.6181, 3.126 -0.8071 0.3661, 2.874 -0.8071 0.3661, 2.874 -0.8071 0.6181, 3.126 -1.5945 0.3661, 3.126 -3.878 0.3661, 2.874 -1.5945 0.3661, 2.874 -3.878 0.3661, 2.874 -1.5945 0.6181, 2.874 -3.878 0.6181, 3.126 -1.5945 0.6181, 3.126 -3.878 0.6181, 2.874 -3.9567 0.5394, 2.874 -3.9567 0.4449, 3.126 -3.9567 0.4449, 3.126 -3.9567 0.5394, 3.874 0.0591 0.6181, 4.126 0.0591 0.6181, 4.126 0.0766 0.6161, 3.874 0.0766 0.6161, 4.126 0.0932 0.6103, 3.874 0.0932 0.6103, 4.126 0.1081 0.6009, 3.874 0.1081 0.6009, 4.126 0.1206 0.5885, 3.874 0.1206 0.5885, 4.126 0.13 0.5735, 3.874 0.13 0.5735, 4.126 0.1358 0.5569, 3.874 0.1358 0.5569, 4.126 0.1378 0.5394, 3.874 0.1378 0.5394, 3.874 0.1378 -1.1024, 4.126 0.1378 -1.1024, 3.874 0.0591 -1.1811, 4.126 0.0591 -1.1811, 3.874 -0.0354 -1.1811, 4.126 -0.0354 -1.1811, 3.874 -0.1142 -1.1024, 4.126 -0.1142 -1.1024, 3.874 -0.1142 0.2874, 4.126 -0.1142 0.2874, 3.874 -0.1161 0.3049, 4.126 -0.1161 0.3049, 3.874 -0.122 0.3216, 4.126 -0.122 0.3216, 3.874 -0.1314 0.3365, 4.126 -0.1314 0.3365, 3.874 -0.1438 0.349, 4.126 -0.1438 0.349, 3.874 -0.1588 0.3583, 4.126 -0.1588 0.3583, 3.874 -0.1754 0.3642, 4.126 -0.1754 0.3642, 3.874 -0.1929 0.3661, 4.126 -0.1929 0.3661, 4.126 -0.8071 0.6181, 4.126 -0.8071 0.3661, 3.874 -0.8071 0.3661, 3.874 -0.8071 0.6181, 4.126 -1.5945 0.3661, 4.126 -3.878 0.3661, 3.874 -1.5945 0.3661, 3.874 -3.878 0.3661, 3.874 -1.5945 0.6181, 3.874 -3.878 0.6181, 4.126 -1.5945 0.6181, 4.126 -3.878 0.6181, 3.874 -3.9567 0.5394, 3.874 -3.9567 0.4449, 4.126 -3.9567 0.4449, 4.126 -3.9567 0.5394, 0.1575 -0.9545 0.0394, 0.1575 -0.9525 0.0394, 0.1575 -0.9545 0.0, 0.1575 -0.9525 0.0, 0.0 -0.8798 0.0394, 0.0 -0.8798 0.0, 0.0 -0.8951 0.0394, 0.0 -0.8951 0.0
            ]
        }
        coordIndex [
            0,1,2,-1,0,2,3,-1,3,2,4,-1,3,4,5,-1,5,4,6,-1,5,6,7,-1,7,6,8,-1,7,8,9,-1,9,8,10,-1,9,10,11,-1,11,10,12,-1,11,12,13,-1,13,12,14,-1,13,14,15,-1,16,15,17,-1,17,15,14,-1,18,16,19,-1,19,16,17,-1,20,18,21,-1,21,18,19,-1,22,20,23,-1,23,20,21,-1,24,22,25,-1,25,22,23,-1,24,25,26,-1,26,25,27,-1,26,27,28,-1,28,27,29,-1,28,29,30,-1,30,29,31,-1,30,31,32,-1,32,31,33,-1,32,33,34,-1,34,33,35,-1,34,35,36,-1,36,35,37,-1,36,37,38,-1,38,37,39,-1,40,41,1,-1,1,41,39,-1,8,6,33,-1,29,14,31,-1,31,14,12,-1,31,12,33,-1,33,12,10,-1,33,10,8,-1,39,37,1,-1,1,37,35,-1,1,35,2,-1,2,35,33,-1,2,33,4,-1,4,33,6,-1,21,19,23,-1,23,19,17,-1,23,17,25,-1,25,17,14,-1,25,14,27,-1,27,14,29,-1,24,15,16,-1,5,7,32,-1,42,43,38,-1,38,43,0,-1,38,0,36,-1,36,0,34,-1,18,20,16,-1,16,20,22,-1,16,22,24,-1,34,0,32,-1,32,0,3,-1,32,3,5,-1,24,26,15,-1,15,26,28,-1,15,28,13,-1,13,28,30,-1,13,30,11,-1,11,30,32,-1,11,32,9,-1,9,32,7,-1,40,1,43,-1,43,1,0,-1,42,38,41,-1,41,38,39,-1,44,45,46,-1,46,45,47,-1,48,49,50,-1,50,49,51,-1,52,49,53,-1,53,49,48,-1,53,48,47,-1,47,48,46,-1,54,45,55,-1,55,45,44,-1,55,44,51,-1,51,44,50,-1,53,47,54,-1,54,47,45,-1,52,53,55,-1,55,53,54,-1,49,52,51,-1,51,52,55,-1,56,57,58,-1,56,58,59,-1,59,58,60,-1,59,60,61,-1,61,60,62,-1,61,62,63,-1,63,62,64,-1,63,64,65,-1,65,64,66,-1,65,66,67,-1,67,66,68,-1,67,68,69,-1,69,68,70,-1,69,70,71,-1,72,71,73,-1,73,71,70,-1,74,72,75,-1,75,72,73,-1,76,74,77,-1,77,74,75,-1,78,76,79,-1,79,76,77,-1,80,78,81,-1,81,78,79,-1,80,81,82,-1,82,81,83,-1,82,83,84,-1,84,83,85,-1,84,85,86,-1,86,85,87,-1,86,87,88,-1,88,87,89,-1,88,89,90,-1,90,89,91,-1,90,91,92,-1,92,91,93,-1,92,93,94,-1,94,93,95,-1,96,97,57,-1,57,97,95,-1,64,62,89,-1,85,70,87,-1,87,70,68,-1,87,68,89,-1,89,68,66,-1,89,66,64,-1,95,93,57,-1,57,93,91,-1,57,91,58,-1,58,91,89,-1,58,89,60,-1,60,89,62,-1,77,75,79,-1,79,75,73,-1,79,73,81,-1,81,73,70,-1,81,70,83,-1,83,70,85,-1,80,71,72,-1,61,63,88,-1,98,99,94,-1,94,99,56,-1,94,56,92,-1,92,56,90,-1,74,76,72,-1,72,76,78,-1,72,78,80,-1,90,56,88,-1,88,56,59,-1,88,59,61,-1,80,82,71,-1,71,82,84,-1,71,84,69,-1,69,84,86,-1,69,86,67,-1,67,86,88,-1,67,88,65,-1,65,88,63,-1,96,57,99,-1,99,57,56,-1,98,94,97,-1,97,94,95,-1,100,101,102,-1,102,101,103,-1,104,105,106,-1,106,105,107,-1,108,105,109,-1,109,105,104,-1,109,104,103,-1,103,104,102,-1,110,101,111,-1,111,101,100,-1,111,100,107,-1,107,100,106,-1,109,103,110,-1,110,103,101,-1,108,109,111,-1,111,109,110,-1,105,108,107,-1,107,108,111,-1,112,113,114,-1,112,114,115,-1,115,114,116,-1,115,116,117,-1,117,116,118,-1,117,118,119,-1,119,118,120,-1,119,120,121,-1,121,120,122,-1,121,122,123,-1,123,122,124,-1,123,124,125,-1,125,124,126,-1,125,126,127,-1,128,127,129,-1,129,127,126,-1,130,128,131,-1,131,128,129,-1,132,130,133,-1,133,130,131,-1,134,132,135,-1,135,132,133,-1,136,134,137,-1,137,134,135,-1,136,137,138,-1,138,137,139,-1,138,139,140,-1,140,139,141,-1,140,141,142,-1,142,141,143,-1,142,143,144,-1,144,143,145,-1,144,145,146,-1,146,145,147,-1,146,147,148,-1,148,147,149,-1,148,149,150,-1,150,149,151,-1,152,153,113,-1,113,153,151,-1,120,118,145,-1,141,126,143,-1,143,126,124,-1,143,124,145,-1,145,124,122,-1,145,122,120,-1,151,149,113,-1,113,149,147,-1,113,147,114,-1,114,147,145,-1,114,145,116,-1,116,145,118,-1,133,131,135,-1,135,131,129,-1,135,129,137,-1,137,129,126,-1,137,126,139,-1,139,126,141,-1,136,127,128,-1,117,119,144,-1,154,155,150,-1,150,155,112,-1,150,112,148,-1,148,112,146,-1,130,132,128,-1,128,132,134,-1,128,134,136,-1,146,112,144,-1,144,112,115,-1,144,115,117,-1,136,138,127,-1,127,138,140,-1,127,140,125,-1,125,140,142,-1,125,142,123,-1,123,142,144,-1,123,144,121,-1,121,144,119,-1,152,113,155,-1,155,113,112,-1,154,150,153,-1,153,150,151,-1,156,157,158,-1,158,157,159,-1,160,161,162,-1,162,161,163,-1,164,161,165,-1,165,161,160,-1,165,160,159,-1,159,160,158,-1,166,157,167,-1,167,157,156,-1,167,156,163,-1,163,156,162,-1,165,159,166,-1,166,159,157,-1,164,165,167,-1,167,165,166,-1,161,164,163,-1,163,164,167,-1,168,169,170,-1,168,170,171,-1,171,170,172,-1,171,172,173,-1,173,172,174,-1,173,174,175,-1,175,174,176,-1,175,176,177,-1,177,176,178,-1,177,178,179,-1,179,178,180,-1,179,180,181,-1,181,180,182,-1,181,182,183,-1,184,183,185,-1,185,183,182,-1,186,184,187,-1,187,184,185,-1,188,186,189,-1,189,186,187,-1,190,188,191,-1,191,188,189,-1,192,190,193,-1,193,190,191,-1,192,193,194,-1,194,193,195,-1,194,195,196,-1,196,195,197,-1,196,197,198,-1,198,197,199,-1,198,199,200,-1,200,199,201,-1,200,201,202,-1,202,201,203,-1,202,203,204,-1,204,203,205,-1,204,205,206,-1,206,205,207,-1,208,209,169,-1,169,209,207,-1,176,174,201,-1,197,182,199,-1,199,182,180,-1,199,180,201,-1,201,180,178,-1,201,178,176,-1,207,205,169,-1,169,205,203,-1,169,203,170,-1,170,203,201,-1,170,201,172,-1,172,201,174,-1,189,187,191,-1,191,187,185,-1,191,185,193,-1,193,185,182,-1,193,182,195,-1,195,182,197,-1,192,183,184,-1,173,175,200,-1,210,211,206,-1,206,211,168,-1,206,168,204,-1,204,168,202,-1,186,188,184,-1,184,188,190,-1,184,190,192,-1,202,168,200,-1,200,168,171,-1,200,171,173,-1,192,194,183,-1,183,194,196,-1,183,196,181,-1,181,196,198,-1,181,198,179,-1,179,198,200,-1,179,200,177,-1,177,200,175,-1,208,169,211,-1,211,169,168,-1,210,206,209,-1,209,206,207,-1,212,213,214,-1,214,213,215,-1,216,217,218,-1,218,217,219,-1,220,217,221,-1,221,217,216,-1,221,216,215,-1,215,216,214,-1,222,213,223,-1,223,213,212,-1,223,212,219,-1,219,212,218,-1,221,215,222,-1,222,215,213,-1,220,221,223,-1,223,221,222,-1,217,220,219,-1,219,220,223,-1,224,225,226,-1,224,226,227,-1,227,226,228,-1,227,228,229,-1,229,228,230,-1,229,230,231,-1,231,230,232,-1,231,232,233,-1,233,232,234,-1,233,234,235,-1,235,234,236,-1,235,236,237,-1,237,236,238,-1,237,238,239,-1,240,239,241,-1,241,239,238,-1,242,240,243,-1,243,240,241,-1,244,242,245,-1,245,242,243,-1,246,244,247,-1,247,244,245,-1,248,246,249,-1,249,246,247,-1,248,249,250,-1,250,249,251,-1,250,251,252,-1,252,251,253,-1,252,253,254,-1,254,253,255,-1,254,255,256,-1,256,255,257,-1,256,257,258,-1,258,257,259,-1,258,259,260,-1,260,259,261,-1,260,261,262,-1,262,261,263,-1,264,265,225,-1,225,265,263,-1,232,230,257,-1,253,238,255,-1,255,238,236,-1,255,236,257,-1,257,236,234,-1,257,234,232,-1,263,261,225,-1,225,261,259,-1,225,259,226,-1,226,259,257,-1,226,257,228,-1,228,257,230,-1,245,243,247,-1,247,243,241,-1,247,241,249,-1,249,241,238,-1,249,238,251,-1,251,238,253,-1,248,239,240,-1,229,231,256,-1,266,267,262,-1,262,267,224,-1,262,224,260,-1,260,224,258,-1,242,244,240,-1,240,244,246,-1,240,246,248,-1,258,224,256,-1,256,224,227,-1,256,227,229,-1,248,250,239,-1,239,250,252,-1,239,252,237,-1,237,252,254,-1,237,254,235,-1,235,254,256,-1,235,256,233,-1,233,256,231,-1,264,225,267,-1,267,225,224,-1,266,262,265,-1,265,262,263,-1,268,269,270,-1,270,269,271,-1,272,273,274,-1,274,273,275,-1,276,273,277,-1,277,273,272,-1,277,272,271,-1,271,272,270,-1,278,269,279,-1,279,269,268,-1,279,268,275,-1,275,268,274,-1,277,271,278,-1,278,271,269,-1,276,277,279,-1,279,277,278,-1,273,276,275,-1,275,276,279,-1,280,281,282,-1,280,282,283,-1,283,282,284,-1,283,284,285,-1,285,284,286,-1,285,286,287,-1,287,286,288,-1,287,288,289,-1,289,288,290,-1,289,290,291,-1,291,290,292,-1,291,292,293,-1,293,292,294,-1,293,294,295,-1,296,295,297,-1,297,295,294,-1,298,296,299,-1,299,296,297,-1,300,298,301,-1,301,298,299,-1,302,300,303,-1,303,300,301,-1,304,302,305,-1,305,302,303,-1,304,305,306,-1,306,305,307,-1,306,307,308,-1,308,307,309,-1,308,309,310,-1,310,309,311,-1,310,311,312,-1,312,311,313,-1,312,313,314,-1,314,313,315,-1,314,315,316,-1,316,315,317,-1,316,317,318,-1,318,317,319,-1,320,321,281,-1,281,321,319,-1,288,286,313,-1,309,294,311,-1,311,294,292,-1,311,292,313,-1,313,292,290,-1,313,290,288,-1,319,317,281,-1,281,317,315,-1,281,315,282,-1,282,315,313,-1,282,313,284,-1,284,313,286,-1,301,299,303,-1,303,299,297,-1,303,297,305,-1,305,297,294,-1,305,294,307,-1,307,294,309,-1,304,295,296,-1,285,287,312,-1,322,323,318,-1,318,323,280,-1,318,280,316,-1,316,280,314,-1,298,300,296,-1,296,300,302,-1,296,302,304,-1,314,280,312,-1,312,280,283,-1,312,283,285,-1,304,306,295,-1,295,306,308,-1,295,308,293,-1,293,308,310,-1,293,310,291,-1,291,310,312,-1,291,312,289,-1,289,312,287,-1,320,281,323,-1,323,281,280,-1,322,318,321,-1,321,318,319,-1,324,325,326,-1,326,325,327,-1,328,329,330,-1,330,329,331,-1,332,329,333,-1,333,329,328,-1,333,328,327,-1,327,328,326,-1,334,325,335,-1,335,325,324,-1,335,324,331,-1,331,324,330,-1,333,327,334,-1,334,327,325,-1,332,333,335,-1,335,333,334,-1,329,332,331,-1,331,332,335,-1,336,337,338,-1,336,338,339,-1,339,338,340,-1,339,340,341,-1,341,340,342,-1,341,342,343,-1,343,342,344,-1,343,344,345,-1,345,344,346,-1,345,346,347,-1,347,346,348,-1,347,348,349,-1,349,348,350,-1,349,350,351,-1,352,351,353,-1,353,351,350,-1,354,352,355,-1,355,352,353,-1,356,354,357,-1,357,354,355,-1,358,356,359,-1,359,356,357,-1,360,358,361,-1,361,358,359,-1,360,361,362,-1,362,361,363,-1,362,363,364,-1,364,363,365,-1,364,365,366,-1,366,365,367,-1,366,367,368,-1,368,367,369,-1,368,369,370,-1,370,369,371,-1,370,371,372,-1,372,371,373,-1,372,373,374,-1,374,373,375,-1,376,377,337,-1,337,377,375,-1,344,342,369,-1,365,350,367,-1,367,350,348,-1,367,348,369,-1,369,348,346,-1,369,346,344,-1,375,373,337,-1,337,373,371,-1,337,371,338,-1,338,371,369,-1,338,369,340,-1,340,369,342,-1,357,355,359,-1,359,355,353,-1,359,353,361,-1,361,353,350,-1,361,350,363,-1,363,350,365,-1,360,351,352,-1,341,343,368,-1,378,379,374,-1,374,379,336,-1,374,336,372,-1,372,336,370,-1,354,356,352,-1,352,356,358,-1,352,358,360,-1,370,336,368,-1,368,336,339,-1,368,339,341,-1,360,362,351,-1,351,362,364,-1,351,364,349,-1,349,364,366,-1,349,366,347,-1,347,366,368,-1,347,368,345,-1,345,368,343,-1,376,337,379,-1,379,337,336,-1,378,374,377,-1,377,374,375,-1,380,381,382,-1,382,381,383,-1,384,385,386,-1,386,385,387,-1,388,385,389,-1,389,385,384,-1,389,384,383,-1,383,384,382,-1,390,381,391,-1,391,381,380,-1,391,380,387,-1,387,380,386,-1,389,383,390,-1,390,383,381,-1,388,389,391,-1,391,389,390,-1,385,388,387,-1,387,388,391,-1,392,393,394,-1,392,394,395,-1,395,394,396,-1,395,396,397,-1,397,396,398,-1,397,398,399,-1,399,398,400,-1,399,400,401,-1,401,400,402,-1,401,402,403,-1,403,402,404,-1,403,404,405,-1,405,404,406,-1,405,406,407,-1,408,407,409,-1,409,407,406,-1,410,408,411,-1,411,408,409,-1,412,410,413,-1,413,410,411,-1,414,412,415,-1,415,412,413,-1,416,414,417,-1,417,414,415,-1,416,417,418,-1,418,417,419,-1,418,419,420,-1,420,419,421,-1,420,421,422,-1,422,421,423,-1,422,423,424,-1,424,423,425,-1,424,425,426,-1,426,425,427,-1,426,427,428,-1,428,427,429,-1,428,429,430,-1,430,429,431,-1,432,433,393,-1,393,433,431,-1,400,398,425,-1,421,406,423,-1,423,406,404,-1,423,404,425,-1,425,404,402,-1,425,402,400,-1,431,429,393,-1,393,429,427,-1,393,427,394,-1,394,427,425,-1,394,425,396,-1,396,425,398,-1,413,411,415,-1,415,411,409,-1,415,409,417,-1,417,409,406,-1,417,406,419,-1,419,406,421,-1,416,407,408,-1,397,399,424,-1,434,435,430,-1,430,435,392,-1,430,392,428,-1,428,392,426,-1,410,412,408,-1,408,412,414,-1,408,414,416,-1,426,392,424,-1,424,392,395,-1,424,395,397,-1,416,418,407,-1,407,418,420,-1,407,420,405,-1,405,420,422,-1,405,422,403,-1,403,422,424,-1,403,424,401,-1,401,424,399,-1,432,393,435,-1,435,393,392,-1,434,430,433,-1,433,430,431,-1,436,437,438,-1,438,437,439,-1,440,441,442,-1,442,441,443,-1,444,441,445,-1,445,441,440,-1,445,440,439,-1,439,440,438,-1,446,437,447,-1,447,437,436,-1,447,436,443,-1,443,436,442,-1,445,439,446,-1,446,439,437,-1,444,445,447,-1,447,445,446,-1,441,444,443,-1,443,444,447,-1,448,449,450,-1,450,449,451,-1,449,452,451,-1,451,452,453,-1,452,454,453,-1,453,454,455,-1,
        ]
    }
}
Shape{
    appearance Appearance {
        material  Material 	{
            diffuseColor 0.14901960784313725 0.14901960784313725 0.14901960784313725
            specularColor 0.07450980392156863 0.07450980392156863 0.07450980392156863
            ambientIntensity 0.149
            transparency 0.0
            shininess 0.5
        }
    }
    geometry IndexedFaceSet {
        ccw TRUE
        solid FALSE
        coord DEF co Coordinate {
            point [
                0.0 -0.8951 0.0394, 0.0505 -0.9184 0.0394, 0.0 -0.8951 0.0, 0.0505 -0.9184 0.0
            ]
        }
        coordIndex [
            0,1,2,-1,2,1,3,-1,
        ]
    }
}
Shape{
    appearance Appearance {
        material  Material 	{
            diffuseColor 0.7529411764705882 0.7529411764705882 0.7529411764705882
            specularColor 0.3764705882352941 0.3764705882352941 0.3764705882352941
            ambientIntensity 0.7529
            transparency 0.0
            shininess 0.5
        }
    }
    geometry IndexedFaceSet {
        ccw TRUE
        solid FALSE
        coord DEF co Coordinate {
            point [
                0.0505 -0.9184 0.0394, 0.0505 -0.9898 0.0394, 0.0505 -0.9184 0.0, 0.0505 -0.9898 0.0, 0.0 -1.0137 0.0394, 0.0 -1.0137 0.0, 0.0 -1.0292 0.0394, 0.0 -1.0292 0.0
            ]
        }
        coordIndex [
            0,1,2,-1,2,1,3,-1,1,4,3,-1,3,4,5,-1,4,6,5,-1,5,6,7,-1,
        ]
    }
}
Shape{
    appearance Appearance {
        material  Material 	{
            diffuseColor 0.14901960784313725 0.14901960784313725 0.14901960784313725
            specularColor 0.07450980392156863 0.07450980392156863 0.07450980392156863
            ambientIntensity 0.149
            transparency 0.0
            shininess 0.5
        }
    }
    geometry IndexedFaceSet {
        ccw TRUE
        solid FALSE
        coord DEF co Coordinate {
            point [
                0.0 -1.0292 0.0394, 0.1575 -0.9545 0.0394, 0.0 -1.0292 0.0, 0.1575 -0.9545 0.0
            ]
        }
        coordIndex [
            0,1,2,-1,2,1,3,-1,
        ]
    }
}
Shape{
    appearance Appearance {
        material  Material 	{
            diffuseColor 0.7529411764705882 0.7529411764705882 0.7529411764705882
            specularColor 0.3764705882352941 0.3764705882352941 0.3764705882352941
            ambientIntensity 0.7529
            transparency 0.0
            shininess 0.5
        }
    }
    geometry IndexedFaceSet {
        ccw TRUE
        solid FALSE
        coord DEF co Coordinate {
            point [
                0.1575 -0.9525 0.0394, 0.1575 -0.9545 0.0394, 0.0666 -0.9821 0.0394, 0.1268 -0.9536 0.0394, 0.0666 -0.9259 0.0394, 0.0 -0.8798 0.0394, 0.0 -1.0292 0.0394, 0.0 -1.0137 0.0394, 0.0505 -0.9898 0.0394, 0.0 -0.8951 0.0394, 0.0505 -0.9184 0.0394
            ]
        }
        coordIndex [
            0,1,2,-1,2,3,0,-1,0,3,4,-1,0,4,5,-1,6,7,8,-1,9,5,10,-1,10,5,4,-1,10,4,8,-1,8,4,2,-1,8,2,6,-1,6,2,1,-1,
        ]
    }
}
Shape{
    appearance Appearance {
        material  Material 	{
            diffuseColor 0.14901960784313725 0.14901960784313725 0.14901960784313725
            specularColor 0.07450980392156863 0.07450980392156863 0.07450980392156863
            ambientIntensity 0.149
            transparency 0.0
            shininess 0.5
        }
    }
    geometry IndexedFaceSet {
        ccw TRUE
        solid FALSE
        coord DEF co Coordinate {
            point [
                0.0666 -0.9259 0.0394, 0.1268 -0.9536 0.0394, 0.0666 -0.9259 0.0, 0.1268 -0.9536 0.0
            ]
        }
        coordIndex [
            0,1,2,-1,2,1,3,-1,
        ]
    }
}
Shape{
    appearance Appearance {
        material  Material 	{
            diffuseColor 0.7529411764705882 0.7529411764705882 0.7529411764705882
            specularColor 0.3764705882352941 0.3764705882352941 0.3764705882352941
            ambientIntensity 0.7529
            transparency 0.0
            shininess 0.5
        }
    }
    geometry IndexedFaceSet {
        ccw TRUE
        solid FALSE
        coord DEF co Coordinate {
            point [
                0.0666 -0.9821 0.0394, 0.0666 -0.9259 0.0394, 0.0666 -0.9821 0.0, 0.0666 -0.9259 0.0, 0.1268 -0.9536 0.0394, 0.1268 -0.9536 0.0, 0.0 -1.1298 0.0394, 0.0 -1.1786 0.0394, 0.0 -1.1298 0.0, 0.0 -1.1786 0.0
            ]
        }
        coordIndex [
            0,1,2,-1,2,1,3,-1,4,0,5,-1,5,0,2,-1,6,7,8,-1,8,7,9,-1,
        ]
    }
}
Shape{
    appearance Appearance {
        material  Material 	{
            diffuseColor 0.14901960784313725 0.14901960784313725 0.14901960784313725
            specularColor 0.07450980392156863 0.07450980392156863 0.07450980392156863
            ambientIntensity 0.149
            transparency 0.0
            shininess 0.5
        }
    }
    geometry IndexedFaceSet {
        ccw TRUE
        solid FALSE
        coord DEF co Coordinate {
            point [
                0.0 -1.1786 0.0394, 0.1575 -1.1786 0.0394, 0.0 -1.1786 0.0, 0.1575 -1.1786 0.0
            ]
        }
        coordIndex [
            0,1,2,-1,2,1,3,-1,
        ]
    }
}
Shape{
    appearance Appearance {
        material  Material 	{
            diffuseColor 0.7529411764705882 0.7529411764705882 0.7529411764705882
            specularColor 0.3764705882352941 0.3764705882352941 0.3764705882352941
            ambientIntensity 0.7529
            transparency 0.0
            shininess 0.5
        }
    }
    geometry IndexedFaceSet {
        ccw TRUE
        solid FALSE
        coord DEF co Coordinate {
            point [
                0.1575 -1.1786 0.0394, 0.1575 -1.1468 0.0394, 0.1575 -1.1786 0.0, 0.1575 -1.1468 0.0
            ]
        }
        coordIndex [
            0,1,2,-1,2,1,3,-1,
        ]
    }
}
Shape{
    appearance Appearance {
        material  Material 	{
            diffuseColor 0.14901960784313725 0.14901960784313725 0.14901960784313725
            specularColor 0.07450980392156863 0.07450980392156863 0.07450980392156863
            ambientIntensity 0.149
            transparency 0.0
            shininess 0.5
        }
    }
    geometry IndexedFaceSet {
        ccw TRUE
        solid FALSE
        coord DEF co Coordinate {
            point [
                0.1518 -1.0968 0.0394, 0.1518 -1.0968 0.0, 0.1565 -1.1216 0.0, 0.1565 -1.1216 0.0394, 0.1575 -1.1468 0.0, 0.1575 -1.1468 0.0394, 0.0768 -1.0494 0.0394, 0.0768 -1.0494 0.0, 0.0834 -1.0496 0.0, 0.0834 -1.0496 0.0394, 0.1026 -1.0526 0.0, 0.1026 -1.0526 0.0394, 0.1192 -1.0591 0.0, 0.1192 -1.0591 0.0394, 0.1336 -1.0692 0.0, 0.1336 -1.0692 0.0394, 0.1438 -1.0809 0.0, 0.1438 -1.0809 0.0394, 0.0 -1.1298 0.0394, 0.0 -1.1298 0.0, 0.0009 -1.1129 0.0, 0.0009 -1.1129 0.0394, 0.0052 -1.093 0.0, 0.0052 -1.093 0.0394, 0.0119 -1.0798 0.0, 0.0119 -1.0798 0.0394, 0.0219 -1.0685 0.0, 0.0219 -1.0685 0.0394, 0.0381 -1.0578 0.0, 0.0381 -1.0578 0.0394, 0.0557 -1.0516 0.0, 0.0557 -1.0516 0.0394
            ]
        }
        coordIndex [
            0,1,2,-1,0,2,3,-1,3,2,4,-1,3,4,5,-1,6,7,8,-1,6,8,9,-1,9,8,10,-1,9,10,11,-1,11,10,12,-1,11,12,13,-1,13,12,14,-1,13,14,15,-1,15,14,16,-1,15,16,17,-1,17,16,1,-1,17,1,0,-1,18,19,20,-1,18,20,21,-1,21,20,22,-1,21,22,23,-1,23,22,24,-1,23,24,25,-1,25,24,26,-1,25,26,27,-1,27,26,28,-1,27,28,29,-1,29,28,30,-1,29,30,31,-1,31,30,7,-1,31,7,6,-1,
        ]
    }
}
Shape{
    appearance Appearance {
        material  Material 	{
            diffuseColor 0.7529411764705882 0.7529411764705882 0.7529411764705882
            specularColor 0.3764705882352941 0.3764705882352941 0.3764705882352941
            ambientIntensity 0.7529
            transparency 0.0
            shininess 0.5
        }
    }
    geometry IndexedFaceSet {
        ccw TRUE
        solid FALSE
        coord DEF co Coordinate {
            point [
                0.1406 -1.129 0.0394, 0.1369 -1.105 0.0394, 0.1518 -1.0968 0.0394, 0.1343 -1.0979 0.0394, 0.1438 -1.0809 0.0394, 0.1275 -1.0862 0.0394, 0.1336 -1.0692 0.0394, 0.1186 -1.077 0.0394, 0.1192 -1.0591 0.0394, 0.107 -1.0698 0.0394, 0.1026 -1.0526 0.0394, 0.0935 -1.0652 0.0394, 0.0834 -1.0496 0.0394, 0.0768 -1.0635 0.0394, 0.0768 -1.0494 0.0394, 0.0728 -1.0636 0.0394, 0.0557 -1.0516 0.0394, 0.0562 -1.0663 0.0394, 0.0381 -1.0578 0.0394, 0.0441 -1.0715 0.0394, 0.0219 -1.0685 0.0394, 0.0336 -1.0794 0.0394, 0.0119 -1.0798 0.0394, 0.026 -1.0887 0.0394, 0.0052 -1.093 0.0394, 0.0202 -1.1014 0.0394, 0.0009 -1.1129 0.0394, 0.0168 -1.1237 0.0394, 0.0 -1.1298 0.0394, 0.0162 -1.1464 0.0394, 0.0 -1.1786 0.0394, 0.0162 -1.1644 0.0394, 0.1575 -1.1786 0.0394, 0.1413 -1.1644 0.0394, 0.1575 -1.1468 0.0394, 0.1413 -1.1534 0.0394, 0.1565 -1.1216 0.0394, 0.1413 -1.1644 0.0, 0.0162 -1.1644 0.0, 0.1413 -1.1534 0.0
            ]
        }
        coordIndex [
            0,1,2,-1,2,1,3,-1,2,3,4,-1,4,3,5,-1,4,5,6,-1,6,5,7,-1,6,7,8,-1,8,7,9,-1,8,9,10,-1,10,9,11,-1,10,11,12,-1,12,11,13,-1,12,13,14,-1,14,13,15,-1,14,15,16,-1,16,15,17,-1,16,17,18,-1,18,17,19,-1,18,19,20,-1,20,19,21,-1,20,21,22,-1,22,21,23,-1,22,23,24,-1,24,23,25,-1,24,25,26,-1,26,25,27,-1,26,27,28,-1,28,27,29,-1,28,29,30,-1,30,29,31,-1,30,31,32,-1,32,31,33,-1,32,33,34,-1,34,33,35,-1,34,35,36,-1,36,35,0,-1,36,0,2,-1,33,31,37,-1,37,31,38,-1,35,33,39,-1,39,33,37,-1,
        ]
    }
}
Shape{
    appearance Appearance {
        material  Material 	{
            diffuseColor 0.14901960784313725 0.14901960784313725 0.14901960784313725
            specularColor 0.07450980392156863 0.07450980392156863 0.07450980392156863
            ambientIntensity 0.149
            transparency 0.0
            shininess 0.5
        }
    }
    geometry IndexedFaceSet {
        ccw TRUE
        solid FALSE
        coord DEF co Coordinate {
            point [
                0.1413 -1.1534 0.0394, 0.1413 -1.1534 0.0, 0.1406 -1.129 0.0, 0.1406 -1.129 0.0394, 0.1369 -1.105 0.0, 0.1369 -1.105 0.0394, 0.1343 -1.0979 0.0, 0.1343 -1.0979 0.0394, 0.1275 -1.0862 0.0, 0.1275 -1.0862 0.0394, 0.1186 -1.077 0.0, 0.1186 -1.077 0.0394, 0.107 -1.0698 0.0, 0.107 -1.0698 0.0394, 0.0935 -1.0652 0.0, 0.0935 -1.0652 0.0394, 0.0768 -1.0635 0.0, 0.0768 -1.0635 0.0394, 0.0728 -1.0636 0.0, 0.0728 -1.0636 0.0394, 0.0562 -1.0663 0.0, 0.0562 -1.0663 0.0394, 0.0441 -1.0715 0.0, 0.0441 -1.0715 0.0394, 0.0336 -1.0794 0.0, 0.0336 -1.0794 0.0394, 0.026 -1.0887 0.0, 0.026 -1.0887 0.0394, 0.0202 -1.1014 0.0, 0.0202 -1.1014 0.0394, 0.0168 -1.1237 0.0, 0.0168 -1.1237 0.0394, 0.0162 -1.1464 0.0, 0.0162 -1.1464 0.0394
            ]
        }
        coordIndex [
            0,1,2,-1,0,2,3,-1,3,2,4,-1,3,4,5,-1,5,4,6,-1,5,6,7,-1,7,6,8,-1,7,8,9,-1,9,8,10,-1,9,10,11,-1,11,10,12,-1,11,12,13,-1,13,12,14,-1,13,14,15,-1,15,14,16,-1,15,16,17,-1,17,16,18,-1,17,18,19,-1,19,18,20,-1,19,20,21,-1,21,20,22,-1,21,22,23,-1,23,22,24,-1,23,24,25,-1,25,24,26,-1,25,26,27,-1,27,26,28,-1,27,28,29,-1,29,28,30,-1,29,30,31,-1,31,30,32,-1,31,32,33,-1,
        ]
    }
}
Shape{
    appearance Appearance {
        material  Material 	{
            diffuseColor 0.7529411764705882 0.7529411764705882 0.7529411764705882
            specularColor 0.3764705882352941 0.3764705882352941 0.3764705882352941
            ambientIntensity 0.7529
            transparency 0.0
            shininess 0.5
        }
    }
    geometry IndexedFaceSet {
        ccw TRUE
        solid FALSE
        coord DEF co Coordinate {
            point [
                0.0162 -1.1644 0.0394, 0.0162 -1.1464 0.0394, 0.0162 -1.1644 0.0, 0.0162 -1.1464 0.0
            ]
        }
        coordIndex [
            0,1,2,-1,2,1,3,-1,
        ]
    }
}
Shape{
    appearance Appearance {
        material  Material 	{
            diffuseColor 0.14901960784313725 0.14901960784313725 0.14901960784313725
            specularColor 0.07450980392156863 0.07450980392156863 0.07450980392156863
            ambientIntensity 0.149
            transparency 0.0
            shininess 0.5
        }
    }
    geometry IndexedFaceSet {
        ccw TRUE
        solid FALSE
        coord DEF co Coordinate {
            point [
                0.0 -1.2957 0.0394, 0.1575 -1.2957 0.0394, 0.0 -1.2957 0.0, 0.1575 -1.2957 0.0
            ]
        }
        coordIndex [
            0,1,2,-1,2,1,3,-1,
        ]
    }
}
Shape{
    appearance Appearance {
        material  Material 	{
            diffuseColor 0.7529411764705882 0.7529411764705882 0.7529411764705882
            specularColor 0.3764705882352941 0.3764705882352941 0.3764705882352941
            ambientIntensity 0.7529
            transparency 0.0
            shininess 0.5
        }
    }
    geometry IndexedFaceSet {
        ccw TRUE
        solid FALSE
        coord DEF co Coordinate {
            point [
                0.1575 -1.2957 0.0394, 0.1575 -1.2068 0.0394, 0.1575 -1.2957 0.0, 0.1575 -1.2068 0.0, 0.1413 -1.2068 0.0394, 0.1413 -1.2068 0.0, 0.1413 -1.2815 0.0394, 0.1413 -1.2815 0.0, 0.0929 -1.2815 0.0394, 0.0929 -1.2815 0.0, 0.0929 -1.2068 0.0394, 0.0929 -1.2068 0.0, 0.0767 -1.2068 0.0394, 0.0767 -1.2068 0.0, 0.0767 -1.2815 0.0394, 0.0767 -1.2815 0.0, 0.0162 -1.2815 0.0394, 0.0162 -1.2815 0.0, 0.0162 -1.2068 0.0394, 0.0162 -1.2068 0.0, 0.0 -1.2068 0.0394, 0.0 -1.2068 0.0, 0.0 -1.2957 0.0394, 0.0 -1.2957 0.0
            ]
        }
        coordIndex [
            0,1,2,-1,2,1,3,-1,1,4,3,-1,3,4,5,-1,4,6,5,-1,5,6,7,-1,6,8,7,-1,7,8,9,-1,8,10,9,-1,9,10,11,-1,10,12,11,-1,11,12,13,-1,12,14,13,-1,13,14,15,-1,14,16,15,-1,15,16,17,-1,16,18,17,-1,17,18,19,-1,18,20,19,-1,19,20,21,-1,20,22,21,-1,21,22,23,-1,22,20,18,-1,18,16,22,-1,22,16,14,-1,22,14,0,-1,4,1,6,-1,6,1,0,-1,6,0,8,-1,8,0,14,-1,8,14,10,-1,10,14,12,-1,
        ]
    }
}
Shape{
    appearance Appearance {
        material  Material 	{
            diffuseColor 0.14901960784313725 0.14901960784313725 0.14901960784313725
            specularColor 0.07450980392156863 0.07450980392156863 0.07450980392156863
            ambientIntensity 0.149
            transparency 0.0
            shininess 0.5
        }
    }
    geometry IndexedFaceSet {
        ccw TRUE
        solid FALSE
        coord DEF co Coordinate {
            point [
                0.1615 -1.3967 0.0, 0.1615 -1.3967 0.0394, 0.1595 -1.3795 0.0, 0.1588 -1.3733 0.0394, 0.1588 -1.3733 0.0, 0.1546 -1.3607 0.0394, 0.1546 -1.3607 0.0, 0.1444 -1.3433 0.0394, 0.1444 -1.3433 0.0, 0.1314 -1.3301 0.0394, 0.1314 -1.3301 0.0, 0.1286 -1.328 0.0394, 0.1286 -1.328 0.0, 0.1191 -1.3404 0.0394, 0.1191 -1.3404 0.0, 0.1454 -1.3976 0.0394, 0.1454 -1.3976 0.0, 0.1451 -1.3912 0.0, 0.1451 -1.3912 0.0394, 0.1424 -1.3756 0.0, 0.1424 -1.3756 0.0394, 0.1396 -1.3675 0.0, 0.1396 -1.3675 0.0394, 0.1316 -1.3534 0.0, 0.1316 -1.3534 0.0394, 0.0786 -1.4673 0.0394, 0.0786 -1.4673 0.0, 0.0862 -1.4669 0.0, 0.0862 -1.4669 0.0394, 0.1013 -1.4635 0.0, 0.1013 -1.4635 0.0394, 0.1153 -1.4565 0.0, 0.1153 -1.4565 0.0394, 0.1267 -1.4468 0.0, 0.1267 -1.4468 0.0394, 0.1368 -1.4323 0.0, 0.1368 -1.4323 0.0394, 0.1431 -1.4162 0.0, 0.1431 -1.4162 0.0394, 0.0121 -1.3966 0.0394, 0.0121 -1.3966 0.0, 0.013 -1.409 0.0, 0.013 -1.409 0.0394, 0.0171 -1.425 0.0, 0.0171 -1.425 0.0394, 0.0253 -1.4403 0.0, 0.0253 -1.4403 0.0394, 0.0359 -1.4518 0.0, 0.0359 -1.4518 0.0394, 0.0481 -1.4602 0.0, 0.0481 -1.4602 0.0394, 0.0612 -1.4652 0.0, 0.0612 -1.4652 0.0394, 0.0384 -1.3404 0.0394, 0.0384 -1.3404 0.0, 0.0296 -1.3491 0.0, 0.0296 -1.3491 0.0394, 0.02 -1.363 0.0, 0.02 -1.363 0.0394, 0.0143 -1.3782 0.0, 0.0143 -1.3782 0.0394, 0.029 -1.328 0.0394, 0.029 -1.328 0.0, -0.004 -1.3965 0.0394, -0.004 -1.3965 0.0, -0.004 -1.3941 0.0, -0.004 -1.3941 0.0394, -0.0015 -1.3743 0.0, -0.0015 -1.3743 0.0394, 0.0039 -1.3588 0.0, 0.0039 -1.3588 0.0394, 0.0144 -1.3419 0.0, 0.0144 -1.3419 0.0394, 0.0235 -1.4615 0.0394, 0.0235 -1.4615 0.0, 0.0169 -1.4551 0.0, 0.0169 -1.4551 0.0394, 0.006 -1.4399 0.0, 0.006 -1.4399 0.0394, -0.0012 -1.4211 0.0, -0.0012 -1.4211 0.0394, 0.0797 -1.4814 0.0394, 0.0797 -1.4814 0.0, 0.0589 -1.4792 0.0, 0.0589 -1.4792 0.0394, 0.0407 -1.4729 0.0, 0.0407 -1.4729 0.0394, 0.1608 -1.4093 0.0, 0.1608 -1.4093 0.0394, 0.1595 -1.4146 0.0, 0.1562 -1.4285 0.0394, 0.1562 -1.4285 0.0, 0.1477 -1.4452 0.0, 0.1477 -1.4452 0.0394, 0.1334 -1.4616 0.0, 0.1334 -1.4616 0.0394, 0.1179 -1.4724 0.0, 0.1179 -1.4724 0.0394, 0.1012 -1.4788 0.0, 0.1012 -1.4788 0.0394
            ]
        }
        coordIndex [
            0,1,2,-1,2,1,3,-1,2,3,4,-1,4,3,5,-1,4,5,6,-1,6,5,7,-1,6,7,8,-1,8,7,9,-1,8,9,10,-1,10,9,11,-1,10,11,12,-1,11,13,12,-1,12,13,14,-1,15,16,17,-1,15,17,18,-1,18,17,19,-1,18,19,20,-1,20,19,21,-1,20,21,22,-1,22,21,23,-1,22,23,24,-1,24,23,14,-1,24,14,13,-1,25,26,27,-1,25,27,28,-1,28,27,29,-1,28,29,30,-1,30,29,31,-1,30,31,32,-1,32,31,33,-1,32,33,34,-1,34,33,35,-1,34,35,36,-1,36,35,37,-1,36,37,38,-1,38,37,16,-1,38,16,15,-1,39,40,41,-1,39,41,42,-1,42,41,43,-1,42,43,44,-1,44,43,45,-1,44,45,46,-1,46,45,47,-1,46,47,48,-1,48,47,49,-1,48,49,50,-1,50,49,51,-1,50,51,52,-1,52,51,26,-1,52,26,25,-1,53,54,55,-1,53,55,56,-1,56,55,57,-1,56,57,58,-1,58,57,59,-1,58,59,60,-1,60,59,40,-1,60,40,39,-1,53,61,54,-1,54,61,62,-1,63,64,65,-1,63,65,66,-1,66,65,67,-1,66,67,68,-1,68,67,69,-1,68,69,70,-1,70,69,71,-1,70,71,72,-1,72,71,62,-1,72,62,61,-1,73,74,75,-1,73,75,76,-1,76,75,77,-1,76,77,78,-1,78,77,79,-1,78,79,80,-1,80,79,64,-1,80,64,63,-1,81,82,83,-1,81,83,84,-1,84,83,85,-1,84,85,86,-1,86,85,74,-1,86,74,73,-1,1,0,87,-1,1,87,88,-1,88,87,89,-1,88,89,90,-1,89,91,90,-1,90,91,92,-1,90,92,93,-1,93,92,94,-1,93,94,95,-1,95,94,96,-1,95,96,97,-1,97,96,98,-1,97,98,99,-1,99,98,82,-1,99,82,81,-1,
        ]
    }
}
Shape{
    appearance Appearance {
        material  Material 	{
            diffuseColor 0.7529411764705882 0.7529411764705882 0.7529411764705882
            specularColor 0.3764705882352941 0.3764705882352941 0.3764705882352941
            ambientIntensity 0.7529
            transparency 0.0
            shininess 0.5
        }
    }
    geometry IndexedFaceSet {
        ccw TRUE
        solid FALSE
        coord DEF co Coordinate {
            point [
                0.1191 -1.3404 0.0394, 0.1286 -1.328 0.0394, 0.1314 -1.3301 0.0394, 0.029 -1.328 0.0394, 0.0384 -1.3404 0.0394, 0.0144 -1.3419 0.0394, 0.0296 -1.3491 0.0394, 0.0039 -1.3588 0.0394, 0.02 -1.363 0.0394, -0.0015 -1.3743 0.0394, 0.0143 -1.3782 0.0394, -0.004 -1.3941 0.0394, 0.0121 -1.3966 0.0394, 0.1316 -1.3534 0.0394, 0.1444 -1.3433 0.0394, 0.1396 -1.3675 0.0394, 0.1546 -1.3607 0.0394, 0.1424 -1.3756 0.0394, 0.1588 -1.3733 0.0394, 0.1451 -1.3912 0.0394, 0.1615 -1.3967 0.0394, 0.1454 -1.3976 0.0394, 0.1608 -1.4093 0.0394, 0.1431 -1.4162 0.0394, 0.1562 -1.4285 0.0394, 0.1368 -1.4323 0.0394, 0.1477 -1.4452 0.0394, 0.1267 -1.4468 0.0394, 0.1334 -1.4616 0.0394, 0.1153 -1.4565 0.0394, 0.1179 -1.4724 0.0394, 0.1013 -1.4635 0.0394, 0.1012 -1.4788 0.0394, 0.0862 -1.4669 0.0394, 0.0797 -1.4814 0.0394, 0.0786 -1.4673 0.0394, 0.0612 -1.4652 0.0394, 0.0589 -1.4792 0.0394, 0.0481 -1.4602 0.0394, 0.0407 -1.4729 0.0394, 0.0359 -1.4518 0.0394, 0.0235 -1.4615 0.0394, 0.0253 -1.4403 0.0394, 0.0169 -1.4551 0.0394, 0.0171 -1.425 0.0394, 0.006 -1.4399 0.0394, 0.013 -1.409 0.0394, -0.0012 -1.4211 0.0394, -0.004 -1.3965 0.0394
            ]
        }
        coordIndex [
            0,1,2,-1,3,4,5,-1,5,4,6,-1,5,6,7,-1,7,6,8,-1,7,8,9,-1,9,8,10,-1,9,10,11,-1,11,10,12,-1,0,2,13,-1,13,2,14,-1,13,14,15,-1,15,14,16,-1,15,16,17,-1,17,16,18,-1,17,18,19,-1,19,18,20,-1,19,20,21,-1,21,20,22,-1,21,22,23,-1,23,22,24,-1,23,24,25,-1,25,24,26,-1,25,26,27,-1,27,26,28,-1,27,28,29,-1,29,28,30,-1,29,30,31,-1,31,30,32,-1,31,32,33,-1,33,32,34,-1,33,34,35,-1,35,34,36,-1,36,34,37,-1,36,37,38,-1,38,37,39,-1,38,39,40,-1,40,39,41,-1,40,41,42,-1,42,41,43,-1,42,43,44,-1,44,43,45,-1,44,45,46,-1,46,45,47,-1,46,47,12,-1,12,47,48,-1,12,48,11,-1,
        ]
    }
}
Shape{
    appearance Appearance {
        material  Material 	{
            diffuseColor 0.14901960784313725 0.14901960784313725 0.14901960784313725
            specularColor 0.07450980392156863 0.07450980392156863 0.07450980392156863
            ambientIntensity 0.149
            transparency 0.0
            shininess 0.5
        }
    }
    geometry IndexedFaceSet {
        ccw TRUE
        solid FALSE
        coord DEF co Coordinate {
            point [
                0.0 -1.5743 0.0394, 0.1575 -1.5743 0.0394, 0.0 -1.5743 0.0, 0.1575 -1.5743 0.0
            ]
        }
        coordIndex [
            0,1,2,-1,2,1,3,-1,
        ]
    }
}
Shape{
    appearance Appearance {
        material  Material 	{
            diffuseColor 0.7529411764705882 0.7529411764705882 0.7529411764705882
            specularColor 0.3764705882352941 0.3764705882352941 0.3764705882352941
            ambientIntensity 0.7529
            transparency 0.0
            shininess 0.5
        }
    }
    geometry IndexedFaceSet {
        ccw TRUE
        solid FALSE
        coord DEF co Coordinate {
            point [
                0.1575 -1.5743 0.0394, 0.1575 -1.5602 0.0394, 0.1575 -1.5743 0.0, 0.1575 -1.5602 0.0, 0.0162 -1.5602 0.0394, 0.0162 -1.5602 0.0, 0.0162 -1.4996 0.0394, 0.0162 -1.4996 0.0, 0.0 -1.4996 0.0394, 0.0 -1.4996 0.0, 0.0 -1.5743 0.0394, 0.0 -1.5743 0.0
            ]
        }
        coordIndex [
            0,1,2,-1,2,1,3,-1,1,4,3,-1,3,4,5,-1,4,6,5,-1,5,6,7,-1,6,8,7,-1,7,8,9,-1,8,10,9,-1,9,10,11,-1,1,0,4,-1,4,0,10,-1,4,10,6,-1,6,10,8,-1,
        ]
    }
}
Shape{
    appearance Appearance {
        material  Material 	{
            diffuseColor 0.14901960784313725 0.14901960784313725 0.14901960784313725
            specularColor 0.07450980392156863 0.07450980392156863 0.07450980392156863
            ambientIntensity 0.149
            transparency 0.0
            shininess 0.5
        }
    }
    geometry IndexedFaceSet {
        ccw TRUE
        solid FALSE
        coord DEF co Coordinate {
            point [
                0.0666 -0.9259 0.0, 0.1268 -0.9536 0.0, 0.0666 -0.9821 0.0, 0.1413 -1.1644 0.0, 0.0162 -1.1644 0.0, 0.1413 -1.1534 0.0, 0.0162 -1.1464 0.0, 0.1406 -1.129 0.0, 0.0168 -1.1237 0.0, 0.1369 -1.105 0.0, 0.0441 -1.0715 0.0, 0.0562 -1.0663 0.0, 0.0728 -1.0636 0.0, 0.0768 -1.0635 0.0, 0.0202 -1.1014 0.0, 0.026 -1.0887 0.0, 0.0336 -1.0794 0.0, 0.0935 -1.0652 0.0, 0.107 -1.0698 0.0, 0.1186 -1.077 0.0, 0.1275 -1.0862 0.0, 0.1343 -1.0979 0.0
            ]
        }
        coordIndex [
            0,1,2,-1,3,4,5,-1,5,4,6,-1,5,6,7,-1,7,6,8,-1,7,8,9,-1,10,11,8,-1,8,11,12,-1,8,12,13,-1,14,15,8,-1,8,15,16,-1,8,16,10,-1,13,17,8,-1,8,17,18,-1,8,18,19,-1,19,20,8,-1,8,20,21,-1,8,21,9,-1,
        ]
    }
}