#VRML V2.0 utf8
# 3D model generated by easyeda2kicad.py (https://github.com/uPesy/easyeda2kicad.py)

Shape{
    appearance Appearance {
        material  Material 	{
            diffuseColor 0.20784313725490197 0.20784313725490197 0.20784313725490197
            specularColor 0.01568627450980392 0.01568627450980392 0.01568627450980392
            ambientIntensity 0.298
            transparency 0.0
            shininess 0.5
        }
    }
    geometry IndexedFaceSet {
        ccw TRUE
        solid FALSE
        coord DEF co Coordinate {
            point [
                0.3567 -0.2908 0.3346, 0.3696 -0.2908 0.3346, 0.3696 0.1485 0.3346, 0.2634 0.1615 0.3346, 0.2634 0.1893 0.3346, 0.2612 0.1893 0.3346, 0.0648 0.1881 0.3346, 0.0688 0.1845 0.3346, 0.0781 0.1893 0.3346, 0.0036 0.2085 0.3346, 0.0053 0.2122 0.3346, -0.1357 0.2122 0.3346, 0.229 0.1613 0.3346, 0.2282 0.1612 0.3346, 0.236 0.1612 0.3346, 0.2988 0.2125 0.3346, 0.2956 0.2213 0.3346, 0.2838 0.2213 0.3346, 0.2912 0.2447 0.3346, 0.3034 0.2125 0.3346, 0.3139 0.2122 0.3346, 0.2838 0.2122 0.3346, 0.2822 0.2213 0.3346, 0.2791 0.2125 0.3346, 0.2736 0.2122 0.3346, 0.2745 0.2125 0.3346, 0.2736 0.245 0.3346, 0.2838 0.2369 0.3346, 0.2838 0.245 0.3346, 0.1785 0.1796 0.3346, 0.19 0.1796 0.3346, 0.1914 0.1893 0.3346, 0.1785 0.176 0.3346, 0.1785 0.1651 0.3346, 0.19 0.176 0.3346, 0.1914 0.1651 0.3346, 0.1909 0.1936 0.3346, 0.1909 0.1899 0.3346, 0.1785 0.1893 0.3346, 0.1785 0.1899 0.3346, 0.1743 0.1936 0.3346, 0.1611 0.2122 0.3346, 0.1743 0.1893 0.3346, 0.1611 0.1893 0.3346, 0.1743 0.1615 0.3346, 0.1611 0.1612 0.3346, 0.1914 0.1612 0.3346, 0.1921 0.1893 0.3346, 0.1916 0.1651 0.3346, 0.1921 0.1612 0.3346, 0.1916 0.1615 0.3346, 0.1914 0.1615 0.3346, 0.3194 0.1615 0.3346, 0.3148 0.1615 0.3346, 0.3139 0.1612 0.3346, 0.3139 0.1893 0.3346, 0.3254 0.1893 0.3346, 0.327 0.1936 0.3346, 0.3567 0.2122 0.3346, 0.3315 0.1936 0.3346, 0.3567 0.1893 0.3346, 0.3331 0.1893 0.3346, 0.3567 0.1612 0.3346, 0.3437 0.1615 0.3346, 0.3391 0.1615 0.3346, 0.3358 0.1703 0.3346, 0.3225 0.1703 0.3346, 0.2153 0.2401 0.3346, 0.2007 0.2184 0.3346, 0.2028 0.217 0.3346, 0.2131 0.241 0.3346, 0.1999 0.2374 0.3346, 0.1984 0.2352 0.3346, 0.1974 0.2323 0.3346, 0.2091 0.2415 0.3346, 0.2079 0.2414 0.3346, 0.2003 0.2379 0.3346, 0.2051 0.2409 0.3346, 0.2025 0.2397 0.3346, 0.197 0.2282 0.3346, 0.197 0.227 0.3346, 0.1975 0.2238 0.3346, 0.2051 0.2161 0.3346, 0.2084 0.2157 0.3346, 0.2099 0.2157 0.3346, 0.1985 0.2212 0.3346, 0.2001 0.2191 0.3346, 0.2153 0.245 0.3346, 0.2153 0.2443 0.3346, 0.218 0.245 0.3346, 0.2167 0.2439 0.3346, 0.2135 0.2164 0.3346, 0.2153 0.2172 0.3346, 0.2163 0.2398 0.3346, 0.2167 0.2178 0.3346, 0.2167 0.2396 0.3346, 0.218 0.2122 0.3346, 0.2091 0.2452 0.3346, 0.2153 0.2908 0.3346, 0.2069 0.245 0.3346, 0.1921 0.2908 0.3346, 0.2092 0.2452 0.3346, 0.2125 0.245 0.3346, 0.2134 0.2449 0.3346, 0.205 0.2122 0.3346, 0.2024 0.2128 0.3346, 0.1921 0.2122 0.3346, 0.1993 0.2142 0.3346, 0.1967 0.2164 0.3346, 0.1921 0.245 0.3346, 0.1949 0.2374 0.3346, 0.1972 0.2405 0.3346, 0.1962 0.2169 0.3346, 0.1944 0.2197 0.3346, 0.1931 0.2232 0.3346, 0.198 0.2412 0.3346, 0.201 0.2433 0.3346, 0.2044 0.2446 0.3346, 0.1926 0.228 0.3346, 0.1926 0.2297 0.3346, 0.1934 0.2339 0.3346, 0.2058 0.2121 0.3346, 0.2078 0.212 0.3346, 0.2153 0.1893 0.3346, 0.2106 0.2122 0.3346, 0.2167 0.2138 0.3346, 0.2161 0.2136 0.3346, 0.2153 0.2122 0.3346, 0.2153 0.2133 0.3346, 0.2127 0.2124 0.3346, 0.2459 0.1612 0.3346, 0.246 0.1615 0.3346, 0.236 0.1893 0.3346, 0.2415 0.1844 0.3346, 0.237 0.1844 0.3346, 0.2475 0.1672 0.3346, 0.248 0.1653 0.3346, 0.2481 0.1653 0.3346, 0.2483 0.1661 0.3346, 0.2486 0.1671 0.3346, 0.2549 0.1844 0.3346, 0.239 0.1507 0.3346, 0.2378 0.151 0.3346, 0.236 0.1485 0.3346, 0.2378 0.1546 0.3346, 0.2427 0.155 0.3346, 0.2434 0.1559 0.3346, 0.2443 0.1573 0.3346, 0.2499 0.1612 0.3346, 0.2486 0.158 0.3346, 0.2612 0.1485 0.3346, 0.2469 0.1546 0.3346, 0.2455 0.1528 0.3346, 0.245 0.1524 0.3346, 0.2436 0.1514 0.3346, 0.242 0.1508 0.3346, 0.2404 0.1506 0.3346, 0.2387 0.1543 0.3346, 0.2401 0.1541 0.3346, 0.2412 0.1542 0.3346, 0.2421 0.1546 0.3346, 0.3121 0.1722 0.3346, 0.3105 0.1688 0.3346, 0.3112 0.1855 0.3346, 0.3092 0.1883 0.3346, 0.3082 0.1893 0.3346, 0.3081 0.166 0.3346, 0.3076 0.1655 0.3346, 0.3044 0.1634 0.3346, 0.3007 0.162 0.3346, 0.2956 0.1615 0.3346, 0.2838 0.1612 0.3346, 0.3124 0.1825 0.3346, 0.313 0.178 0.3346, 0.3129 0.1759 0.3346, 0.3081 0.1894 0.3346, 0.3048 0.1917 0.3346, 0.2868 0.1615 0.3346, 0.2868 0.1893 0.3346, 0.2838 0.1893 0.3346, 0.2868 0.1936 0.3346, 0.296 0.1936 0.3346, 0.3009 0.1931 0.3346, 0.2338 0.18 0.3346, 0.2338 0.184 0.3346, 0.2347 0.1661 0.3346, 0.2342 0.1648 0.3346, 0.2335 0.1638 0.3346, 0.223 0.1837 0.3346, 0.2213 0.1893 0.3346, 0.222 0.1831 0.3346, 0.2213 0.1825 0.3346, 0.2251 0.1846 0.3346, 0.2284 0.185 0.3346, 0.2312 0.1847 0.3346, 0.2336 0.1715 0.3346, 0.2343 0.1704 0.3346, 0.2347 0.1693 0.3346, 0.2349 0.1677 0.3346, 0.2323 0.1628 0.3346, 0.2312 0.1621 0.3346, 0.228 0.1817 0.3346, 0.2268 0.1816 0.3346, 0.2236 0.1786 0.3346, 0.2257 0.1813 0.3346, 0.2248 0.1808 0.3346, 0.2236 0.1781 0.3346, 0.2238 0.1774 0.3346, 0.2241 0.1769 0.3346, 0.2245 0.1765 0.3346, 0.2259 0.1756 0.3346, 0.2308 0.1814 0.3346, 0.2284 0.1745 0.3346, 0.2331 0.1805 0.3346, 0.2299 0.1739 0.3346, 0.2326 0.1724 0.3346, 0.2242 0.1803 0.3346, 0.2238 0.1798 0.3346, 0.2236 0.1793 0.3346, 0.2208 0.1821 0.3346, 0.218 0.1893 0.3346, 0.2201 0.181 0.3346, 0.2208 0.1655 0.3346, 0.2213 0.1654 0.3346, 0.2213 0.1739 0.3346, 0.2206 0.1746 0.3346, 0.22 0.1754 0.3346, 0.2194 0.1664 0.3346, 0.2196 0.1767 0.3346, 0.2194 0.1782 0.3346, 0.2196 0.1797 0.3346, 0.2212 0.1739 0.3346, 0.2234 0.1645 0.3346, 0.2255 0.1716 0.3346, 0.2231 0.1727 0.3346, 0.226 0.1642 0.3346, 0.2262 0.1642 0.3346, 0.2282 0.1705 0.3346, 0.2283 0.1644 0.3346, 0.2308 0.1673 0.3346, 0.2307 0.1678 0.3346, 0.2293 0.1648 0.3346, 0.2297 0.1651 0.3346, 0.2301 0.1655 0.3346, 0.2305 0.166 0.3346, 0.2307 0.1666 0.3346, 0.2306 0.1685 0.3346, 0.2302 0.169 0.3346, 0.2297 0.1695 0.3346, 0.2194 0.1623 0.3346, 0.218 0.1612 0.3346, 0.2213 0.1616 0.3346, 0.2213 0.1612 0.3346, 0.2222 0.1613 0.3346, 0.223 0.1612 0.3346, 0.2256 0.1609 0.3346, 0.2213 0.1485 0.3346, 0.2139 0.1763 0.3346, 0.2139 0.1615 0.3346, 0.2153 0.1612 0.3346, 0.2099 0.1615 0.3346, 0.1977 0.1789 0.3346, 0.1977 0.1828 0.3346, 0.1985 0.1833 0.3346, 0.2097 0.1843 0.3346, 0.2111 0.1835 0.3346, 0.2005 0.1612 0.3346, 0.2002 0.1613 0.3346, 0.2099 0.165 0.3346, 0.2098 0.165 0.3346, 0.2089 0.1637 0.3346, 0.2075 0.1624 0.3346, 0.1987 0.1619 0.3346, 0.1974 0.1627 0.3346, 0.1968 0.1634 0.3346, 0.1961 0.1645 0.3346, 0.1956 0.1659 0.3346, 0.1955 0.1676 0.3346, 0.1971 0.1724 0.3346, 0.1983 0.1735 0.3346, 0.2 0.1744 0.3346, 0.2005 0.1807 0.3346, 0.2031 0.1751 0.3346, 0.203 0.1815 0.3346, 0.1955 0.1681 0.3346, 0.1957 0.1698 0.3346, 0.1963 0.1713 0.3346, 0.2015 0.1845 0.3346, 0.2056 0.185 0.3346, 0.208 0.1848 0.3346, 0.2121 0.1825 0.3346, 0.213 0.1812 0.3346, 0.2136 0.1794 0.3346, 0.2099 0.1761 0.3346, 0.2098 0.1777 0.3346, 0.2094 0.1792 0.3346, 0.2089 0.18 0.3346, 0.2083 0.1807 0.3346, 0.2076 0.1812 0.3346, 0.2067 0.1815 0.3346, 0.2052 0.1817 0.3346, 0.202 0.1609 0.3346, 0.1921 0.1485 0.3346, 0.2028 0.1609 0.3346, 0.2153 0.1485 0.3346, 0.205 0.1612 0.3346, 0.141 0.2122 0.3346, 0.1401 0.2136 0.3346, 0.1611 0.245 0.3346, 0.1341 0.219 0.3346, 0.1028 0.2483 0.3346, 0.1077 0.245 0.3346, 0.113 0.2414 0.3346, 0.1205 0.2328 0.3346, 0.1253 0.2233 0.3346, 0.1274 0.2226 0.3346, 0.0819 0.2533 0.3346, 0.0913 0.2523 0.3346, 0.1611 0.2908 0.3346, 0.0705 0.2519 0.3346, -0.1357 0.2908 0.3346, 0.06 0.2478 0.3346, 0.0553 0.245 0.3346, -0.1357 0.245 0.3346, 0.0544 0.2444 0.3346, 0.0072 0.2167 0.3346, 0.0128 0.2238 0.3346, 0.03 0.2337 0.3346, 0.0391 0.2348 0.3346, 0.049 0.2398 0.3346, 0.0417 0.2346 0.3346, 0.0443 0.2343 0.3346, 0.0143 0.2252 0.3346, 0.0216 0.2304 0.3346, -0.1357 0.1893 0.3346, 0.002 0.1977 0.3346, 0.0021 0.1999 0.3346, 0.0187 0.1667 0.3346, 0.0116 0.1728 0.3346, -0.1357 0.1612 0.3346, 0.027 0.1627 0.3346, 0.0064 0.1802 0.3346, 0.0031 0.1887 0.3346, 0.0031 0.1893 0.3346, 0.0299 0.1618 0.3346, 0.0302 0.1612 0.3346, 0.0322 0.1569 0.3346, -0.1357 0.1485 0.3346, 0.0356 0.1527 0.3346, 0.0401 0.1493 0.3346, -0.1357 -0.2908 0.3346, 0.0454 0.1471 0.3346, 0.0422 0.1485 0.3346, 0.0611 0.1485 0.3346, 0.0572 0.1469 0.3346, 0.1611 -0.2908 0.3346, 0.0517 0.1463 0.3346, 0.0508 0.1463 0.3346, 0.0731 0.1612 0.3346, 0.0731 0.1612 0.3346, 0.1611 0.1485 0.3346, 0.0704 0.1561 0.3346, 0.0668 0.1521 0.3346, 0.0623 0.1489 0.3346, 0.1253 0.1626 0.3346, 0.1187 0.1614 0.3346, 0.1014 0.1628 0.3346, 0.1002 0.1639 0.3346, 0.1011 0.1739 0.3346, 0.1025 0.1748 0.3346, 0.1066 0.1883 0.3346, 0.1041 0.1754 0.3346, 0.1395 0.1717 0.3346, 0.1384 0.1706 0.3346, 0.1324 0.1658 0.3346, 0.1479 0.1916 0.3346, 0.1475 0.1893 0.3346, 0.1466 0.1842 0.3346, 0.1435 0.177 0.3346, 0.1052 0.1614 0.3346, 0.1046 0.1614 0.3346, 0.103 0.1619 0.3346, 0.1056 0.1755 0.3346, 0.1059 0.1755 0.3346, 0.1066 0.1754 0.3346, 0.0986 0.1684 0.3346, 0.0986 0.1692 0.3346, 0.0745 0.1714 0.3346, 0.099 0.171 0.3346, 0.0999 0.1726 0.3346, 0.0993 0.1654 0.3346, 0.0987 0.1669 0.3346, 0.0744 0.1668 0.3346, 0.0745 0.1691 0.3346, 0.1291 0.1811 0.3346, 0.1317 0.1846 0.3346, 0.107 0.1753 0.3346, 0.1173 0.1753 0.3346, 0.1214 0.1761 0.3346, 0.1254 0.1779 0.3346, 0.1288 0.1807 0.3346, 0.0545 0.1921 0.3346, 0.06 0.1907 0.3346, 0.1139 0.2122 0.3346, 0.0517 0.1922 0.3346, 0.0214 0.2122 0.3346, 0.0462 0.1916 0.3346, 0.1332 0.1887 0.3346, 0.1333 0.1893 0.3346, 0.106 0.1893 0.3346, 0.1338 0.1932 0.3346, 0.1337 0.1951 0.3346, 0.0412 0.1896 0.3346, 0.0191 0.2088 0.3346, 0.0171 0.2037 0.3346, 0.0183 0.1893 0.3346, 0.0407 0.1893 0.3346, 0.0167 0.1948 0.3346, 0.0164 0.1982 0.3346, 0.1278 0.2065 0.3346, 0.1243 0.2089 0.3346, 0.1326 0.1995 0.3346, 0.1305 0.2035 0.3346, 0.1141 0.211 0.3346, 0.0995 0.2005 0.3346, 0.1159 0.211 0.3346, 0.1203 0.2105 0.3346, 0.0626 0.1893 0.3346, 0.0183 0.1892 0.3346, 0.0327 0.1821 0.3346, 0.0365 0.1864 0.3346, 0.0211 0.1844 0.3346, 0.0252 0.1802 0.3346, 0.0302 0.1771 0.3346, 0.0543 0.2238 0.3346, 0.0514 0.2176 0.3346, 0.0497 0.2186 0.3346, 0.1026 0.2322 0.3346, 0.1136 0.214 0.3346, 0.1064 0.2284 0.3346, 0.1109 0.2217 0.3346, 0.0821 0.2396 0.3346, 0.0804 0.2395 0.3346, 0.0728 0.2383 0.3346, 0.0446 0.2204 0.3346, 0.0393 0.2211 0.3346, 0.037 0.2209 0.3346, 0.096 0.2364 0.3346, 0.0888 0.2389 0.3346, 0.0654 0.235 0.3346, 0.0592 0.2301 0.3346, 0.0313 0.2196 0.3346, 0.0262 0.2169 0.3346, 0.0222 0.2134 0.3346, 0.1446 0.207 0.3346, 0.1471 0.1999 0.3346, 0.148 0.1934 0.3346, 0.2718 0.2232 0.3346, 0.2702 0.2199 0.3346, 0.2678 0.217 0.3346, 0.2689 0.2394 0.3346, 0.2709 0.2366 0.3346, 0.2678 0.2404 0.3346, 0.2721 0.2335 0.3346, 0.2727 0.229 0.3346, 0.2726 0.227 0.3346, 0.2612 0.245 0.3346, 0.236 0.245 0.3346, 0.2397 0.2447 0.3346, 0.236 0.2447 0.3346, 0.2397 0.241 0.3346, 0.2465 0.2125 0.3346, 0.2465 0.2447 0.3346, 0.2557 0.2447 0.3346, 0.2606 0.2441 0.3346, 0.2612 0.2439 0.3346, 0.2645 0.2427 0.3346, 0.236 0.2122 0.3346, 0.2612 0.2122 0.3346, 0.2404 0.2125 0.3346, 0.2673 0.2165 0.3346, 0.2641 0.2144 0.3346, 0.2612 0.2134 0.3346, 0.2604 0.2131 0.3346, 0.2554 0.2125 0.3346, 0.2404 0.2162 0.3346, 0.2807 0.1651 0.3346, 0.2807 0.1615 0.3346, 0.2736 0.1612 0.3346, 0.2676 0.176 0.3346, 0.2676 0.1651 0.3346, 0.2736 0.176 0.3346, 0.2736 0.1651 0.3346, 0.2791 0.176 0.3346, 0.2676 0.1893 0.3346, 0.2676 0.1796 0.3346, 0.2736 0.1893 0.3346, 0.2736 0.1796 0.3346, 0.2791 0.1796 0.3346, 0.2676 0.1899 0.3346, 0.2736 0.1899 0.3346, 0.28 0.1899 0.3346, 0.28 0.1936 0.3346, 0.2736 0.1936 0.3346, 0.2634 0.1936 0.3346, 0.2736 0.1615 0.3346, 0.2612 0.1612 0.3346, 0.2591 0.1844 0.3346, 0.2273 0.227 0.3346, 0.2273 0.2162 0.3346, 0.236 0.227 0.3346, 0.236 0.2162 0.3346, 0.2388 0.227 0.3346, 0.2388 0.2307 0.3346, 0.236 0.2307 0.3346, 0.236 0.241 0.3346, 0.2273 0.2307 0.3346, 0.2273 0.241 0.3346, 0.2231 0.2447 0.3346, 0.2213 0.245 0.3346, 0.2231 0.2125 0.3346, -0.317 -0.2565 0.3346, -0.3253 -0.2531 0.3346, -0.3696 -0.2908 0.3346, -0.3325 -0.2476 0.3346, -0.3379 -0.2404 0.3346, -0.3414 -0.2321 0.3346, -0.3426 -0.2231 0.3346, -0.3414 -0.2142 0.3346, -0.3696 0.1485 0.3346, -0.3379 -0.2058 0.3346, -0.3325 -0.1987 0.3346, -0.3253 -0.1932 0.3346, -0.317 -0.1897 0.3346, -0.308 -0.1886 0.3346, -0.2991 -0.1897 0.3346, -0.2907 -0.1932 0.3346, -0.2734 -0.2231 0.3346, -0.2746 -0.2321 0.3346, -0.2781 -0.2404 0.3346, -0.2836 -0.2476 0.3346, -0.2907 -0.2531 0.3346, -0.2991 -0.2565 0.3346, -0.308 -0.2577 0.3346, -0.2836 -0.1987 0.3346, -0.2781 -0.2058 0.3346, -0.2746 -0.2142 0.3346, 0.3567 0.1485 0.3346, 0.3139 -0.2908 0.3346, 0.3139 0.1485 0.3346, 0.2838 -0.2908 0.3346, 0.2838 0.1485 0.3346, 0.2736 -0.2908 0.3346, 0.2736 0.1485 0.3346, 0.2612 -0.2908 0.3346, 0.236 -0.2908 0.3346, 0.2213 -0.2908 0.3346, 0.218 -0.2908 0.3346, 0.218 0.1485 0.3346, 0.2153 -0.2908 0.3346, 0.1921 -0.2908 0.3346, 0.1914 -0.2908 0.3346, 0.1914 0.1485 0.3346, 0.2066 0.1618 0.3346, 0.1914 0.2122 0.3346, 0.2213 0.2122 0.3346, 0.1913 0.2162 0.3346, 0.1913 0.2125 0.3346, 0.1743 0.2125 0.3346, 0.1785 0.2447 0.3346, 0.1914 0.245 0.3346, 0.1743 0.2447 0.3346, 0.1785 0.2162 0.3346, 0.236 0.2125 0.3346, 0.3567 0.245 0.3346, 0.3139 0.245 0.3346, 0.2867 0.2447 0.3346, 0.3696 0.1612 0.3346, 0.3696 0.1893 0.3346, 0.3696 0.2122 0.3346, 0.3696 0.245 0.3346, -0.3696 0.1612 0.3346, -0.3696 0.1893 0.3346, -0.3696 0.2122 0.3346, -0.3696 0.245 0.3346, -0.3696 0.2908 0.3346, 0.1914 0.2908 0.3346, 0.3696 0.2908 0.3346, 0.3567 0.2908 0.3346, 0.3139 0.2908 0.3346, 0.2838 0.2908 0.3346, 0.2736 0.2908 0.3346, 0.2612 0.2908 0.3346, 0.236 0.2908 0.3346, 0.2213 0.2908 0.3346, 0.218 0.2908 0.3346, -0.315 0.315 0.0039, -0.3937 0.315 0.0039, -0.315 0.315 0.0591, -0.3937 0.315 0.0591, -0.315 0.2874 0.0039, -0.1969 0.315 0.0039, 0.1969 0.315 0.0039, -0.1969 0.2874 0.0039, 0.1969 0.2874 0.0039, 0.3937 -0.315 0.0039, 0.315 -0.315 0.0039, 0.315 -0.2874 0.0039, 0.1969 -0.315 0.0039, 0.0591 -0.315 0.0039, 0.1969 -0.2874 0.0039, 0.0591 -0.2874 0.0039, 0.315 0.315 0.0039, 0.3937 0.315 0.0039, 0.315 0.2874 0.0039, -0.0591 -0.2874 0.0039, -0.315 -0.315 0.0039, -0.3937 -0.315 0.0039, -0.315 -0.2874 0.0039, -0.1969 -0.2874 0.0039, -0.1969 -0.315 0.0039, -0.0591 -0.315 0.0039, -0.1969 0.315 0.0591, 0.1969 0.315 0.0591, 0.315 0.315 0.0591, 0.3937 0.315 0.0591, -0.3937 -0.315 0.0591, -0.315 -0.315 0.0591, -0.0591 -0.315 0.0591, -0.1969 -0.315 0.0591, 0.1969 -0.315 0.0591, 0.0591 -0.315 0.0591, 0.3937 -0.315 0.0591, 0.315 -0.315 0.0591
            ]
        }
        coordIndex [
            0,1,2,-1,3,4,5,-1,6,7,8,-1,9,10,11,-1,12,13,14,-1,15,16,17,-1,18,19,20,-1,20,19,15,-1,20,15,21,-1,21,15,17,-1,17,22,21,-1,21,22,23,-1,21,23,24,-1,24,23,25,-1,24,25,26,-1,26,25,27,-1,26,27,28,-1,29,30,31,-1,32,33,34,-1,34,33,35,-1,36,37,31,-1,29,31,38,-1,38,31,37,-1,38,37,39,-1,40,41,42,-1,42,41,43,-1,42,43,44,-1,44,43,45,-1,44,45,46,-1,30,34,31,-1,31,34,35,-1,31,35,47,-1,47,35,48,-1,47,48,49,-1,49,48,50,-1,49,50,46,-1,46,50,51,-1,46,51,44,-1,52,53,54,-1,54,53,55,-1,55,53,56,-1,55,56,20,-1,20,56,57,-1,20,57,58,-1,58,57,59,-1,58,59,60,-1,60,59,61,-1,60,61,62,-1,62,61,63,-1,62,63,64,-1,65,66,64,-1,64,66,52,-1,64,52,62,-1,62,52,54,-1,67,68,69,-1,70,71,67,-1,67,71,72,-1,67,72,73,-1,70,74,71,-1,71,74,75,-1,71,75,76,-1,76,75,77,-1,76,77,78,-1,73,79,67,-1,67,79,80,-1,67,80,81,-1,69,82,67,-1,67,82,83,-1,67,83,84,-1,81,85,67,-1,67,85,86,-1,67,86,68,-1,87,88,89,-1,89,88,90,-1,84,91,67,-1,67,91,92,-1,67,92,93,-1,93,92,94,-1,93,94,95,-1,95,94,96,-1,97,98,99,-1,99,98,100,-1,101,102,87,-1,87,102,103,-1,87,103,88,-1,104,105,106,-1,106,105,107,-1,106,107,108,-1,109,110,111,-1,108,112,106,-1,106,112,113,-1,106,113,114,-1,111,115,109,-1,109,115,116,-1,109,116,117,-1,118,119,109,-1,109,119,120,-1,109,120,110,-1,121,47,122,-1,122,47,123,-1,122,123,124,-1,94,125,96,-1,96,125,126,-1,96,126,127,-1,127,126,128,-1,127,128,129,-1,14,130,131,-1,5,132,133,-1,133,132,134,-1,135,136,137,-1,137,138,135,-1,135,138,139,-1,135,139,133,-1,133,139,140,-1,133,140,5,-1,141,142,143,-1,143,142,144,-1,145,146,14,-1,14,146,147,-1,14,147,130,-1,148,149,150,-1,149,151,150,-1,150,151,152,-1,150,152,153,-1,153,154,150,-1,150,154,155,-1,150,155,143,-1,143,155,156,-1,143,156,141,-1,14,157,158,-1,158,159,14,-1,14,159,160,-1,14,160,145,-1,161,162,54,-1,163,55,164,-1,164,55,165,-1,162,166,54,-1,54,166,167,-1,54,167,168,-1,168,169,54,-1,54,169,170,-1,54,170,171,-1,163,172,55,-1,55,172,173,-1,55,173,54,-1,54,173,174,-1,54,174,161,-1,165,55,175,-1,175,55,20,-1,175,20,176,-1,177,178,179,-1,179,178,180,-1,179,180,21,-1,21,180,181,-1,21,181,20,-1,20,181,182,-1,20,182,176,-1,131,134,14,-1,14,134,132,-1,14,132,183,-1,183,132,184,-1,185,186,14,-1,14,186,187,-1,188,189,190,-1,190,189,191,-1,188,192,189,-1,189,192,193,-1,189,193,132,-1,132,193,194,-1,132,194,184,-1,195,196,183,-1,183,196,197,-1,183,197,14,-1,14,197,198,-1,14,198,185,-1,187,199,14,-1,14,199,200,-1,14,200,12,-1,201,202,203,-1,203,202,204,-1,203,204,205,-1,203,206,201,-1,201,206,207,-1,201,207,208,-1,208,209,201,-1,201,209,210,-1,201,210,211,-1,211,210,212,-1,211,212,213,-1,213,212,214,-1,213,214,183,-1,183,214,215,-1,183,215,195,-1,216,217,205,-1,205,217,218,-1,205,218,203,-1,191,189,219,-1,219,189,220,-1,219,220,221,-1,222,223,224,-1,225,226,227,-1,226,228,227,-1,227,228,229,-1,227,229,220,-1,220,229,230,-1,220,230,221,-1,222,224,227,-1,227,224,231,-1,227,231,225,-1,232,233,223,-1,223,233,234,-1,223,234,224,-1,232,235,233,-1,233,235,236,-1,233,236,237,-1,237,236,238,-1,237,239,240,-1,238,241,237,-1,237,241,242,-1,237,242,243,-1,243,244,237,-1,237,244,245,-1,237,245,239,-1,240,246,237,-1,237,246,247,-1,237,247,248,-1,249,250,251,-1,251,250,252,-1,251,252,253,-1,253,252,254,-1,255,256,13,-1,13,256,143,-1,13,143,14,-1,14,143,144,-1,14,144,157,-1,257,258,259,-1,259,258,260,-1,49,261,47,-1,47,261,262,-1,47,262,263,-1,264,265,123,-1,49,266,267,-1,268,269,260,-1,260,269,270,-1,260,270,271,-1,267,272,49,-1,49,272,273,-1,49,273,274,-1,274,275,49,-1,49,275,276,-1,49,276,277,-1,278,279,261,-1,261,279,280,-1,261,280,281,-1,281,280,282,-1,281,282,283,-1,277,284,49,-1,49,284,285,-1,49,285,261,-1,261,285,286,-1,261,286,278,-1,263,287,47,-1,47,287,288,-1,47,288,123,-1,123,288,289,-1,123,289,264,-1,265,290,123,-1,123,290,291,-1,123,291,292,-1,293,294,282,-1,282,294,295,-1,295,296,282,-1,282,296,297,-1,282,297,298,-1,298,299,282,-1,282,299,300,-1,282,300,283,-1,301,302,303,-1,303,302,304,-1,303,304,305,-1,306,41,307,-1,307,41,308,-1,307,308,309,-1,310,311,308,-1,308,311,312,-1,308,312,313,-1,313,314,308,-1,308,314,315,-1,308,315,309,-1,316,317,318,-1,316,318,319,-1,319,318,320,-1,319,320,321,-1,321,320,322,-1,322,320,323,-1,322,323,324,-1,11,10,323,-1,323,10,325,-1,323,325,326,-1,323,327,324,-1,324,327,328,-1,324,328,329,-1,329,328,330,-1,329,330,331,-1,326,332,323,-1,323,332,333,-1,323,333,327,-1,334,335,11,-1,11,335,336,-1,11,336,9,-1,337,338,339,-1,337,339,340,-1,338,341,339,-1,339,341,342,-1,339,342,334,-1,334,342,343,-1,334,343,335,-1,344,340,345,-1,345,340,339,-1,345,339,346,-1,346,339,347,-1,346,347,348,-1,348,347,349,-1,350,351,347,-1,347,351,352,-1,347,352,349,-1,353,354,355,-1,355,354,356,-1,355,356,350,-1,350,356,357,-1,350,357,351,-1,358,359,360,-1,359,361,360,-1,360,361,362,-1,360,362,363,-1,45,364,365,-1,358,366,367,-1,368,369,370,-1,370,369,371,-1,372,373,45,-1,45,373,374,-1,45,374,364,-1,375,376,43,-1,43,376,377,-1,43,377,45,-1,45,377,378,-1,45,378,372,-1,379,380,358,-1,358,380,381,-1,358,381,366,-1,371,382,370,-1,370,382,383,-1,370,383,384,-1,385,386,387,-1,387,386,388,-1,387,388,370,-1,370,388,389,-1,370,389,368,-1,367,390,358,-1,358,390,391,-1,358,391,392,-1,392,391,385,-1,392,385,393,-1,393,385,387,-1,370,394,395,-1,384,396,370,-1,370,396,397,-1,370,397,398,-1,398,399,370,-1,370,399,400,-1,370,400,394,-1,401,402,403,-1,401,403,404,-1,405,406,404,-1,395,407,370,-1,370,407,408,-1,370,408,409,-1,409,408,410,-1,409,410,411,-1,406,405,412,-1,412,405,413,-1,412,413,414,-1,415,416,417,-1,417,416,412,-1,417,412,418,-1,418,412,414,-1,409,419,420,-1,411,421,409,-1,409,421,422,-1,409,422,419,-1,423,424,425,-1,425,424,409,-1,425,409,426,-1,426,409,420,-1,423,403,424,-1,424,403,402,-1,424,402,8,-1,8,402,427,-1,8,427,6,-1,428,429,415,-1,415,429,430,-1,415,430,416,-1,428,431,429,-1,429,431,432,-1,429,432,433,-1,434,435,403,-1,404,403,405,-1,405,403,435,-1,405,435,436,-1,437,438,439,-1,439,438,440,-1,438,441,403,-1,403,441,442,-1,403,442,443,-1,436,444,405,-1,405,444,445,-1,405,445,446,-1,437,447,438,-1,438,447,448,-1,438,448,441,-1,443,449,403,-1,403,449,450,-1,403,450,434,-1,451,452,446,-1,446,452,453,-1,446,453,405,-1,306,454,41,-1,41,454,455,-1,41,455,43,-1,43,455,456,-1,43,456,375,-1,457,458,24,-1,24,458,459,-1,460,461,26,-1,460,26,462,-1,461,463,26,-1,26,463,464,-1,26,464,24,-1,24,464,465,-1,24,465,457,-1,466,467,468,-1,468,467,469,-1,470,471,472,-1,473,474,466,-1,466,474,475,-1,466,475,26,-1,26,475,476,-1,26,476,462,-1,473,466,472,-1,472,466,468,-1,472,468,470,-1,477,478,479,-1,459,480,24,-1,24,480,481,-1,24,481,478,-1,478,481,482,-1,478,482,483,-1,483,484,478,-1,478,484,471,-1,478,471,479,-1,479,471,485,-1,486,487,171,-1,171,487,488,-1,489,490,491,-1,491,490,492,-1,491,492,493,-1,493,492,486,-1,493,486,179,-1,179,486,171,-1,179,171,177,-1,177,171,170,-1,494,495,496,-1,496,495,497,-1,496,497,179,-1,179,497,498,-1,179,498,493,-1,499,494,500,-1,500,494,496,-1,500,496,501,-1,501,496,179,-1,501,179,502,-1,502,179,21,-1,502,21,503,-1,503,21,24,-1,503,24,504,-1,504,24,478,-1,487,505,488,-1,488,505,3,-1,488,3,506,-1,506,3,5,-1,506,5,507,-1,507,5,140,-1,508,509,510,-1,510,509,511,-1,510,511,512,-1,511,485,512,-1,512,485,471,-1,512,471,513,-1,513,471,470,-1,513,470,514,-1,514,470,515,-1,514,515,516,-1,516,515,517,-1,469,467,518,-1,518,467,519,-1,518,519,520,-1,521,522,523,-1,522,524,523,-1,523,524,525,-1,523,525,526,-1,526,527,523,-1,523,527,528,-1,523,528,529,-1,529,528,530,-1,529,530,531,-1,531,532,529,-1,529,532,533,-1,529,533,534,-1,534,535,347,-1,347,535,536,-1,537,538,350,-1,350,538,539,-1,350,539,540,-1,540,541,350,-1,350,541,542,-1,350,542,523,-1,523,542,543,-1,523,543,521,-1,536,544,347,-1,347,544,545,-1,347,545,350,-1,350,545,546,-1,350,546,537,-1,0,547,548,-1,548,547,549,-1,548,549,550,-1,550,549,551,-1,550,551,552,-1,552,551,553,-1,552,553,554,-1,554,553,150,-1,554,150,555,-1,555,150,143,-1,555,143,556,-1,556,143,256,-1,556,256,557,-1,557,256,558,-1,557,558,559,-1,559,558,304,-1,559,304,560,-1,560,304,302,-1,560,302,561,-1,561,302,562,-1,561,562,355,-1,355,562,360,-1,355,360,353,-1,353,360,363,-1,301,266,302,-1,302,266,49,-1,302,49,562,-1,562,49,46,-1,562,46,360,-1,360,46,45,-1,360,45,358,-1,358,45,365,-1,358,365,379,-1,255,254,256,-1,256,254,252,-1,256,252,558,-1,558,252,250,-1,558,250,304,-1,304,250,259,-1,304,259,305,-1,305,259,260,-1,305,260,563,-1,563,260,271,-1,547,62,549,-1,549,62,54,-1,549,54,551,-1,551,54,171,-1,551,171,553,-1,553,171,488,-1,553,488,150,-1,150,488,506,-1,150,506,148,-1,148,506,507,-1,249,227,250,-1,250,227,220,-1,250,220,259,-1,259,220,123,-1,259,123,257,-1,257,123,292,-1,121,104,47,-1,47,104,106,-1,47,106,31,-1,31,106,564,-1,31,564,36,-1,4,504,5,-1,5,504,478,-1,5,478,132,-1,132,478,477,-1,132,477,189,-1,189,477,565,-1,189,565,220,-1,220,565,96,-1,220,96,123,-1,123,96,127,-1,123,127,124,-1,124,127,129,-1,566,567,564,-1,564,567,568,-1,569,570,571,-1,571,570,308,-1,571,308,568,-1,568,308,41,-1,568,41,564,-1,564,41,40,-1,564,40,36,-1,114,118,106,-1,106,118,109,-1,106,109,564,-1,564,109,570,-1,564,570,566,-1,566,570,569,-1,566,569,572,-1,479,573,477,-1,477,573,520,-1,477,520,565,-1,565,520,519,-1,565,519,96,-1,96,519,89,-1,96,89,95,-1,95,89,90,-1,58,574,20,-1,20,574,575,-1,20,575,18,-1,18,575,28,-1,18,28,576,-1,576,28,27,-1,0,2,547,-1,547,2,577,-1,547,577,62,-1,62,577,578,-1,62,578,60,-1,60,578,579,-1,60,579,58,-1,58,579,580,-1,58,580,574,-1,534,347,529,-1,529,347,339,-1,529,339,581,-1,581,339,334,-1,581,334,582,-1,582,334,11,-1,582,11,583,-1,583,11,323,-1,583,323,584,-1,584,323,320,-1,584,320,585,-1,117,99,109,-1,109,99,100,-1,109,100,570,-1,570,100,586,-1,570,586,308,-1,308,586,318,-1,308,318,310,-1,310,318,317,-1,580,587,574,-1,574,587,588,-1,574,588,575,-1,575,588,589,-1,575,589,28,-1,28,589,590,-1,28,590,26,-1,26,590,591,-1,26,591,466,-1,466,591,592,-1,466,592,467,-1,467,592,593,-1,467,593,519,-1,519,593,594,-1,519,594,89,-1,89,594,595,-1,89,595,87,-1,87,595,98,-1,87,98,101,-1,101,98,97,-1,596,597,598,-1,598,597,599,-1,597,596,600,-1,601,602,603,-1,603,602,604,-1,605,606,607,-1,608,609,610,-1,610,609,611,-1,612,613,614,-1,614,613,605,-1,614,605,604,-1,604,605,603,-1,603,605,607,-1,603,607,600,-1,600,607,610,-1,600,610,597,-1,597,610,611,-1,597,611,615,-1,616,617,618,-1,618,617,597,-1,618,597,619,-1,619,597,615,-1,619,615,620,-1,620,615,621,-1,622,623,601,-1,601,623,602,-1,624,625,612,-1,612,625,613,-1,626,617,627,-1,627,617,616,-1,621,628,620,-1,620,628,629,-1,608,630,609,-1,609,630,631,-1,587,1,625,-1,625,1,632,-1,598,599,585,-1,625,624,587,-1,587,624,623,-1,587,623,585,-1,585,623,622,-1,585,622,598,-1,523,585,626,-1,626,585,599,-1,523,626,627,-1,627,629,523,-1,523,629,628,-1,523,628,1,-1,1,628,631,-1,631,630,1,-1,1,630,633,-1,1,633,632,-1,605,613,632,-1,632,613,625,-1,605,632,606,-1,606,632,633,-1,597,617,599,-1,599,617,626,-1,
        ]
    }
}
Shape{
    appearance Appearance {
        material  Material 	{
            diffuseColor 0.6666666666666666 0.6666666666666666 0.6666666666666666
            specularColor 0.4666666666666667 0.4666666666666667 0.4666666666666667
            ambientIntensity 0.6667
            transparency 0.0
            shininess 0.5
        }
    }
    geometry IndexedFaceSet {
        ccw TRUE
        solid FALSE
        coord DEF co Coordinate {
            point [
                0.1969 -0.2874 0.0039, 0.1969 -0.2874 0.0, 0.1969 -0.315 0.0039, 0.1969 -0.4134 0.0, 0.1969 -0.315 0.0591, 0.1969 -0.4134 0.0591, 0.315 -0.4134 0.0, 0.315 -0.4134 0.0591, 0.315 -0.2874 0.0, 0.315 -0.2874 0.0039, 0.315 -0.315 0.0039, 0.315 -0.315 0.0591, -0.0591 -0.4134 0.0591, 0.0591 -0.4134 0.0591, -0.0591 -0.315 0.0591, 0.0591 -0.315 0.0591, -0.0591 -0.2874 0.0039, -0.0591 -0.2874 0.0, -0.0591 -0.315 0.0039, -0.0591 -0.4134 0.0, 0.0591 -0.4134 0.0, 0.0591 -0.2874 0.0, 0.0591 -0.2874 0.0039, 0.0591 -0.315 0.0039, -0.315 -0.4134 0.0591, -0.1969 -0.4134 0.0591, -0.315 -0.315 0.0591, -0.1969 -0.315 0.0591, -0.315 -0.2874 0.0039, -0.315 -0.2874 0.0, -0.315 -0.315 0.0039, -0.315 -0.4134 0.0, -0.1969 -0.4134 0.0, -0.1969 -0.2874 0.0, -0.1969 -0.2874 0.0039, -0.1969 -0.315 0.0039, 0.1969 0.2874 0.0, 0.1969 0.2874 0.0039, 0.1969 0.315 0.0039, 0.1969 0.315 0.0591, 0.1969 0.4134 0.0591, 0.1969 0.4134 0.0, 0.315 0.2874 0.0, 0.315 0.2874 0.0039, 0.315 0.315 0.0039, 0.315 0.4134 0.0, 0.315 0.315 0.0591, 0.315 0.4134 0.0591, -0.1969 0.4134 0.0591, -0.315 0.4134 0.0591, -0.1969 0.315 0.0591, -0.315 0.315 0.0591, -0.315 0.2874 0.0, -0.315 0.2874 0.0039, -0.315 0.315 0.0039, -0.315 0.4134 0.0, -0.1969 0.2874 0.0, -0.1969 0.2874 0.0039, -0.1969 0.315 0.0039, -0.1969 0.4134 0.0
            ]
        }
        coordIndex [
            0,1,2,-1,2,1,3,-1,2,3,4,-1,4,3,5,-1,6,7,3,-1,3,7,5,-1,8,9,10,-1,11,7,10,-1,10,7,6,-1,10,6,8,-1,9,8,0,-1,0,8,1,-1,4,5,11,-1,11,5,7,-1,8,6,1,-1,1,6,3,-1,12,13,14,-1,14,13,15,-1,16,17,18,-1,18,17,19,-1,18,19,14,-1,14,19,12,-1,20,13,19,-1,19,13,12,-1,21,22,23,-1,15,13,23,-1,23,13,20,-1,23,20,21,-1,22,21,16,-1,16,21,17,-1,21,20,17,-1,17,20,19,-1,24,25,26,-1,26,25,27,-1,28,29,30,-1,30,29,31,-1,30,31,26,-1,26,31,24,-1,32,25,31,-1,31,25,24,-1,33,34,35,-1,27,25,35,-1,35,25,32,-1,35,32,33,-1,34,33,28,-1,28,33,29,-1,33,32,29,-1,29,32,31,-1,36,37,38,-1,39,40,38,-1,38,40,41,-1,38,41,36,-1,36,42,37,-1,37,42,43,-1,43,42,44,-1,44,42,45,-1,44,45,46,-1,46,45,47,-1,41,40,45,-1,45,40,47,-1,46,47,39,-1,39,47,40,-1,45,42,41,-1,41,42,36,-1,48,49,50,-1,50,49,51,-1,52,53,54,-1,51,49,54,-1,54,49,55,-1,54,55,52,-1,52,56,53,-1,53,56,57,-1,57,56,58,-1,58,56,59,-1,58,59,50,-1,50,59,48,-1,55,49,59,-1,59,49,48,-1,59,56,55,-1,55,56,52,-1,
        ]
    }
}
Shape{
    appearance Appearance {
        material  Material 	{
            diffuseColor 0.07058823529411765 0.07058823529411765 0.07058823529411765
            specularColor 0.00392156862745098 0.00392156862745098 0.00392156862745098
            ambientIntensity 0.102
            transparency 0.0
            shininess 0.5
        }
    }
    geometry IndexedFaceSet {
        ccw TRUE
        solid FALSE
        coord DEF co Coordinate {
            point [
                -0.2734 -0.2231 0.3268, -0.2734 -0.2231 0.3346, -0.2746 -0.2142 0.3268, -0.2746 -0.2142 0.3346, -0.2781 -0.2058 0.3268, -0.2781 -0.2058 0.3346, -0.2836 -0.1987 0.3268, -0.2836 -0.1987 0.3346, -0.2907 -0.1932 0.3268, -0.2907 -0.1932 0.3346, -0.2991 -0.1897 0.3268, -0.2991 -0.1897 0.3346, -0.308 -0.1886 0.3268, -0.308 -0.1886 0.3346, -0.317 -0.1897 0.3268, -0.317 -0.1897 0.3346, -0.3253 -0.1932 0.3268, -0.3253 -0.1932 0.3346, -0.3325 -0.1987 0.3268, -0.3325 -0.1987 0.3346, -0.3379 -0.2058 0.3268, -0.3379 -0.2058 0.3346, -0.3414 -0.2142 0.3268, -0.3414 -0.2142 0.3346, -0.3426 -0.2231 0.3268, -0.3426 -0.2231 0.3346, -0.3414 -0.2321 0.3268, -0.3414 -0.2321 0.3346, -0.3379 -0.2404 0.3268, -0.3379 -0.2404 0.3346, -0.3325 -0.2476 0.3268, -0.3325 -0.2476 0.3346, -0.3253 -0.2531 0.3268, -0.3253 -0.2531 0.3346, -0.317 -0.2565 0.3268, -0.317 -0.2565 0.3346, -0.308 -0.2577 0.3268, -0.308 -0.2577 0.3346, -0.2991 -0.2565 0.3268, -0.2991 -0.2565 0.3346, -0.2907 -0.2531 0.3268, -0.2907 -0.2531 0.3346, -0.2836 -0.2476 0.3268, -0.2836 -0.2476 0.3346, -0.2781 -0.2404 0.3268, -0.2781 -0.2404 0.3346, -0.2746 -0.2321 0.3268, -0.2746 -0.2321 0.3346, -0.308 -0.2231 0.3268
            ]
        }
        coordIndex [
            0,1,2,-1,2,1,3,-1,2,3,4,-1,4,3,5,-1,4,5,6,-1,6,5,7,-1,6,7,8,-1,8,7,9,-1,8,9,10,-1,10,9,11,-1,10,11,12,-1,12,11,13,-1,12,13,14,-1,14,13,15,-1,14,15,16,-1,16,15,17,-1,16,17,18,-1,18,17,19,-1,18,19,20,-1,20,19,21,-1,20,21,22,-1,22,21,23,-1,22,23,24,-1,24,23,25,-1,24,25,26,-1,26,25,27,-1,26,27,28,-1,28,27,29,-1,28,29,30,-1,30,29,31,-1,30,31,32,-1,32,31,33,-1,32,33,34,-1,34,33,35,-1,34,35,36,-1,36,35,37,-1,36,37,38,-1,38,37,39,-1,38,39,40,-1,40,39,41,-1,40,41,42,-1,42,41,43,-1,42,43,44,-1,44,43,45,-1,44,45,46,-1,46,45,47,-1,46,47,0,-1,0,47,1,-1,44,46,48,-1,48,46,0,-1,48,0,2,-1,38,40,48,-1,48,40,42,-1,48,42,44,-1,32,34,48,-1,48,34,36,-1,48,36,38,-1,26,28,48,-1,48,28,30,-1,48,30,32,-1,20,22,48,-1,48,22,24,-1,48,24,26,-1,14,16,48,-1,48,16,18,-1,48,18,20,-1,8,10,48,-1,48,10,12,-1,48,12,14,-1,2,4,48,-1,48,4,6,-1,48,6,8,-1,
        ]
    }
}
Shape{
    appearance Appearance {
        material  Material 	{
            diffuseColor 1.0 1.0 1.0
            specularColor 0.8784313725490196 0.8784313725490196 0.8784313725490196
            ambientIntensity 1.0
            transparency 0.0
            shininess 0.5
        }
    }
    geometry IndexedFaceSet {
        ccw TRUE
        solid FALSE
        coord DEF co Coordinate {
            point [
                0.3061 0.1858 0.3386, 0.3092 0.1883 0.3386, 0.3051 0.1869 0.3386, 0.3081 0.1894 0.3386, 0.3027 0.1885 0.3386, 0.3048 0.1917 0.3386, 0.3 0.1895 0.3386, 0.3009 0.1931 0.3386, 0.2958 0.1899 0.3386, 0.296 0.1936 0.3386, 0.2909 0.1899 0.3386, 0.2868 0.1936 0.3386, 0.2909 0.1651 0.3386, 0.2868 0.1615 0.3386, 0.2956 0.1651 0.3386, 0.2956 0.1615 0.3386, 0.2997 0.1656 0.3386, 0.3007 0.162 0.3386, 0.3025 0.1666 0.3386, 0.3044 0.1634 0.3386, 0.3046 0.168 0.3386, 0.3076 0.1655 0.3386, 0.3052 0.1685 0.3386, 0.3081 0.166 0.3386, 0.3068 0.1705 0.3386, 0.3105 0.1688 0.3386, 0.3079 0.1729 0.3386, 0.3121 0.1722 0.3386, 0.3085 0.1758 0.3386, 0.3129 0.1759 0.3386, 0.3086 0.1779 0.3386, 0.313 0.178 0.3386, 0.3082 0.1816 0.3386, 0.3124 0.1825 0.3386, 0.3074 0.184 0.3386, 0.3112 0.1855 0.3386, 0.3081 0.166 0.3346, 0.3105 0.1688 0.3346, 0.3121 0.1722 0.3346, 0.3129 0.1759 0.3346, 0.313 0.178 0.3346, 0.3081 0.1894 0.3346, 0.3082 0.1893 0.3346, 0.3092 0.1883 0.3346, 0.3112 0.1855 0.3346, 0.3124 0.1825 0.3346, 0.3048 0.1917 0.3346, 0.3009 0.1931 0.3346, 0.296 0.1936 0.3346, 0.2868 0.1936 0.3346, 0.2868 0.1615 0.3346, 0.2868 0.1893 0.3346, 0.2956 0.1615 0.3346, 0.3007 0.162 0.3346, 0.3044 0.1634 0.3346, 0.3076 0.1655 0.3346, 0.3051 0.1869 0.3346, 0.3061 0.1858 0.3346, 0.3074 0.184 0.3346, 0.3082 0.1816 0.3346, 0.3086 0.1779 0.3346, 0.2958 0.1899 0.3346, 0.3 0.1895 0.3346, 0.3027 0.1885 0.3346, 0.2909 0.1899 0.3346, 0.2909 0.1651 0.3346, 0.2956 0.1651 0.3346, 0.3052 0.1685 0.3346, 0.3046 0.168 0.3346, 0.3025 0.1666 0.3346, 0.2997 0.1656 0.3346, 0.3085 0.1758 0.3346, 0.3079 0.1729 0.3346, 0.3068 0.1705 0.3346
            ]
        }
        coordIndex [
            0,1,2,-1,2,1,3,-1,2,3,4,-1,4,3,5,-1,4,5,6,-1,6,5,7,-1,6,7,8,-1,8,7,9,-1,8,9,10,-1,10,9,11,-1,10,11,12,-1,12,11,13,-1,12,13,14,-1,14,13,15,-1,14,15,16,-1,16,15,17,-1,16,17,18,-1,18,17,19,-1,18,19,20,-1,20,19,21,-1,20,21,22,-1,22,21,23,-1,22,23,24,-1,24,23,25,-1,24,25,26,-1,26,25,27,-1,26,27,28,-1,28,27,29,-1,28,29,30,-1,30,29,31,-1,30,31,32,-1,32,31,33,-1,32,33,34,-1,34,33,35,-1,34,35,0,-1,0,35,1,-1,23,36,37,-1,23,37,25,-1,25,37,38,-1,25,38,27,-1,27,38,39,-1,27,39,29,-1,29,39,40,-1,29,40,31,-1,41,3,42,-1,42,3,1,-1,42,1,43,-1,43,1,35,-1,43,35,44,-1,44,35,33,-1,44,33,45,-1,45,33,31,-1,45,31,40,-1,3,41,46,-1,3,46,5,-1,5,46,47,-1,5,47,7,-1,7,47,48,-1,7,48,9,-1,11,9,49,-1,49,9,48,-1,50,13,51,-1,51,13,11,-1,51,11,49,-1,15,13,52,-1,52,13,50,-1,15,52,53,-1,15,53,17,-1,17,53,54,-1,17,54,19,-1,19,54,55,-1,19,55,21,-1,21,55,36,-1,21,36,23,-1,2,56,57,-1,2,57,0,-1,0,57,58,-1,0,58,34,-1,34,58,59,-1,34,59,32,-1,32,59,60,-1,32,60,30,-1,8,61,62,-1,8,62,6,-1,6,62,63,-1,6,63,4,-1,4,63,56,-1,4,56,2,-1,8,10,61,-1,61,10,64,-1,10,12,64,-1,64,12,65,-1,12,14,65,-1,65,14,66,-1,22,67,68,-1,22,68,20,-1,20,68,69,-1,20,69,18,-1,18,69,70,-1,18,70,16,-1,16,70,66,-1,16,66,14,-1,30,60,71,-1,30,71,28,-1,28,71,72,-1,28,72,26,-1,26,72,73,-1,26,73,24,-1,24,73,67,-1,24,67,22,-1,
        ]
    }
}
Shape{
    appearance Appearance {
        material  Material 	{
            diffuseColor 0.20784313725490197 0.20784313725490197 0.20784313725490197
            specularColor 0.01568627450980392 0.01568627450980392 0.01568627450980392
            ambientIntensity 0.298
            transparency 0.0
            shininess 0.5
        }
    }
    geometry IndexedFaceSet {
        ccw TRUE
        solid FALSE
        coord DEF co Coordinate {
            point [
                0.2909 0.1899 0.3346, 0.2909 0.1651 0.3346, 0.2958 0.1899 0.3346, 0.2956 0.1651 0.3346, 0.2997 0.1656 0.3346, 0.3025 0.1666 0.3346, 0.3046 0.168 0.3346, 0.3052 0.1685 0.3346, 0.3068 0.1705 0.3346, 0.3079 0.1729 0.3346, 0.3085 0.1758 0.3346, 0.3086 0.1779 0.3346, 0.3082 0.1816 0.3346, 0.3074 0.184 0.3346, 0.3061 0.1858 0.3346, 0.3051 0.1869 0.3346, 0.3 0.1895 0.3346, 0.3027 0.1885 0.3346
            ]
        }
        coordIndex [
            0,1,2,-1,2,1,3,-1,2,3,4,-1,4,5,2,-1,2,5,6,-1,2,6,7,-1,7,8,2,-1,2,8,9,-1,2,9,10,-1,10,11,2,-1,2,11,12,-1,2,12,13,-1,13,14,2,-1,2,14,15,-1,2,15,16,-1,16,15,17,-1,
        ]
    }
}
Shape{
    appearance Appearance {
        material  Material 	{
            diffuseColor 1.0 1.0 1.0
            specularColor 0.8784313725490196 0.8784313725490196 0.8784313725490196
            ambientIntensity 1.0
            transparency 0.0
            shininess 0.5
        }
    }
    geometry IndexedFaceSet {
        ccw TRUE
        solid FALSE
        coord DEF co Coordinate {
            point [
                0.2486 0.1671 0.3386, 0.2486 0.1671 0.3346, 0.2483 0.1661 0.3346, 0.2483 0.1661 0.3386, 0.2481 0.1653 0.3346, 0.2481 0.1653 0.3386, 0.248 0.1653 0.3386, 0.248 0.1653 0.3346, 0.2475 0.1672 0.3386, 0.2475 0.1672 0.3346, 0.2415 0.1844 0.3386, 0.2415 0.1844 0.3346, 0.237 0.1844 0.3386, 0.237 0.1844 0.3346, 0.246 0.1615 0.3386, 0.246 0.1615 0.3346, 0.2443 0.1573 0.3346, 0.2443 0.1573 0.3386, 0.2459 0.1612 0.3346, 0.2434 0.1559 0.3346, 0.2434 0.1559 0.3386, 0.2427 0.155 0.3346, 0.2427 0.155 0.3386, 0.2421 0.1546 0.3346, 0.2421 0.1546 0.3386, 0.2412 0.1542 0.3346, 0.2412 0.1542 0.3386, 0.2401 0.1541 0.3346, 0.2401 0.1541 0.3386, 0.2387 0.1543 0.3346, 0.2387 0.1543 0.3386, 0.2378 0.1546 0.3346, 0.2378 0.1546 0.3386, 0.2378 0.151 0.3386, 0.2378 0.151 0.3346, 0.239 0.1507 0.3346, 0.239 0.1507 0.3386, 0.2404 0.1506 0.3346, 0.2404 0.1506 0.3386, 0.242 0.1508 0.3346, 0.242 0.1508 0.3386, 0.2436 0.1514 0.3346, 0.2436 0.1514 0.3386, 0.245 0.1524 0.3346, 0.245 0.1524 0.3386, 0.2455 0.1528 0.3346, 0.2455 0.1528 0.3386, 0.2469 0.1546 0.3346, 0.2469 0.1546 0.3386, 0.2486 0.158 0.3346, 0.2486 0.158 0.3386, 0.2591 0.1844 0.3346, 0.2591 0.1844 0.3386, 0.2499 0.1612 0.3346, 0.2549 0.1844 0.3386, 0.2549 0.1844 0.3346, 0.2256 0.1609 0.3346, 0.2282 0.1612 0.3346, 0.2256 0.1609 0.3386, 0.229 0.1613 0.3386, 0.229 0.1613 0.3346, 0.2312 0.1621 0.3346, 0.2312 0.1621 0.3386, 0.2323 0.1628 0.3346, 0.2323 0.1628 0.3386, 0.2335 0.1638 0.3346, 0.2335 0.1638 0.3386, 0.2342 0.1648 0.3346, 0.2342 0.1648 0.3386, 0.2347 0.1661 0.3346, 0.2347 0.1661 0.3386, 0.2349 0.1677 0.3346, 0.2349 0.1677 0.3386, 0.2347 0.1693 0.3346, 0.2347 0.1693 0.3386, 0.2343 0.1704 0.3346, 0.2343 0.1704 0.3386, 0.2336 0.1715 0.3346, 0.2336 0.1715 0.3386, 0.2326 0.1724 0.3346, 0.2326 0.1724 0.3386, 0.2299 0.1739 0.3346, 0.2299 0.1739 0.3386, 0.2284 0.1745 0.3346, 0.2284 0.1745 0.3386, 0.2259 0.1756 0.3346, 0.2259 0.1756 0.3386, 0.2245 0.1765 0.3346, 0.2245 0.1765 0.3386, 0.2241 0.1769 0.3346, 0.2241 0.1769 0.3386, 0.2238 0.1774 0.3346, 0.2238 0.1774 0.3386, 0.2236 0.1781 0.3346, 0.2236 0.1781 0.3386, 0.2236 0.1786 0.3346, 0.2236 0.1786 0.3386, 0.2236 0.1793 0.3346, 0.2236 0.1793 0.3386, 0.2238 0.1798 0.3346, 0.2238 0.1798 0.3386, 0.2242 0.1803 0.3346, 0.2242 0.1803 0.3386, 0.2248 0.1808 0.3346, 0.2248 0.1808 0.3386, 0.2257 0.1813 0.3346, 0.2257 0.1813 0.3386, 0.2268 0.1816 0.3346, 0.2268 0.1816 0.3386, 0.228 0.1817 0.3346, 0.228 0.1817 0.3386, 0.2308 0.1814 0.3346, 0.2308 0.1814 0.3386, 0.2331 0.1805 0.3346, 0.2331 0.1805 0.3386, 0.2338 0.18 0.3346, 0.2338 0.18 0.3386, 0.2338 0.184 0.3386, 0.2338 0.184 0.3346, 0.2312 0.1847 0.3346, 0.2312 0.1847 0.3386, 0.2284 0.185 0.3346, 0.2284 0.185 0.3386, 0.2251 0.1846 0.3346, 0.2251 0.1846 0.3386, 0.223 0.1837 0.3346, 0.223 0.1837 0.3386, 0.222 0.1831 0.3346, 0.222 0.1831 0.3386, 0.2213 0.1825 0.3346, 0.2208 0.1821 0.3386, 0.2208 0.1821 0.3346, 0.2201 0.181 0.3346, 0.2201 0.181 0.3386, 0.2196 0.1797 0.3346, 0.2196 0.1797 0.3386, 0.2194 0.1782 0.3346, 0.2194 0.1782 0.3386, 0.2196 0.1767 0.3346, 0.2196 0.1767 0.3386, 0.22 0.1754 0.3346, 0.22 0.1754 0.3386, 0.2206 0.1746 0.3346, 0.2206 0.1746 0.3386, 0.2255 0.1716 0.3346, 0.2255 0.1716 0.3386, 0.2231 0.1727 0.3386, 0.2212 0.1739 0.3346, 0.2212 0.1739 0.3386, 0.2213 0.1739 0.3346, 0.2231 0.1727 0.3346, 0.2282 0.1705 0.3346, 0.2282 0.1705 0.3386, 0.2297 0.1695 0.3346, 0.2297 0.1695 0.3386, 0.2302 0.169 0.3346, 0.2302 0.169 0.3386, 0.2306 0.1685 0.3346, 0.2306 0.1685 0.3386, 0.2307 0.1678 0.3346, 0.2307 0.1678 0.3386, 0.2308 0.1673 0.3346, 0.2308 0.1673 0.3386, 0.2307 0.1666 0.3346, 0.2307 0.1666 0.3386, 0.2305 0.166 0.3346, 0.2305 0.166 0.3386, 0.2301 0.1655 0.3346, 0.2301 0.1655 0.3386, 0.2297 0.1651 0.3346, 0.2297 0.1651 0.3386, 0.2293 0.1648 0.3346, 0.2293 0.1648 0.3386, 0.2283 0.1644 0.3346, 0.2283 0.1644 0.3386, 0.2262 0.1642 0.3346, 0.2262 0.1642 0.3386, 0.226 0.1642 0.3346, 0.226 0.1642 0.3386, 0.2194 0.1664 0.3346, 0.2194 0.1664 0.3386, 0.2208 0.1655 0.3386, 0.2234 0.1645 0.3346, 0.2234 0.1645 0.3386, 0.2213 0.1654 0.3346, 0.2208 0.1655 0.3346, 0.2194 0.1623 0.3386, 0.2194 0.1623 0.3346, 0.2213 0.1616 0.3346, 0.2222 0.1613 0.3386, 0.223 0.1612 0.3346, 0.2222 0.1613 0.3346, 0.2099 0.1615 0.3386, 0.2139 0.1615 0.3386, 0.2099 0.165 0.3386, 0.2139 0.1763 0.3386, 0.2099 0.1761 0.3386, 0.2012 0.1713 0.3386, 0.2021 0.1717 0.3386, 0.2045 0.1723 0.3386, 0.2099 0.173 0.3386, 0.2099 0.1708 0.3386, 0.2098 0.165 0.3386, 0.2077 0.1656 0.3386, 0.2089 0.1637 0.3386, 0.2066 0.1649 0.3386, 0.2099 0.1705 0.3386, 0.2096 0.1687 0.3386, 0.2091 0.1673 0.3386, 0.2082 0.1661 0.3386, 0.1999 0.1663 0.3386, 0.1968 0.1634 0.3386, 0.2004 0.1656 0.3386, 0.1974 0.1627 0.3386, 0.2007 0.1653 0.3386, 0.1987 0.1619 0.3386, 0.2015 0.1647 0.3386, 0.2002 0.1613 0.3386, 0.2024 0.1644 0.3386, 0.202 0.1609 0.3386, 0.2038 0.1642 0.3386, 0.2098 0.1777 0.3386, 0.2136 0.1794 0.3386, 0.2094 0.1792 0.3386, 0.213 0.1812 0.3386, 0.2089 0.18 0.3386, 0.2121 0.1825 0.3386, 0.2083 0.1807 0.3386, 0.2111 0.1835 0.3386, 0.2076 0.1812 0.3386, 0.2097 0.1843 0.3386, 0.2067 0.1815 0.3386, 0.208 0.1848 0.3386, 0.2052 0.1817 0.3386, 0.2056 0.185 0.3386, 0.203 0.1815 0.3386, 0.2015 0.1845 0.3386, 0.2005 0.1807 0.3386, 0.1985 0.1833 0.3386, 0.1977 0.1789 0.3386, 0.1977 0.1828 0.3386, 0.2028 0.1609 0.3386, 0.205 0.1612 0.3386, 0.2053 0.1644 0.3386, 0.2066 0.1618 0.3386, 0.2075 0.1624 0.3386, 0.1996 0.1686 0.3386, 0.1955 0.1681 0.3386, 0.1996 0.1679 0.3386, 0.1955 0.1676 0.3386, 0.1997 0.167 0.3386, 0.1956 0.1659 0.3386, 0.1961 0.1645 0.3386, 0.2031 0.1751 0.3386, 0.2 0.1744 0.3386, 0.2006 0.1709 0.3386, 0.1983 0.1735 0.3386, 0.2001 0.1703 0.3386, 0.1971 0.1724 0.3386, 0.1998 0.1695 0.3386, 0.1963 0.1713 0.3386, 0.1957 0.1698 0.3386, 0.2052 0.1817 0.3346, 0.2067 0.1815 0.3346, 0.2076 0.1812 0.3346, 0.2083 0.1807 0.3346, 0.2089 0.18 0.3346, 0.2094 0.1792 0.3346, 0.2098 0.1777 0.3346, 0.2099 0.1761 0.3346, 0.2031 0.1751 0.3346, 0.2 0.1744 0.3346, 0.1983 0.1735 0.3346, 0.1971 0.1724 0.3346, 0.1963 0.1713 0.3346, 0.1957 0.1698 0.3346, 0.1955 0.1681 0.3346, 0.1955 0.1676 0.3346, 0.1956 0.1659 0.3346, 0.1961 0.1645 0.3346, 0.1968 0.1634 0.3346, 0.1974 0.1627 0.3346, 0.2028 0.1609 0.3346, 0.1987 0.1619 0.3346, 0.2002 0.1613 0.3346, 0.2005 0.1612 0.3346, 0.202 0.1609 0.3346, 0.205 0.1612 0.3346, 0.2066 0.1618 0.3346, 0.2075 0.1624 0.3346, 0.2089 0.1637 0.3346, 0.2098 0.165 0.3346, 0.2099 0.165 0.3346, 0.2099 0.1615 0.3346, 0.2139 0.1615 0.3346, 0.2139 0.1763 0.3346, 0.2136 0.1794 0.3346, 0.213 0.1812 0.3346, 0.2121 0.1825 0.3346, 0.2111 0.1835 0.3346, 0.2097 0.1843 0.3346, 0.208 0.1848 0.3346, 0.2056 0.185 0.3346, 0.2015 0.1845 0.3346, 0.1985 0.1833 0.3346, 0.1977 0.1828 0.3346, 0.1977 0.1789 0.3346, 0.2005 0.1807 0.3346, 0.203 0.1815 0.3346, 0.2082 0.1661 0.3346, 0.2077 0.1656 0.3346, 0.2066 0.1649 0.3346, 0.2053 0.1644 0.3346, 0.2038 0.1642 0.3346, 0.2099 0.1708 0.3346, 0.2099 0.1705 0.3346, 0.2096 0.1687 0.3346, 0.2091 0.1673 0.3346, 0.2099 0.173 0.3346, 0.2045 0.1723 0.3346, 0.2006 0.1709 0.3346, 0.2012 0.1713 0.3346, 0.2021 0.1717 0.3346, 0.1996 0.1679 0.3346, 0.1996 0.1686 0.3346, 0.1998 0.1695 0.3346, 0.2001 0.1703 0.3346, 0.2007 0.1653 0.3346, 0.2004 0.1656 0.3346, 0.1999 0.1663 0.3346, 0.1997 0.167 0.3346, 0.2024 0.1644 0.3346, 0.2015 0.1647 0.3346
            ]
        }
        coordIndex [
            0,1,2,-1,0,2,3,-1,3,2,4,-1,3,4,5,-1,6,5,7,-1,7,5,4,-1,8,6,9,-1,9,6,7,-1,10,8,11,-1,11,8,9,-1,12,10,13,-1,13,10,11,-1,14,12,15,-1,15,12,13,-1,16,17,18,-1,18,17,14,-1,18,14,15,-1,17,16,19,-1,17,19,20,-1,20,19,21,-1,20,21,22,-1,22,21,23,-1,22,23,24,-1,24,23,25,-1,24,25,26,-1,26,25,27,-1,26,27,28,-1,28,27,29,-1,28,29,30,-1,30,29,31,-1,30,31,32,-1,33,32,34,-1,34,32,31,-1,33,34,35,-1,33,35,36,-1,36,35,37,-1,36,37,38,-1,38,37,39,-1,38,39,40,-1,40,39,41,-1,40,41,42,-1,42,41,43,-1,42,43,44,-1,44,43,45,-1,44,45,46,-1,46,45,47,-1,46,47,48,-1,48,47,49,-1,48,49,50,-1,51,52,53,-1,53,52,50,-1,53,50,49,-1,54,52,55,-1,55,52,51,-1,0,54,1,-1,1,54,55,-1,3,5,50,-1,52,54,50,-1,50,54,0,-1,50,0,3,-1,10,12,8,-1,8,12,14,-1,8,14,6,-1,32,33,30,-1,30,33,36,-1,30,36,28,-1,28,36,38,-1,28,38,26,-1,26,38,40,-1,26,40,24,-1,24,40,42,-1,24,42,22,-1,5,6,50,-1,50,6,14,-1,50,14,48,-1,14,17,48,-1,48,17,20,-1,48,20,46,-1,46,20,22,-1,46,22,44,-1,44,22,42,-1,56,57,58,-1,58,57,59,-1,57,60,59,-1,59,60,61,-1,59,61,62,-1,62,61,63,-1,62,63,64,-1,64,63,65,-1,64,65,66,-1,66,65,67,-1,66,67,68,-1,68,67,69,-1,68,69,70,-1,70,69,71,-1,70,71,72,-1,72,71,73,-1,72,73,74,-1,74,73,75,-1,74,75,76,-1,76,75,77,-1,76,77,78,-1,78,77,79,-1,78,79,80,-1,80,79,81,-1,80,81,82,-1,82,81,83,-1,82,83,84,-1,84,83,85,-1,84,85,86,-1,86,85,87,-1,86,87,88,-1,88,87,89,-1,88,89,90,-1,90,89,91,-1,90,91,92,-1,92,91,93,-1,92,93,94,-1,94,93,95,-1,94,95,96,-1,96,95,97,-1,96,97,98,-1,98,97,99,-1,98,99,100,-1,100,99,101,-1,100,101,102,-1,102,101,103,-1,102,103,104,-1,104,103,105,-1,104,105,106,-1,106,105,107,-1,106,107,108,-1,108,107,109,-1,108,109,110,-1,110,109,111,-1,110,111,112,-1,112,111,113,-1,112,113,114,-1,114,113,115,-1,114,115,116,-1,117,116,118,-1,118,116,115,-1,117,118,119,-1,117,119,120,-1,120,119,121,-1,120,121,122,-1,122,121,123,-1,122,123,124,-1,124,123,125,-1,124,125,126,-1,126,125,127,-1,126,127,128,-1,127,129,128,-1,128,129,130,-1,129,131,130,-1,130,131,132,-1,130,132,133,-1,133,132,134,-1,133,134,135,-1,135,134,136,-1,135,136,137,-1,137,136,138,-1,137,138,139,-1,139,138,140,-1,139,140,141,-1,141,140,142,-1,141,142,143,-1,144,145,146,-1,143,142,147,-1,143,147,148,-1,148,147,149,-1,148,149,146,-1,146,149,150,-1,146,150,144,-1,145,144,151,-1,145,151,152,-1,152,151,153,-1,152,153,154,-1,154,153,155,-1,154,155,156,-1,156,155,157,-1,156,157,158,-1,158,157,159,-1,158,159,160,-1,160,159,161,-1,160,161,162,-1,162,161,163,-1,162,163,164,-1,164,163,165,-1,164,165,166,-1,166,165,167,-1,166,167,168,-1,168,167,169,-1,168,169,170,-1,170,169,171,-1,170,171,172,-1,172,171,173,-1,172,173,174,-1,174,173,175,-1,174,175,176,-1,176,175,177,-1,176,177,178,-1,179,180,181,-1,178,177,182,-1,178,182,183,-1,183,182,184,-1,183,184,181,-1,181,184,185,-1,181,185,179,-1,186,180,187,-1,187,180,179,-1,187,188,186,-1,186,188,189,-1,56,58,190,-1,190,58,189,-1,190,189,191,-1,191,189,188,-1,102,104,126,-1,126,104,124,-1,166,66,68,-1,152,84,145,-1,145,84,86,-1,166,68,164,-1,164,68,70,-1,164,70,162,-1,162,70,72,-1,162,72,160,-1,160,72,74,-1,160,74,158,-1,158,74,76,-1,158,76,156,-1,156,76,78,-1,156,78,154,-1,154,78,80,-1,154,80,152,-1,152,80,82,-1,152,82,84,-1,66,166,64,-1,64,166,168,-1,64,168,62,-1,58,178,189,-1,189,178,183,-1,189,183,186,-1,186,183,181,-1,186,181,180,-1,104,106,124,-1,124,106,108,-1,124,108,122,-1,122,108,110,-1,122,110,120,-1,120,110,112,-1,120,112,117,-1,117,112,114,-1,117,114,116,-1,168,170,62,-1,62,170,172,-1,62,172,59,-1,59,172,174,-1,59,174,58,-1,58,174,176,-1,58,176,178,-1,126,128,102,-1,102,128,130,-1,102,130,100,-1,100,130,133,-1,100,133,98,-1,98,133,135,-1,98,135,96,-1,96,135,137,-1,96,137,94,-1,94,137,139,-1,94,139,92,-1,92,139,141,-1,92,141,90,-1,90,141,143,-1,90,143,88,-1,88,143,148,-1,88,148,86,-1,86,148,146,-1,86,146,145,-1,192,193,194,-1,194,193,195,-1,196,197,198,-1,199,200,195,-1,195,200,201,-1,202,203,204,-1,204,203,205,-1,201,206,195,-1,195,206,207,-1,195,207,194,-1,194,207,208,-1,194,208,202,-1,202,208,209,-1,202,209,203,-1,210,211,212,-1,212,211,213,-1,212,213,214,-1,214,213,215,-1,214,215,216,-1,216,215,217,-1,216,217,218,-1,218,217,219,-1,218,219,220,-1,198,199,196,-1,196,199,195,-1,196,195,221,-1,221,195,222,-1,221,222,223,-1,223,222,224,-1,223,224,225,-1,225,224,226,-1,225,226,227,-1,227,226,228,-1,227,228,229,-1,229,228,230,-1,229,230,231,-1,231,230,232,-1,231,232,233,-1,233,232,234,-1,233,234,235,-1,235,234,236,-1,235,236,237,-1,237,236,238,-1,237,238,239,-1,239,238,240,-1,219,241,220,-1,220,241,242,-1,220,242,243,-1,243,242,244,-1,243,244,205,-1,205,244,245,-1,205,245,204,-1,246,247,248,-1,248,247,249,-1,248,249,250,-1,250,249,251,-1,250,251,210,-1,210,251,252,-1,210,252,211,-1,196,253,197,-1,197,253,254,-1,197,254,255,-1,255,254,256,-1,255,256,257,-1,257,256,258,-1,257,258,259,-1,259,258,260,-1,259,260,246,-1,246,260,261,-1,246,261,247,-1,233,262,263,-1,233,263,231,-1,231,263,264,-1,231,264,229,-1,229,264,265,-1,229,265,227,-1,227,265,266,-1,227,266,225,-1,225,266,267,-1,225,267,223,-1,223,267,268,-1,223,268,221,-1,221,268,269,-1,221,269,196,-1,253,196,270,-1,270,196,269,-1,253,270,271,-1,253,271,254,-1,254,271,272,-1,254,272,256,-1,256,272,273,-1,256,273,258,-1,258,273,274,-1,258,274,260,-1,260,274,275,-1,260,275,261,-1,261,275,276,-1,261,276,247,-1,247,276,277,-1,247,277,249,-1,249,277,278,-1,249,278,251,-1,251,278,279,-1,251,279,252,-1,252,279,280,-1,252,280,211,-1,211,280,281,-1,211,281,213,-1,282,241,219,-1,213,281,283,-1,213,283,215,-1,215,283,284,-1,215,284,217,-1,217,284,285,-1,217,285,219,-1,219,285,286,-1,219,286,282,-1,241,282,287,-1,241,287,242,-1,242,287,288,-1,242,288,244,-1,244,288,289,-1,244,289,245,-1,245,289,290,-1,245,290,204,-1,204,290,291,-1,204,291,202,-1,194,202,292,-1,292,202,291,-1,192,194,293,-1,293,194,292,-1,193,192,294,-1,294,192,293,-1,195,193,295,-1,295,193,294,-1,195,295,296,-1,195,296,222,-1,222,296,297,-1,222,297,224,-1,224,297,298,-1,224,298,226,-1,226,298,299,-1,226,299,228,-1,228,299,300,-1,228,300,230,-1,230,300,301,-1,230,301,232,-1,232,301,302,-1,232,302,234,-1,234,302,303,-1,234,303,236,-1,236,303,304,-1,236,304,238,-1,238,304,305,-1,238,305,240,-1,239,240,306,-1,306,240,305,-1,239,306,307,-1,239,307,237,-1,237,307,308,-1,237,308,235,-1,235,308,262,-1,235,262,233,-1,209,309,310,-1,209,310,203,-1,203,310,311,-1,203,311,205,-1,205,311,312,-1,205,312,243,-1,243,312,313,-1,243,313,220,-1,201,314,315,-1,201,315,206,-1,206,315,316,-1,206,316,207,-1,207,316,317,-1,207,317,208,-1,208,317,309,-1,208,309,209,-1,201,200,314,-1,314,200,318,-1,200,199,318,-1,318,199,319,-1,255,320,321,-1,255,321,197,-1,197,321,322,-1,197,322,198,-1,198,322,319,-1,198,319,199,-1,248,323,324,-1,248,324,246,-1,246,324,325,-1,246,325,259,-1,259,325,326,-1,259,326,257,-1,257,326,320,-1,257,320,255,-1,214,327,328,-1,214,328,212,-1,212,328,329,-1,212,329,210,-1,210,329,330,-1,210,330,250,-1,250,330,323,-1,250,323,248,-1,220,313,331,-1,220,331,218,-1,218,331,332,-1,218,332,216,-1,216,332,327,-1,216,327,214,-1,
        ]
    }
}
Shape{
    appearance Appearance {
        material  Material 	{
            diffuseColor 0.20784313725490197 0.20784313725490197 0.20784313725490197
            specularColor 0.01568627450980392 0.01568627450980392 0.01568627450980392
            ambientIntensity 0.298
            transparency 0.0
            shininess 0.5
        }
    }
    geometry IndexedFaceSet {
        ccw TRUE
        solid FALSE
        coord DEF co Coordinate {
            point [
                0.2099 0.173 0.3346, 0.2045 0.1723 0.3346, 0.2099 0.1708 0.3346, 0.2021 0.1717 0.3346, 0.2012 0.1713 0.3346, 0.2006 0.1709 0.3346, 0.2099 0.1705 0.3346, 0.2096 0.1687 0.3346, 0.2001 0.1703 0.3346, 0.2091 0.1673 0.3346, 0.2004 0.1656 0.3346, 0.2007 0.1653 0.3346, 0.2077 0.1656 0.3346, 0.1999 0.1663 0.3346, 0.2066 0.1649 0.3346, 0.2053 0.1644 0.3346, 0.2038 0.1642 0.3346, 0.1998 0.1695 0.3346, 0.1996 0.1686 0.3346, 0.2082 0.1661 0.3346, 0.1996 0.1679 0.3346, 0.1997 0.167 0.3346, 0.2015 0.1647 0.3346, 0.2024 0.1644 0.3346
            ]
        }
        coordIndex [
            0,1,2,-1,2,1,3,-1,3,4,2,-1,2,4,5,-1,2,5,6,-1,6,5,7,-1,7,5,8,-1,7,8,9,-1,10,11,12,-1,10,12,13,-1,14,12,15,-1,15,12,16,-1,8,17,9,-1,9,17,18,-1,9,18,19,-1,19,18,20,-1,19,20,12,-1,12,20,21,-1,12,21,13,-1,11,22,12,-1,12,22,23,-1,12,23,16,-1,
        ]
    }
}
Shape{
    appearance Appearance {
        material  Material 	{
            diffuseColor 1.0 1.0 1.0
            specularColor 0.8784313725490196 0.8784313725490196 0.8784313725490196
            ambientIntensity 1.0
            transparency 0.0
            shininess 0.5
        }
    }
    geometry IndexedFaceSet {
        ccw TRUE
        solid FALSE
        coord DEF co Coordinate {
            point [
                0.0322 0.1569 0.3386, 0.0356 0.1527 0.3386, 0.0302 0.1771 0.3386, 0.1136 0.214 0.3386, 0.1141 0.211 0.3386, 0.1253 0.2233 0.3386, 0.0262 0.2169 0.3386, 0.0313 0.2196 0.3386, 0.03 0.2337 0.3386, 0.0745 0.1691 0.3386, 0.0745 0.1714 0.3386, 0.0551 0.177 0.3386, 0.053 0.1777 0.3386, 0.0391 0.2348 0.3386, 0.0586 0.1743 0.3386, 0.0596 0.1724 0.3386, 0.0744 0.1668 0.3386, 0.1066 0.1883 0.3386, 0.0995 0.2005 0.3386, 0.0688 0.1845 0.3386, 0.0514 0.1778 0.3386, 0.0493 0.1776 0.3386, 0.0462 0.1916 0.3386, 0.0473 0.1768 0.3386, 0.0412 0.1896 0.3386, 0.0455 0.1755 0.3386, 0.0365 0.1864 0.3386, 0.0444 0.1743 0.3386, 0.0327 0.1821 0.3386, 0.0432 0.1724 0.3386, 0.0426 0.1702 0.3386, 0.06 0.1907 0.3386, 0.0545 0.1921 0.3386, 0.0517 0.1922 0.3386, 0.0443 0.2343 0.3386, 0.0514 0.2176 0.3386, 0.0543 0.2238 0.3386, 0.0252 0.1802 0.3386, 0.027 0.1627 0.3386, 0.0299 0.1618 0.3386, 0.057 0.1758 0.3386, 0.0454 0.1623 0.3386, 0.0472 0.161 0.3386, 0.0401 0.1493 0.3386, 0.0493 0.1602 0.3386, 0.049 0.2398 0.3386, 0.0592 0.2301 0.3386, 0.0544 0.2444 0.3386, 0.0654 0.235 0.3386, 0.06 0.2478 0.3386, 0.037 0.2209 0.3386, 0.0393 0.2211 0.3386, 0.0417 0.2346 0.3386, 0.0446 0.2204 0.3386, 0.0497 0.2186 0.3386, 0.0648 0.1881 0.3386, 0.1159 0.211 0.3386, 0.1203 0.2105 0.3386, 0.1274 0.2226 0.3386, 0.1243 0.2089 0.3386, 0.1341 0.219 0.3386, 0.1278 0.2065 0.3386, 0.1401 0.2136 0.3386, 0.1305 0.2035 0.3386, 0.1446 0.207 0.3386, 0.1326 0.1995 0.3386, 0.1471 0.1999 0.3386, 0.1337 0.1951 0.3386, 0.148 0.1934 0.3386, 0.1338 0.1932 0.3386, 0.1479 0.1916 0.3386, 0.1332 0.1887 0.3386, 0.1046 0.1614 0.3386, 0.1052 0.1614 0.3386, 0.107 0.1753 0.3386, 0.0705 0.2519 0.3386, 0.0728 0.2383 0.3386, 0.0819 0.2533 0.3386, 0.0171 0.2037 0.3386, 0.0021 0.1999 0.3386, 0.0164 0.1982 0.3386, 0.002 0.1977 0.3386, 0.0167 0.1948 0.3386, 0.0031 0.1887 0.3386, 0.0183 0.1892 0.3386, 0.0064 0.1802 0.3386, 0.0211 0.1844 0.3386, 0.0116 0.1728 0.3386, 0.0187 0.1667 0.3386, 0.044 0.164 0.3386, 0.043 0.1659 0.3386, 0.0426 0.168 0.3386, 0.1173 0.1753 0.3386, 0.1187 0.1614 0.3386, 0.1214 0.1761 0.3386, 0.1253 0.1626 0.3386, 0.1254 0.1779 0.3386, 0.1324 0.1658 0.3386, 0.1288 0.1807 0.3386, 0.1384 0.1706 0.3386, 0.1291 0.1811 0.3386, 0.1395 0.1717 0.3386, 0.1317 0.1846 0.3386, 0.1435 0.177 0.3386, 0.1466 0.1842 0.3386, 0.0216 0.2304 0.3386, 0.0143 0.2252 0.3386, 0.0222 0.2134 0.3386, 0.0128 0.2238 0.3386, 0.0191 0.2088 0.3386, 0.0072 0.2167 0.3386, 0.0036 0.2085 0.3386, 0.0602 0.1703 0.3386, 0.0603 0.1681 0.3386, 0.0731 0.1612 0.3386, 0.0598 0.1659 0.3386, 0.0704 0.1561 0.3386, 0.0588 0.1639 0.3386, 0.0668 0.1521 0.3386, 0.0574 0.1622 0.3386, 0.0623 0.1489 0.3386, 0.0556 0.161 0.3386, 0.0572 0.1469 0.3386, 0.0536 0.1603 0.3386, 0.0517 0.1463 0.3386, 0.0514 0.16 0.3386, 0.0508 0.1463 0.3386, 0.0454 0.1471 0.3386, 0.0804 0.2395 0.3386, 0.0821 0.2396 0.3386, 0.0913 0.2523 0.3386, 0.0888 0.2389 0.3386, 0.1028 0.2483 0.3386, 0.096 0.2364 0.3386, 0.113 0.2414 0.3386, 0.1026 0.2322 0.3386, 0.1205 0.2328 0.3386, 0.1064 0.2284 0.3386, 0.1109 0.2217 0.3386, 0.0987 0.1669 0.3386, 0.0993 0.1654 0.3386, 0.1059 0.1755 0.3386, 0.1002 0.1639 0.3386, 0.1014 0.1628 0.3386, 0.0986 0.1684 0.3386, 0.1056 0.1755 0.3386, 0.0986 0.1692 0.3386, 0.1041 0.1754 0.3386, 0.1025 0.1748 0.3386, 0.1066 0.1754 0.3386, 0.103 0.1619 0.3386, 0.1011 0.1739 0.3386, 0.0999 0.1726 0.3386, 0.099 0.171 0.3386, 0.148 0.1934 0.3346, 0.1471 0.1999 0.3346, 0.1446 0.207 0.3346, 0.141 0.2122 0.3346, 0.1401 0.2136 0.3346, 0.1341 0.219 0.3346, 0.1274 0.2226 0.3346, 0.1253 0.2233 0.3346, 0.1205 0.2328 0.3346, 0.113 0.2414 0.3346, 0.1077 0.245 0.3346, 0.1028 0.2483 0.3346, 0.0913 0.2523 0.3346, 0.0819 0.2533 0.3346, 0.0544 0.2444 0.3346, 0.0553 0.245 0.3346, 0.06 0.2478 0.3346, 0.0705 0.2519 0.3346, 0.049 0.2398 0.3346, 0.0443 0.2343 0.3346, 0.0417 0.2346 0.3346, 0.0391 0.2348 0.3346, 0.03 0.2337 0.3346, 0.0216 0.2304 0.3346, 0.0143 0.2252 0.3346, 0.0128 0.2238 0.3346, 0.0072 0.2167 0.3346, 0.0053 0.2122 0.3346, 0.0036 0.2085 0.3346, 0.0021 0.1999 0.3346, 0.002 0.1977 0.3346, 0.0031 0.1893 0.3346, 0.0031 0.1887 0.3346, 0.0064 0.1802 0.3346, 0.0116 0.1728 0.3346, 0.0187 0.1667 0.3346, 0.027 0.1627 0.3346, 0.0299 0.1618 0.3346, 0.0302 0.1612 0.3346, 0.0322 0.1569 0.3346, 0.0356 0.1527 0.3346, 0.0401 0.1493 0.3346, 0.0422 0.1485 0.3346, 0.0454 0.1471 0.3346, 0.0508 0.1463 0.3346, 0.0517 0.1463 0.3346, 0.0745 0.1691 0.3346, 0.0572 0.1469 0.3346, 0.0611 0.1485 0.3346, 0.0623 0.1489 0.3346, 0.0668 0.1521 0.3346, 0.0704 0.1561 0.3346, 0.0731 0.1612 0.3346, 0.0731 0.1612 0.3346, 0.0744 0.1668 0.3346, 0.0745 0.1714 0.3346, 0.1066 0.1883 0.3346, 0.0995 0.2005 0.3346, 0.106 0.1893 0.3346, 0.0781 0.1893 0.3346, 0.0688 0.1845 0.3346, 0.0648 0.1881 0.3346, 0.0626 0.1893 0.3346, 0.06 0.1907 0.3346, 0.0545 0.1921 0.3346, 0.0517 0.1922 0.3346, 0.0462 0.1916 0.3346, 0.0412 0.1896 0.3346, 0.0407 0.1893 0.3346, 0.0365 0.1864 0.3346, 0.0327 0.1821 0.3346, 0.0302 0.1771 0.3346, 0.0164 0.1982 0.3346, 0.0252 0.1802 0.3346, 0.0211 0.1844 0.3346, 0.0183 0.1892 0.3346, 0.0183 0.1893 0.3346, 0.0167 0.1948 0.3346, 0.0171 0.2037 0.3346, 0.0191 0.2088 0.3346, 0.0214 0.2122 0.3346, 0.0222 0.2134 0.3346, 0.0262 0.2169 0.3346, 0.0313 0.2196 0.3346, 0.037 0.2209 0.3346, 0.0393 0.2211 0.3346, 0.0446 0.2204 0.3346, 0.0497 0.2186 0.3346, 0.0514 0.2176 0.3346, 0.0543 0.2238 0.3346, 0.0592 0.2301 0.3346, 0.0654 0.235 0.3346, 0.0728 0.2383 0.3346, 0.0804 0.2395 0.3346, 0.0821 0.2396 0.3346, 0.1141 0.211 0.3346, 0.1139 0.2122 0.3346, 0.1136 0.214 0.3346, 0.1109 0.2217 0.3346, 0.1064 0.2284 0.3346, 0.1026 0.2322 0.3346, 0.096 0.2364 0.3346, 0.0888 0.2389 0.3346, 0.1159 0.211 0.3346, 0.1203 0.2105 0.3346, 0.1243 0.2089 0.3346, 0.1278 0.2065 0.3346, 0.1305 0.2035 0.3346, 0.1326 0.1995 0.3346, 0.1337 0.1951 0.3346, 0.1338 0.1932 0.3346, 0.1333 0.1893 0.3346, 0.1332 0.1887 0.3346, 0.1317 0.1846 0.3346, 0.1291 0.1811 0.3346, 0.1288 0.1807 0.3346, 0.1254 0.1779 0.3346, 0.1214 0.1761 0.3346, 0.1173 0.1753 0.3346, 0.107 0.1753 0.3346, 0.1066 0.1754 0.3346, 0.1059 0.1755 0.3346, 0.1056 0.1755 0.3346, 0.1041 0.1754 0.3346, 0.1025 0.1748 0.3346, 0.1011 0.1739 0.3346, 0.0999 0.1726 0.3346, 0.099 0.171 0.3346, 0.0986 0.1692 0.3346, 0.0986 0.1684 0.3346, 0.0987 0.1669 0.3346, 0.0993 0.1654 0.3346, 0.1002 0.1639 0.3346, 0.1014 0.1628 0.3346, 0.103 0.1619 0.3346, 0.1046 0.1614 0.3346, 0.1052 0.1614 0.3346, 0.1187 0.1614 0.3346, 0.1253 0.1626 0.3346, 0.1324 0.1658 0.3346, 0.1384 0.1706 0.3346, 0.1395 0.1717 0.3346, 0.1466 0.1842 0.3346, 0.1435 0.177 0.3346, 0.1475 0.1893 0.3346, 0.1479 0.1916 0.3346, 0.0514 0.1778 0.3346, 0.053 0.1777 0.3346, 0.0551 0.177 0.3346, 0.057 0.1758 0.3346, 0.0586 0.1743 0.3346, 0.0596 0.1724 0.3346, 0.0602 0.1703 0.3346, 0.0603 0.1681 0.3346, 0.0598 0.1659 0.3346, 0.0588 0.1639 0.3346, 0.0574 0.1622 0.3346, 0.0556 0.161 0.3346, 0.0536 0.1603 0.3346, 0.0514 0.16 0.3346, 0.0493 0.1602 0.3346, 0.0472 0.161 0.3346, 0.0454 0.1623 0.3346, 0.044 0.164 0.3346, 0.043 0.1659 0.3346, 0.0426 0.168 0.3346, 0.0426 0.1702 0.3346, 0.0432 0.1724 0.3346, 0.0444 0.1743 0.3346, 0.0455 0.1755 0.3346, 0.0473 0.1768 0.3346, 0.0493 0.1776 0.3346
            ]
        }
        coordIndex [
            0,1,2,-1,3,4,5,-1,6,7,8,-1,9,10,11,-1,11,10,12,-1,8,7,13,-1,14,15,16,-1,17,18,10,-1,10,18,19,-1,10,19,12,-1,12,19,20,-1,21,22,23,-1,23,22,24,-1,23,24,25,-1,25,24,26,-1,25,26,27,-1,27,26,28,-1,27,28,29,-1,29,28,2,-1,29,2,30,-1,31,32,21,-1,21,32,33,-1,21,33,22,-1,34,35,36,-1,37,38,2,-1,2,38,39,-1,2,39,0,-1,9,11,16,-1,16,11,40,-1,16,40,14,-1,41,1,42,-1,42,1,43,-1,42,43,44,-1,34,36,45,-1,45,36,46,-1,45,46,47,-1,47,46,48,-1,47,48,49,-1,7,50,13,-1,13,50,51,-1,13,51,52,-1,52,51,53,-1,52,53,34,-1,34,53,54,-1,34,54,35,-1,20,19,21,-1,21,19,55,-1,21,55,31,-1,4,56,5,-1,5,56,57,-1,5,57,58,-1,58,57,59,-1,58,59,60,-1,60,59,61,-1,60,61,62,-1,62,61,63,-1,62,63,64,-1,64,63,65,-1,64,65,66,-1,66,65,67,-1,66,67,68,-1,68,67,69,-1,68,69,70,-1,70,69,71,-1,72,73,74,-1,49,48,75,-1,75,48,76,-1,75,76,77,-1,78,79,80,-1,80,79,81,-1,80,81,82,-1,82,81,83,-1,82,83,84,-1,84,83,85,-1,84,85,86,-1,86,85,87,-1,86,87,37,-1,37,87,88,-1,37,88,38,-1,41,89,1,-1,1,89,90,-1,1,90,2,-1,2,90,91,-1,2,91,30,-1,74,73,92,-1,92,73,93,-1,92,93,94,-1,94,93,95,-1,94,95,96,-1,96,95,97,-1,96,97,98,-1,98,97,99,-1,98,99,100,-1,100,99,101,-1,100,101,102,-1,102,101,103,-1,102,103,71,-1,71,103,104,-1,71,104,70,-1,8,105,6,-1,6,105,106,-1,6,106,107,-1,107,106,108,-1,107,108,109,-1,109,108,110,-1,109,110,78,-1,78,110,111,-1,78,111,79,-1,15,112,16,-1,16,112,113,-1,16,113,114,-1,114,113,115,-1,114,115,116,-1,116,115,117,-1,116,117,118,-1,118,117,119,-1,118,119,120,-1,120,119,121,-1,120,121,122,-1,122,121,123,-1,122,123,124,-1,124,123,125,-1,124,125,126,-1,126,125,44,-1,126,44,127,-1,127,44,43,-1,76,128,77,-1,77,128,129,-1,77,129,130,-1,130,129,131,-1,130,131,132,-1,132,131,133,-1,132,133,134,-1,134,133,135,-1,134,135,136,-1,136,135,137,-1,136,137,5,-1,5,137,138,-1,5,138,3,-1,139,140,141,-1,141,140,142,-1,141,142,143,-1,139,141,144,-1,144,141,145,-1,144,145,146,-1,146,145,147,-1,146,147,148,-1,74,149,72,-1,72,149,141,-1,72,141,150,-1,150,141,143,-1,148,151,146,-1,146,151,152,-1,146,152,153,-1,68,154,155,-1,68,155,66,-1,66,155,156,-1,66,156,64,-1,64,156,157,-1,64,157,62,-1,157,158,62,-1,62,158,159,-1,62,159,60,-1,60,159,160,-1,60,160,58,-1,58,160,161,-1,58,161,5,-1,5,161,162,-1,5,162,136,-1,136,162,163,-1,136,163,134,-1,134,163,132,-1,132,163,164,-1,164,165,132,-1,132,165,166,-1,132,166,130,-1,130,166,167,-1,130,167,77,-1,168,47,169,-1,169,47,49,-1,169,49,170,-1,170,49,75,-1,170,75,171,-1,171,75,77,-1,171,77,167,-1,47,168,172,-1,47,172,45,-1,45,172,173,-1,45,173,34,-1,34,173,174,-1,34,174,52,-1,52,174,175,-1,52,175,13,-1,13,175,176,-1,13,176,8,-1,8,176,177,-1,8,177,105,-1,105,177,178,-1,105,178,106,-1,106,178,179,-1,106,179,108,-1,108,179,180,-1,181,111,180,-1,180,111,110,-1,180,110,108,-1,181,182,111,-1,111,182,183,-1,111,183,79,-1,79,183,184,-1,79,184,81,-1,184,185,81,-1,81,185,83,-1,185,186,83,-1,83,186,187,-1,83,187,85,-1,85,187,188,-1,85,188,87,-1,87,188,189,-1,87,189,88,-1,88,189,190,-1,88,190,38,-1,38,190,191,-1,38,191,39,-1,39,191,192,-1,39,192,0,-1,192,193,0,-1,0,193,194,-1,0,194,1,-1,1,194,195,-1,1,195,43,-1,43,195,196,-1,43,196,127,-1,196,197,127,-1,127,197,198,-1,127,198,126,-1,126,198,199,-1,126,199,124,-1,200,9,16,-1,124,199,201,-1,124,201,122,-1,122,201,202,-1,122,202,120,-1,202,203,120,-1,120,203,204,-1,120,204,118,-1,118,204,205,-1,118,205,116,-1,116,205,206,-1,116,206,114,-1,114,206,207,-1,114,207,16,-1,16,207,208,-1,16,208,200,-1,10,9,209,-1,209,9,200,-1,17,10,210,-1,210,10,209,-1,211,18,212,-1,212,18,17,-1,212,17,210,-1,18,211,19,-1,19,211,213,-1,19,213,214,-1,19,214,215,-1,19,215,55,-1,55,215,216,-1,55,216,31,-1,216,217,31,-1,31,217,218,-1,31,218,32,-1,32,218,219,-1,32,219,33,-1,33,219,220,-1,33,220,22,-1,22,220,221,-1,22,221,24,-1,24,221,222,-1,24,222,26,-1,222,223,26,-1,26,223,224,-1,26,224,28,-1,28,224,225,-1,28,225,2,-1,226,80,82,-1,2,225,227,-1,2,227,37,-1,37,227,228,-1,37,228,86,-1,86,228,229,-1,86,229,84,-1,84,229,230,-1,84,230,82,-1,82,230,231,-1,82,231,226,-1,80,226,232,-1,80,232,78,-1,78,232,233,-1,78,233,109,-1,109,233,234,-1,109,234,107,-1,234,235,107,-1,107,235,236,-1,107,236,6,-1,6,236,237,-1,6,237,7,-1,7,237,238,-1,7,238,50,-1,50,238,239,-1,50,239,51,-1,51,239,240,-1,51,240,53,-1,53,240,241,-1,53,241,54,-1,54,241,242,-1,54,242,35,-1,35,242,243,-1,35,243,36,-1,36,243,244,-1,36,244,46,-1,46,244,245,-1,46,245,48,-1,48,245,246,-1,48,246,76,-1,76,246,247,-1,76,247,128,-1,128,247,248,-1,128,248,129,-1,249,4,250,-1,250,4,3,-1,250,3,251,-1,251,3,138,-1,251,138,252,-1,252,138,137,-1,252,137,253,-1,253,137,135,-1,253,135,254,-1,254,135,133,-1,254,133,255,-1,255,133,131,-1,255,131,256,-1,256,131,129,-1,256,129,248,-1,56,4,257,-1,257,4,249,-1,56,257,258,-1,56,258,57,-1,57,258,259,-1,57,259,59,-1,59,259,260,-1,59,260,61,-1,61,260,261,-1,61,261,63,-1,63,261,262,-1,63,262,65,-1,65,262,263,-1,65,263,67,-1,67,263,264,-1,67,264,69,-1,264,265,69,-1,69,265,71,-1,265,266,71,-1,71,266,267,-1,71,267,102,-1,102,267,268,-1,102,268,100,-1,100,268,269,-1,100,269,98,-1,98,269,270,-1,98,270,96,-1,96,270,271,-1,96,271,94,-1,94,271,272,-1,94,272,92,-1,74,92,273,-1,273,92,272,-1,74,273,274,-1,74,274,149,-1,149,274,275,-1,149,275,141,-1,141,275,276,-1,141,276,145,-1,145,276,277,-1,145,277,147,-1,147,277,278,-1,147,278,148,-1,148,278,279,-1,148,279,151,-1,151,279,280,-1,151,280,152,-1,152,280,281,-1,152,281,153,-1,153,281,282,-1,153,282,146,-1,146,282,283,-1,146,283,144,-1,144,283,284,-1,144,284,139,-1,139,284,285,-1,139,285,140,-1,140,285,286,-1,140,286,142,-1,142,286,287,-1,142,287,143,-1,143,287,288,-1,143,288,150,-1,150,288,289,-1,150,289,72,-1,72,289,290,-1,72,290,73,-1,93,73,291,-1,291,73,290,-1,93,291,292,-1,93,292,95,-1,95,292,293,-1,95,293,97,-1,97,293,294,-1,97,294,99,-1,99,294,295,-1,99,295,101,-1,296,103,297,-1,297,103,101,-1,297,101,295,-1,298,70,296,-1,296,70,104,-1,296,104,103,-1,298,299,70,-1,70,299,154,-1,70,154,68,-1,20,300,301,-1,20,301,12,-1,12,301,302,-1,12,302,11,-1,11,302,303,-1,11,303,40,-1,40,303,304,-1,40,304,14,-1,14,304,305,-1,14,305,15,-1,15,305,306,-1,15,306,112,-1,112,306,307,-1,112,307,113,-1,113,307,308,-1,113,308,115,-1,115,308,309,-1,115,309,117,-1,117,309,310,-1,117,310,119,-1,119,310,311,-1,119,311,121,-1,121,311,312,-1,121,312,123,-1,123,312,313,-1,123,313,125,-1,125,313,314,-1,125,314,44,-1,44,314,315,-1,44,315,42,-1,42,315,316,-1,42,316,41,-1,41,316,317,-1,41,317,89,-1,89,317,318,-1,89,318,90,-1,90,318,319,-1,90,319,91,-1,91,319,320,-1,91,320,30,-1,30,320,321,-1,30,321,29,-1,29,321,322,-1,29,322,27,-1,27,322,323,-1,27,323,25,-1,25,323,324,-1,25,324,23,-1,23,324,325,-1,23,325,21,-1,21,325,300,-1,21,300,20,-1,
        ]
    }
}
Shape{
    appearance Appearance {
        material  Material 	{
            diffuseColor 0.20784313725490197 0.20784313725490197 0.20784313725490197
            specularColor 0.01568627450980392 0.01568627450980392 0.01568627450980392
            ambientIntensity 0.298
            transparency 0.0
            shininess 0.5
        }
    }
    geometry IndexedFaceSet {
        ccw TRUE
        solid FALSE
        coord DEF co Coordinate {
            point [
                0.0514 0.16 0.3346, 0.0455 0.1755 0.3346, 0.0444 0.1743 0.3346, 0.0514 0.1778 0.3346, 0.053 0.1777 0.3346, 0.0536 0.1603 0.3346, 0.0493 0.1776 0.3346, 0.0473 0.1768 0.3346, 0.0574 0.1622 0.3346, 0.0586 0.1743 0.3346, 0.057 0.1758 0.3346, 0.043 0.1659 0.3346, 0.044 0.164 0.3346, 0.0454 0.1623 0.3346, 0.0556 0.161 0.3346, 0.0551 0.177 0.3346, 0.0432 0.1724 0.3346, 0.0426 0.1702 0.3346, 0.0426 0.168 0.3346, 0.0472 0.161 0.3346, 0.0493 0.1602 0.3346, 0.0598 0.1659 0.3346, 0.0603 0.1681 0.3346, 0.0588 0.1639 0.3346, 0.0602 0.1703 0.3346, 0.0596 0.1724 0.3346
            ]
        }
        coordIndex [
            0,1,2,-1,3,0,4,-1,4,0,5,-1,3,6,0,-1,0,6,7,-1,0,7,1,-1,8,9,10,-1,11,12,2,-1,2,12,13,-1,5,14,4,-1,4,14,8,-1,4,8,15,-1,15,8,10,-1,16,17,2,-1,2,17,18,-1,2,18,11,-1,13,19,2,-1,2,19,20,-1,2,20,0,-1,21,22,23,-1,23,22,24,-1,23,24,8,-1,8,24,25,-1,8,25,9,-1,
        ]
    }
}
Shape{
    appearance Appearance {
        material  Material 	{
            diffuseColor 1.0 1.0 1.0
            specularColor 0.8784313725490196 0.8784313725490196 0.8784313725490196
            ambientIntensity 1.0
            transparency 0.0
            shininess 0.5
        }
    }
    geometry IndexedFaceSet {
        ccw TRUE
        solid FALSE
        coord DEF co Coordinate {
            point [
                0.2659 0.2369 0.3386, 0.2689 0.2394 0.3386, 0.2648 0.238 0.3386, 0.2678 0.2404 0.3386, 0.2625 0.2395 0.3386, 0.2645 0.2427 0.3386, 0.2597 0.2405 0.3386, 0.2606 0.2441 0.3386, 0.2555 0.241 0.3386, 0.2557 0.2447 0.3386, 0.2507 0.241 0.3386, 0.2465 0.2447 0.3386, 0.2507 0.2162 0.3386, 0.2465 0.2125 0.3386, 0.2553 0.2162 0.3386, 0.2554 0.2125 0.3386, 0.2594 0.2166 0.3386, 0.2604 0.2131 0.3386, 0.2622 0.2176 0.3386, 0.2641 0.2144 0.3386, 0.2643 0.219 0.3386, 0.2673 0.2165 0.3386, 0.2649 0.2195 0.3386, 0.2678 0.217 0.3386, 0.2665 0.2215 0.3386, 0.2702 0.2199 0.3386, 0.2676 0.2239 0.3386, 0.2718 0.2232 0.3386, 0.2682 0.2269 0.3386, 0.2726 0.227 0.3386, 0.2683 0.2289 0.3386, 0.2727 0.229 0.3386, 0.2679 0.2326 0.3386, 0.2721 0.2335 0.3386, 0.2671 0.235 0.3386, 0.2709 0.2366 0.3386, 0.2678 0.217 0.3346, 0.2702 0.2199 0.3346, 0.2718 0.2232 0.3346, 0.2726 0.227 0.3346, 0.2727 0.229 0.3346, 0.2721 0.2335 0.3346, 0.2709 0.2366 0.3346, 0.2689 0.2394 0.3346, 0.2678 0.2404 0.3346, 0.2557 0.2447 0.3346, 0.2645 0.2427 0.3346, 0.2612 0.2439 0.3346, 0.2606 0.2441 0.3346, 0.2465 0.2447 0.3346, 0.2465 0.2125 0.3346, 0.2554 0.2125 0.3346, 0.2604 0.2131 0.3346, 0.2612 0.2134 0.3346, 0.2641 0.2144 0.3346, 0.2673 0.2165 0.3346, 0.2648 0.238 0.3346, 0.2659 0.2369 0.3346, 0.2671 0.235 0.3346, 0.2679 0.2326 0.3346, 0.2683 0.2289 0.3346, 0.2555 0.241 0.3346, 0.2597 0.2405 0.3346, 0.2625 0.2395 0.3346, 0.2507 0.241 0.3346, 0.2507 0.2162 0.3346, 0.2553 0.2162 0.3346, 0.2649 0.2195 0.3346, 0.2643 0.219 0.3346, 0.2622 0.2176 0.3346, 0.2594 0.2166 0.3346, 0.2682 0.2269 0.3346, 0.2676 0.2239 0.3346, 0.2665 0.2215 0.3346
            ]
        }
        coordIndex [
            0,1,2,-1,2,1,3,-1,2,3,4,-1,4,3,5,-1,4,5,6,-1,6,5,7,-1,6,7,8,-1,8,7,9,-1,8,9,10,-1,10,9,11,-1,10,11,12,-1,12,11,13,-1,12,13,14,-1,14,13,15,-1,14,15,16,-1,16,15,17,-1,16,17,18,-1,18,17,19,-1,18,19,20,-1,20,19,21,-1,20,21,22,-1,22,21,23,-1,22,23,24,-1,24,23,25,-1,24,25,26,-1,26,25,27,-1,26,27,28,-1,28,27,29,-1,28,29,30,-1,30,29,31,-1,30,31,32,-1,32,31,33,-1,32,33,34,-1,34,33,35,-1,34,35,0,-1,0,35,1,-1,23,36,37,-1,23,37,25,-1,25,37,38,-1,25,38,27,-1,27,38,39,-1,27,39,29,-1,29,39,40,-1,29,40,31,-1,31,40,41,-1,31,41,33,-1,33,41,42,-1,33,42,35,-1,35,42,43,-1,35,43,1,-1,1,43,44,-1,1,44,3,-1,45,9,7,-1,3,44,46,-1,3,46,5,-1,5,46,47,-1,5,47,7,-1,7,47,48,-1,7,48,45,-1,11,9,49,-1,49,9,45,-1,13,11,50,-1,50,11,49,-1,15,13,51,-1,51,13,50,-1,15,51,52,-1,15,52,17,-1,17,52,53,-1,17,53,19,-1,53,54,19,-1,19,54,55,-1,19,55,21,-1,21,55,36,-1,21,36,23,-1,2,56,57,-1,2,57,0,-1,0,57,58,-1,0,58,34,-1,34,58,59,-1,34,59,32,-1,32,59,60,-1,32,60,30,-1,8,61,62,-1,8,62,6,-1,6,62,63,-1,6,63,4,-1,4,63,56,-1,4,56,2,-1,8,10,61,-1,61,10,64,-1,10,12,64,-1,64,12,65,-1,12,14,65,-1,65,14,66,-1,22,67,68,-1,22,68,20,-1,20,68,69,-1,20,69,18,-1,18,69,70,-1,18,70,16,-1,16,70,66,-1,16,66,14,-1,30,60,71,-1,30,71,28,-1,28,71,72,-1,28,72,26,-1,26,72,73,-1,26,73,24,-1,24,73,67,-1,24,67,22,-1,
        ]
    }
}
Shape{
    appearance Appearance {
        material  Material 	{
            diffuseColor 0.20784313725490197 0.20784313725490197 0.20784313725490197
            specularColor 0.01568627450980392 0.01568627450980392 0.01568627450980392
            ambientIntensity 0.298
            transparency 0.0
            shininess 0.5
        }
    }
    geometry IndexedFaceSet {
        ccw TRUE
        solid FALSE
        coord DEF co Coordinate {
            point [
                0.2507 0.241 0.3346, 0.2507 0.2162 0.3346, 0.2555 0.241 0.3346, 0.2553 0.2162 0.3346, 0.2594 0.2166 0.3346, 0.2622 0.2176 0.3346, 0.2643 0.219 0.3346, 0.2649 0.2195 0.3346, 0.2665 0.2215 0.3346, 0.2676 0.2239 0.3346, 0.2682 0.2269 0.3346, 0.2683 0.2289 0.3346, 0.2679 0.2326 0.3346, 0.2671 0.235 0.3346, 0.2659 0.2369 0.3346, 0.2648 0.238 0.3346, 0.2597 0.2405 0.3346, 0.2625 0.2395 0.3346
            ]
        }
        coordIndex [
            0,1,2,-1,2,1,3,-1,2,3,4,-1,4,5,2,-1,2,5,6,-1,2,6,7,-1,7,8,2,-1,2,8,9,-1,2,9,10,-1,10,11,2,-1,2,11,12,-1,2,12,13,-1,13,14,2,-1,2,14,15,-1,2,15,16,-1,16,15,17,-1,
        ]
    }
}
Shape{
    appearance Appearance {
        material  Material 	{
            diffuseColor 1.0 1.0 1.0
            specularColor 0.8784313725490196 0.8784313725490196 0.8784313725490196
            ambientIntensity 1.0
            transparency 0.0
            shininess 0.5
        }
    }
    geometry IndexedFaceSet {
        ccw TRUE
        solid FALSE
        coord DEF co Coordinate {
            point [
                0.2084 0.2157 0.3386, 0.2084 0.2157 0.3346, 0.2051 0.2161 0.3346, 0.2051 0.2161 0.3386, 0.2028 0.217 0.3346, 0.2028 0.217 0.3386, 0.2007 0.2184 0.3346, 0.2007 0.2184 0.3386, 0.2001 0.2191 0.3346, 0.2001 0.2191 0.3386, 0.1985 0.2212 0.3346, 0.1985 0.2212 0.3386, 0.1975 0.2238 0.3346, 0.1975 0.2238 0.3386, 0.197 0.227 0.3346, 0.197 0.227 0.3386, 0.197 0.2282 0.3346, 0.197 0.2282 0.3386, 0.1974 0.2323 0.3346, 0.1974 0.2323 0.3386, 0.1984 0.2352 0.3346, 0.1984 0.2352 0.3386, 0.1999 0.2374 0.3346, 0.1999 0.2374 0.3386, 0.2003 0.2379 0.3346, 0.2003 0.2379 0.3386, 0.2025 0.2397 0.3346, 0.2025 0.2397 0.3386, 0.2051 0.2409 0.3346, 0.2051 0.2409 0.3386, 0.2079 0.2414 0.3346, 0.2079 0.2414 0.3386, 0.2091 0.2415 0.3346, 0.2091 0.2415 0.3386, 0.2167 0.2396 0.3346, 0.2167 0.2396 0.3386, 0.2163 0.2398 0.3386, 0.2131 0.241 0.3346, 0.2131 0.241 0.3386, 0.2153 0.2401 0.3346, 0.2163 0.2398 0.3346, 0.2167 0.2439 0.3386, 0.2167 0.2439 0.3346, 0.2091 0.2452 0.3346, 0.2091 0.2452 0.3386, 0.2092 0.2452 0.3386, 0.2153 0.2443 0.3346, 0.2134 0.2449 0.3386, 0.2134 0.2449 0.3346, 0.2125 0.245 0.3346, 0.2092 0.2452 0.3346, 0.2069 0.245 0.3346, 0.2044 0.2446 0.3386, 0.2044 0.2446 0.3346, 0.201 0.2433 0.3346, 0.201 0.2433 0.3386, 0.198 0.2412 0.3346, 0.198 0.2412 0.3386, 0.1972 0.2405 0.3346, 0.1972 0.2405 0.3386, 0.1949 0.2374 0.3346, 0.1949 0.2374 0.3386, 0.1934 0.2339 0.3346, 0.1934 0.2339 0.3386, 0.1926 0.2297 0.3346, 0.1926 0.2297 0.3386, 0.1926 0.228 0.3346, 0.1926 0.228 0.3386, 0.1931 0.2232 0.3346, 0.1931 0.2232 0.3386, 0.1944 0.2197 0.3346, 0.1944 0.2197 0.3386, 0.1962 0.2169 0.3346, 0.1962 0.2169 0.3386, 0.1967 0.2164 0.3346, 0.1967 0.2164 0.3386, 0.2078 0.212 0.3346, 0.2078 0.212 0.3386, 0.2058 0.2121 0.3386, 0.1993 0.2142 0.3346, 0.1993 0.2142 0.3386, 0.2024 0.2128 0.3346, 0.2024 0.2128 0.3386, 0.205 0.2122 0.3346, 0.2058 0.2121 0.3346, 0.2167 0.2138 0.3346, 0.2167 0.2138 0.3386, 0.2161 0.2136 0.3386, 0.2106 0.2122 0.3346, 0.2127 0.2124 0.3386, 0.2127 0.2124 0.3346, 0.2153 0.2133 0.3346, 0.2161 0.2136 0.3346, 0.2167 0.2178 0.3386, 0.2167 0.2178 0.3346, 0.2153 0.2172 0.3346, 0.2135 0.2164 0.3386, 0.2135 0.2164 0.3346, 0.2099 0.2157 0.3346, 0.2099 0.2157 0.3386, 0.3238 0.1739 0.3386, 0.3225 0.1703 0.3386, 0.3346 0.1739 0.3386, 0.3358 0.1703 0.3386, 0.3286 0.1873 0.3386, 0.327 0.1936 0.3386, 0.3148 0.1615 0.3386, 0.3194 0.1615 0.3386, 0.3289 0.1882 0.3386, 0.3291 0.1895 0.3386, 0.3315 0.1936 0.3386, 0.3292 0.1895 0.3386, 0.3295 0.1882 0.3386, 0.3297 0.1873 0.3386, 0.3437 0.1615 0.3386, 0.3391 0.1615 0.3386, 0.327 0.1936 0.3346, 0.3315 0.1936 0.3346, 0.3148 0.1615 0.3346, 0.3254 0.1893 0.3346, 0.3194 0.1615 0.3346, 0.3225 0.1703 0.3346, 0.3358 0.1703 0.3346, 0.3391 0.1615 0.3346, 0.3437 0.1615 0.3346, 0.3331 0.1893 0.3346, 0.3286 0.1873 0.3346, 0.3289 0.1882 0.3346, 0.3291 0.1895 0.3346, 0.3238 0.1739 0.3346, 0.3346 0.1739 0.3346, 0.3297 0.1873 0.3346, 0.3292 0.1895 0.3346, 0.3295 0.1882 0.3346
            ]
        }
        coordIndex [
            0,1,2,-1,0,2,3,-1,3,2,4,-1,3,4,5,-1,5,4,6,-1,5,6,7,-1,7,6,8,-1,7,8,9,-1,9,8,10,-1,9,10,11,-1,11,10,12,-1,11,12,13,-1,13,12,14,-1,13,14,15,-1,15,14,16,-1,15,16,17,-1,17,16,18,-1,17,18,19,-1,19,18,20,-1,19,20,21,-1,21,20,22,-1,21,22,23,-1,23,22,24,-1,23,24,25,-1,25,24,26,-1,25,26,27,-1,27,26,28,-1,27,28,29,-1,29,28,30,-1,29,30,31,-1,31,30,32,-1,31,32,33,-1,34,35,36,-1,33,32,37,-1,33,37,38,-1,38,37,39,-1,38,39,36,-1,36,39,40,-1,36,40,34,-1,41,35,42,-1,42,35,34,-1,43,44,45,-1,41,42,46,-1,41,46,47,-1,46,48,47,-1,47,48,49,-1,47,49,45,-1,45,49,50,-1,45,50,43,-1,44,43,51,-1,44,51,52,-1,51,53,52,-1,52,53,54,-1,52,54,55,-1,55,54,56,-1,55,56,57,-1,57,56,58,-1,57,58,59,-1,59,58,60,-1,59,60,61,-1,61,60,62,-1,61,62,63,-1,63,62,64,-1,63,64,65,-1,65,64,66,-1,65,66,67,-1,67,66,68,-1,67,68,69,-1,69,68,70,-1,69,70,71,-1,71,70,72,-1,71,72,73,-1,73,72,74,-1,73,74,75,-1,76,77,78,-1,75,74,79,-1,75,79,80,-1,80,79,81,-1,80,81,82,-1,82,81,83,-1,82,83,78,-1,78,83,84,-1,78,84,76,-1,85,86,87,-1,76,88,77,-1,77,88,89,-1,88,90,89,-1,89,90,91,-1,89,91,87,-1,87,91,92,-1,87,92,85,-1,93,86,94,-1,94,86,85,-1,93,94,95,-1,93,95,96,-1,95,97,96,-1,96,97,98,-1,96,98,99,-1,99,98,1,-1,99,1,0,-1,36,35,41,-1,19,21,61,-1,36,41,38,-1,38,41,47,-1,38,47,33,-1,33,47,45,-1,33,45,31,-1,31,45,44,-1,31,44,29,-1,29,44,52,-1,29,52,27,-1,86,93,87,-1,87,93,96,-1,87,96,89,-1,89,96,99,-1,89,99,77,-1,77,99,0,-1,77,0,78,-1,78,0,3,-1,78,3,82,-1,82,3,5,-1,82,5,80,-1,80,5,7,-1,80,7,75,-1,75,7,9,-1,75,9,73,-1,73,9,11,-1,73,11,71,-1,61,21,59,-1,52,55,27,-1,27,55,57,-1,27,57,25,-1,25,57,59,-1,25,59,23,-1,23,59,21,-1,67,17,65,-1,65,17,19,-1,65,19,63,-1,63,19,61,-1,71,11,69,-1,69,11,13,-1,69,13,67,-1,67,13,15,-1,67,15,17,-1,100,101,102,-1,102,101,103,-1,104,105,100,-1,100,105,106,-1,100,106,101,-1,101,106,107,-1,104,108,105,-1,105,108,109,-1,105,109,110,-1,110,109,111,-1,110,111,112,-1,112,113,110,-1,110,113,102,-1,110,102,114,-1,114,102,103,-1,114,103,115,-1,105,110,116,-1,116,110,117,-1,118,106,119,-1,119,106,105,-1,119,105,116,-1,107,106,120,-1,120,106,118,-1,101,107,121,-1,121,107,120,-1,103,101,122,-1,122,101,121,-1,115,103,123,-1,123,103,122,-1,114,115,124,-1,124,115,123,-1,114,124,110,-1,110,124,125,-1,110,125,117,-1,104,126,127,-1,104,127,108,-1,108,127,128,-1,108,128,109,-1,104,100,126,-1,126,100,129,-1,100,102,129,-1,129,102,130,-1,102,113,130,-1,130,113,131,-1,111,132,133,-1,111,133,112,-1,112,133,131,-1,112,131,113,-1,111,109,132,-1,132,109,128,-1,
        ]
    }
}
Shape{
    appearance Appearance {
        material  Material 	{
            diffuseColor 0.20784313725490197 0.20784313725490197 0.20784313725490197
            specularColor 0.01568627450980392 0.01568627450980392 0.01568627450980392
            ambientIntensity 0.298
            transparency 0.0
            shininess 0.5
        }
    }
    geometry IndexedFaceSet {
        ccw TRUE
        solid FALSE
        coord DEF co Coordinate {
            point [
                0.3292 0.1895 0.3346, 0.3291 0.1895 0.3346, 0.3295 0.1882 0.3346, 0.3289 0.1882 0.3346, 0.3297 0.1873 0.3346, 0.3286 0.1873 0.3346, 0.3346 0.1739 0.3346, 0.3238 0.1739 0.3346
            ]
        }
        coordIndex [
            0,1,2,-1,2,1,3,-1,2,3,4,-1,4,3,5,-1,4,5,6,-1,6,5,7,-1,
        ]
    }
}
Shape{
    appearance Appearance {
        material  Material 	{
            diffuseColor 1.0 1.0 1.0
            specularColor 0.8784313725490196 0.8784313725490196 0.8784313725490196
            ambientIntensity 1.0
            transparency 0.0
            shininess 0.5
        }
    }
    geometry IndexedFaceSet {
        ccw TRUE
        solid FALSE
        coord DEF co Coordinate {
            point [
                0.2807 0.1651 0.3386, 0.2807 0.1651 0.3346, 0.2676 0.1651 0.3386, 0.2736 0.1651 0.3346, 0.2676 0.1651 0.3346, 0.2676 0.176 0.3386, 0.2676 0.176 0.3346, 0.2791 0.176 0.3386, 0.2736 0.176 0.3346, 0.2791 0.176 0.3346, 0.2791 0.1796 0.3386, 0.2791 0.1796 0.3346, 0.2676 0.1796 0.3346, 0.2676 0.1796 0.3386, 0.2736 0.1796 0.3346, 0.2676 0.1899 0.3346, 0.2676 0.1899 0.3386, 0.2676 0.1893 0.3346, 0.28 0.1899 0.3346, 0.28 0.1899 0.3386, 0.2736 0.1899 0.3346, 0.28 0.1936 0.3386, 0.28 0.1936 0.3346, 0.2634 0.1936 0.3346, 0.2634 0.1936 0.3386, 0.2736 0.1936 0.3346, 0.2634 0.1615 0.3346, 0.2634 0.1615 0.3386, 0.2634 0.1893 0.3346, 0.2807 0.1615 0.3386, 0.2736 0.1615 0.3346, 0.2807 0.1615 0.3346, 0.1785 0.1651 0.3346, 0.1785 0.1651 0.3386, 0.1914 0.1651 0.3346, 0.1916 0.1651 0.3386, 0.1916 0.1651 0.3346, 0.1785 0.176 0.3386, 0.1785 0.176 0.3346, 0.19 0.176 0.3386, 0.19 0.176 0.3346, 0.19 0.1796 0.3386, 0.19 0.1796 0.3346, 0.1785 0.1796 0.3386, 0.1785 0.1796 0.3346, 0.1785 0.1899 0.3346, 0.1785 0.1899 0.3386, 0.1785 0.1893 0.3346, 0.1909 0.1899 0.3386, 0.1909 0.1899 0.3346, 0.1909 0.1936 0.3386, 0.1909 0.1936 0.3346, 0.1743 0.1936 0.3386, 0.1743 0.1936 0.3346, 0.1743 0.1615 0.3346, 0.1743 0.1615 0.3386, 0.1743 0.1893 0.3346, 0.1916 0.1615 0.3346, 0.1916 0.1615 0.3386, 0.1914 0.1615 0.3346, 0.2835 0.2249 0.3386, 0.2822 0.2213 0.3386, 0.2943 0.2249 0.3386, 0.2956 0.2213 0.3386, 0.2883 0.2383 0.3386, 0.2867 0.2447 0.3386, 0.2745 0.2125 0.3386, 0.2791 0.2125 0.3386, 0.2886 0.2393 0.3386, 0.2888 0.2406 0.3386, 0.2912 0.2447 0.3386, 0.2889 0.2406 0.3386, 0.2892 0.2392 0.3386, 0.2894 0.2383 0.3386, 0.3034 0.2125 0.3386, 0.2988 0.2125 0.3386, 0.2867 0.2447 0.3346, 0.2912 0.2447 0.3346, 0.2745 0.2125 0.3346, 0.2838 0.2369 0.3346, 0.2791 0.2125 0.3346, 0.2822 0.2213 0.3346, 0.2956 0.2213 0.3346, 0.2838 0.2213 0.3346, 0.2988 0.2125 0.3346, 0.3034 0.2125 0.3346, 0.2883 0.2383 0.3346, 0.2886 0.2393 0.3346, 0.2888 0.2406 0.3346, 0.2835 0.2249 0.3346, 0.2943 0.2249 0.3346, 0.2894 0.2383 0.3346, 0.2889 0.2406 0.3346, 0.2892 0.2392 0.3346
            ]
        }
        coordIndex [
            0,1,2,-1,2,1,3,-1,2,3,4,-1,5,2,6,-1,6,2,4,-1,5,6,7,-1,7,6,8,-1,7,8,9,-1,10,7,11,-1,11,7,9,-1,12,13,14,-1,14,13,10,-1,14,10,11,-1,15,16,17,-1,17,16,13,-1,17,13,12,-1,18,19,20,-1,20,19,16,-1,20,16,15,-1,21,19,22,-1,22,19,18,-1,23,24,25,-1,25,24,21,-1,25,21,22,-1,26,27,28,-1,28,27,24,-1,28,24,23,-1,27,26,29,-1,29,26,30,-1,29,30,31,-1,0,29,1,-1,1,29,31,-1,27,29,0,-1,0,2,27,-1,27,2,5,-1,27,5,24,-1,19,21,16,-1,16,21,24,-1,16,24,13,-1,13,24,5,-1,13,5,10,-1,10,5,7,-1,32,33,34,-1,34,33,35,-1,34,35,36,-1,37,33,38,-1,38,33,32,-1,39,37,40,-1,40,37,38,-1,41,39,42,-1,42,39,40,-1,43,41,44,-1,44,41,42,-1,45,46,47,-1,47,46,43,-1,47,43,44,-1,48,46,49,-1,49,46,45,-1,50,48,51,-1,51,48,49,-1,52,50,53,-1,53,50,51,-1,54,55,56,-1,56,55,52,-1,56,52,53,-1,57,58,59,-1,59,58,55,-1,59,55,54,-1,35,58,36,-1,36,58,57,-1,55,58,35,-1,35,33,55,-1,55,33,37,-1,55,37,52,-1,48,50,46,-1,46,50,52,-1,46,52,43,-1,43,52,37,-1,43,37,41,-1,41,37,39,-1,60,61,62,-1,62,61,63,-1,64,65,60,-1,60,65,66,-1,60,66,61,-1,61,66,67,-1,64,68,65,-1,65,68,69,-1,65,69,70,-1,70,69,71,-1,70,71,72,-1,72,73,70,-1,70,73,62,-1,70,62,74,-1,74,62,63,-1,74,63,75,-1,65,70,76,-1,76,70,77,-1,78,66,79,-1,79,66,65,-1,79,65,76,-1,67,66,80,-1,80,66,78,-1,61,67,81,-1,81,67,80,-1,82,63,83,-1,83,63,61,-1,83,61,81,-1,75,63,84,-1,84,63,82,-1,74,75,85,-1,85,75,84,-1,70,74,77,-1,77,74,85,-1,64,86,87,-1,64,87,68,-1,68,87,88,-1,68,88,69,-1,64,60,86,-1,86,60,89,-1,60,62,89,-1,89,62,90,-1,62,73,90,-1,90,73,91,-1,71,92,93,-1,71,93,72,-1,72,93,91,-1,72,91,73,-1,71,69,92,-1,92,69,88,-1,
        ]
    }
}
Shape{
    appearance Appearance {
        material  Material 	{
            diffuseColor 0.20784313725490197 0.20784313725490197 0.20784313725490197
            specularColor 0.01568627450980392 0.01568627450980392 0.01568627450980392
            ambientIntensity 0.298
            transparency 0.0
            shininess 0.5
        }
    }
    geometry IndexedFaceSet {
        ccw TRUE
        solid FALSE
        coord DEF co Coordinate {
            point [
                0.2889 0.2406 0.3346, 0.2888 0.2406 0.3346, 0.2892 0.2392 0.3346, 0.2886 0.2393 0.3346, 0.2894 0.2383 0.3346, 0.2883 0.2383 0.3346, 0.2943 0.2249 0.3346, 0.2835 0.2249 0.3346
            ]
        }
        coordIndex [
            0,1,2,-1,2,1,3,-1,2,3,4,-1,4,3,5,-1,4,5,6,-1,6,5,7,-1,
        ]
    }
}
Shape{
    appearance Appearance {
        material  Material 	{
            diffuseColor 1.0 1.0 1.0
            specularColor 0.8784313725490196 0.8784313725490196 0.8784313725490196
            ambientIntensity 1.0
            transparency 0.0
            shininess 0.5
        }
    }
    geometry IndexedFaceSet {
        ccw TRUE
        solid FALSE
        coord DEF co Coordinate {
            point [
                0.2273 0.2162 0.3346, 0.2273 0.2162 0.3386, 0.236 0.2162 0.3346, 0.2404 0.2162 0.3386, 0.2404 0.2162 0.3346, 0.2273 0.227 0.3386, 0.2273 0.227 0.3346, 0.2388 0.227 0.3386, 0.236 0.227 0.3346, 0.2388 0.227 0.3346, 0.2388 0.2307 0.3386, 0.2388 0.2307 0.3346, 0.2273 0.2307 0.3346, 0.2273 0.2307 0.3386, 0.236 0.2307 0.3346, 0.2273 0.241 0.3386, 0.2273 0.241 0.3346, 0.2397 0.241 0.3386, 0.236 0.241 0.3346, 0.2397 0.241 0.3346, 0.2397 0.2447 0.3386, 0.2397 0.2447 0.3346, 0.2231 0.2447 0.3346, 0.2231 0.2447 0.3386, 0.236 0.2447 0.3346, 0.2231 0.2125 0.3386, 0.2231 0.2125 0.3346, 0.2404 0.2125 0.3386, 0.236 0.2125 0.3346, 0.2404 0.2125 0.3346, 0.1785 0.2162 0.3386, 0.1913 0.2162 0.3386, 0.1785 0.2162 0.3346, 0.1913 0.2162 0.3346, 0.1785 0.2447 0.3386, 0.1785 0.2447 0.3346, 0.1743 0.2447 0.3386, 0.1743 0.2447 0.3346, 0.1743 0.2125 0.3386, 0.1743 0.2125 0.3346, 0.1913 0.2125 0.3386, 0.1913 0.2125 0.3346
            ]
        }
        coordIndex [
            0,1,2,-1,2,1,3,-1,2,3,4,-1,5,1,6,-1,6,1,0,-1,5,6,7,-1,7,6,8,-1,7,8,9,-1,10,7,11,-1,11,7,9,-1,12,13,14,-1,14,13,10,-1,14,10,11,-1,15,13,16,-1,16,13,12,-1,15,16,17,-1,17,16,18,-1,17,18,19,-1,20,17,21,-1,21,17,19,-1,22,23,24,-1,24,23,20,-1,24,20,21,-1,25,23,26,-1,26,23,22,-1,25,26,27,-1,27,26,28,-1,27,28,29,-1,3,27,4,-1,4,27,29,-1,25,27,3,-1,3,1,25,-1,25,1,5,-1,25,5,23,-1,17,20,15,-1,15,20,23,-1,15,23,13,-1,13,23,5,-1,13,5,10,-1,10,5,7,-1,30,31,32,-1,32,31,33,-1,34,30,35,-1,35,30,32,-1,36,34,37,-1,37,34,35,-1,38,36,39,-1,39,36,37,-1,40,38,41,-1,41,38,39,-1,31,40,33,-1,33,40,41,-1,34,36,30,-1,30,36,38,-1,30,38,31,-1,31,38,40,-1,
        ]
    }
}