#VRML V2.0 utf8
# 3D model generated by easyeda2kicad.py (https://github.com/uPesy/easyeda2kicad.py)

Shape{
    appearance Appearance {
        material  Material 	{
            diffuseColor 1.0 1.0 1.0
            specularColor 0.5019607843137255 0.5019607843137255 0.5019607843137255
            ambientIntensity 1.0
            transparency 0.0
            shininess 0.5
        }
    }
    geometry IndexedFaceSet {
        ccw TRUE
        solid FALSE
        coord DEF co Coordinate {
            point [
                -0.1969 0.3819 0.0, -0.1969 0.4055 0.0, -0.1969 0.3819 0.0394, -0.1969 0.4055 0.0394, -0.1973 0.3752 0.0394, -0.1973 0.3752 0.0, -0.1988 0.3686 0.0394, -0.1988 0.3686 0.0, -0.2011 0.3623 0.0394, -0.2011 0.3623 0.0, -0.2044 0.3563 0.0394, -0.2044 0.3563 0.0, -0.2084 0.351 0.0394, -0.2084 0.351 0.0, -0.2132 0.3462 0.0394, -0.2132 0.3462 0.0, -0.2186 0.3421 0.0394, -0.2186 0.3421 0.0, -0.2245 0.3389 0.0394, -0.2245 0.3389 0.0, -0.2308 0.3366 0.0394, -0.2308 0.3366 0.0, -0.2374 0.3351 0.0394, -0.2374 0.3351 0.0, -0.2441 0.3346 0.0394, -0.2441 0.3346 0.0, -0.3937 0.3346 0.0, -0.3937 0.3346 0.0394, -0.3937 0.4528 0.0, -0.3937 0.4528 0.0394, -0.2441 0.4528 0.0, -0.2441 0.4528 0.0394, -0.2374 0.4523 0.0394, -0.2374 0.4523 0.0, -0.2308 0.4508 0.0394, -0.2308 0.4508 0.0, -0.2245 0.4485 0.0394, -0.2245 0.4485 0.0, -0.2186 0.4453 0.0394, -0.2186 0.4453 0.0, -0.2132 0.4412 0.0394, -0.2132 0.4412 0.0, -0.2084 0.4365 0.0394, -0.2084 0.4365 0.0, -0.2044 0.4311 0.0394, -0.2044 0.4311 0.0, -0.2011 0.4251 0.0394, -0.2011 0.4251 0.0, -0.1988 0.4188 0.0394, -0.1988 0.4188 0.0, -0.1973 0.4122 0.0394, -0.1973 0.4122 0.0, 0.0787 0.4055 0.0, 0.0787 0.4055 0.0394, 0.0795 0.4137 0.0394, 0.0795 0.4137 0.0, 0.0816 0.4217 0.0394, 0.0816 0.4217 0.0, 0.0851 0.4291 0.0394, 0.0851 0.4291 0.0, 0.0898 0.4359 0.0394, 0.0898 0.4359 0.0, 0.0956 0.4417 0.0394, 0.0956 0.4417 0.0, 0.1024 0.4464 0.0394, 0.1024 0.4464 0.0, 0.1098 0.4499 0.0394, 0.1098 0.4499 0.0, 0.1178 0.452 0.0394, 0.1178 0.452 0.0, 0.126 0.4528 0.0394, 0.126 0.4528 0.0, 0.3937 0.4528 0.0, 0.3937 0.4528 0.0394, 0.3937 0.3346 0.0, 0.3937 0.3346 0.0394, 0.126 0.3346 0.0, 0.126 0.3346 0.0394, 0.1178 0.3354 0.0394, 0.1178 0.3354 0.0, 0.1098 0.3375 0.0394, 0.1098 0.3375 0.0, 0.1024 0.341 0.0394, 0.1024 0.341 0.0, 0.0956 0.3457 0.0394, 0.0956 0.3457 0.0, 0.0898 0.3515 0.0394, 0.0898 0.3515 0.0, 0.0851 0.3583 0.0394, 0.0851 0.3583 0.0, 0.0816 0.3657 0.0394, 0.0816 0.3657 0.0, 0.0795 0.3737 0.0394, 0.0795 0.3737 0.0, 0.0787 0.3819 0.0394, 0.0787 0.3819 0.0, 0.0787 0.2087 0.0, 0.0787 0.2087 0.0394, 0.0795 0.2169 0.0394, 0.0795 0.2169 0.0, 0.0816 0.2248 0.0394, 0.0816 0.2248 0.0, 0.0851 0.2323 0.0394, 0.0851 0.2323 0.0, 0.0898 0.239 0.0394, 0.0898 0.239 0.0, 0.0956 0.2449 0.0394, 0.0956 0.2449 0.0, 0.1024 0.2496 0.0394, 0.1024 0.2496 0.0, 0.1098 0.2531 0.0394, 0.1098 0.2531 0.0, 0.1178 0.2552 0.0394, 0.1178 0.2552 0.0, 0.126 0.2559 0.0394, 0.126 0.2559 0.0, 0.3937 0.2559 0.0, 0.3937 0.2559 0.0394, 0.3937 0.1378 0.0, 0.3937 0.1378 0.0394, 0.126 0.1378 0.0, 0.126 0.1378 0.0394, 0.1178 0.1385 0.0394, 0.1178 0.1385 0.0, 0.1098 0.1406 0.0394, 0.1098 0.1406 0.0, 0.1024 0.1441 0.0394, 0.1024 0.1441 0.0, 0.0956 0.1488 0.0394, 0.0956 0.1488 0.0, 0.0898 0.1547 0.0394, 0.0898 0.1547 0.0, 0.0851 0.1614 0.0394, 0.0851 0.1614 0.0, 0.0816 0.1689 0.0394, 0.0816 0.1689 0.0, 0.0795 0.1768 0.0394, 0.0795 0.1768 0.0, 0.0787 0.185 0.0394, 0.0787 0.185 0.0, -0.0787 0.0118 0.0, -0.0787 0.0118 0.0394, -0.0776 0.0223 0.0394, -0.0776 0.0223 0.0, -0.0741 0.0323 0.0394, -0.0741 0.0323 0.0, -0.0684 0.0413 0.0394, -0.0684 0.0413 0.0, -0.061 0.0487 0.0394, -0.061 0.0487 0.0, -0.052 0.0544 0.0394, -0.052 0.0544 0.0, -0.042 0.0579 0.0394, -0.042 0.0579 0.0, -0.0315 0.0591 0.0394, -0.0315 0.0591 0.0, 0.3937 0.0591 0.0, 0.3937 0.0591 0.0394, 0.3937 -0.0591 0.0, 0.3937 -0.0591 0.0394, -0.0315 -0.0591 0.0, -0.0315 -0.0591 0.0394, -0.042 -0.0579 0.0394, -0.042 -0.0579 0.0, -0.052 -0.0544 0.0394, -0.052 -0.0544 0.0, -0.061 -0.0487 0.0394, -0.061 -0.0487 0.0, -0.0684 -0.0413 0.0394, -0.0684 -0.0413 0.0, -0.0741 -0.0323 0.0394, -0.0741 -0.0323 0.0, -0.0776 -0.0223 0.0394, -0.0776 -0.0223 0.0, -0.0787 -0.0118 0.0394, -0.0787 -0.0118 0.0, 0.0787 -0.185 0.0, 0.0787 -0.185 0.0394, 0.0795 -0.1768 0.0394, 0.0795 -0.1768 0.0, 0.0816 -0.1689 0.0394, 0.0816 -0.1689 0.0, 0.0851 -0.1614 0.0394, 0.0851 -0.1614 0.0, 0.0898 -0.1547 0.0394, 0.0898 -0.1547 0.0, 0.0956 -0.1488 0.0394, 0.0956 -0.1488 0.0, 0.1024 -0.1441 0.0394, 0.1024 -0.1441 0.0, 0.1098 -0.1406 0.0394, 0.1098 -0.1406 0.0, 0.1178 -0.1385 0.0394, 0.1178 -0.1385 0.0, 0.126 -0.1378 0.0394, 0.126 -0.1378 0.0, 0.3937 -0.1378 0.0, 0.3937 -0.1378 0.0394, 0.3937 -0.2559 0.0, 0.3937 -0.2559 0.0394, 0.126 -0.2559 0.0, 0.126 -0.2559 0.0394, 0.1178 -0.2552 0.0394, 0.1178 -0.2552 0.0, 0.1098 -0.2531 0.0394, 0.1098 -0.2531 0.0, 0.1024 -0.2496 0.0394, 0.1024 -0.2496 0.0, 0.0956 -0.2449 0.0394, 0.0956 -0.2449 0.0, 0.0898 -0.239 0.0394, 0.0898 -0.239 0.0, 0.0851 -0.2323 0.0394, 0.0851 -0.2323 0.0, 0.0816 -0.2248 0.0394, 0.0816 -0.2248 0.0, 0.0795 -0.2169 0.0394, 0.0795 -0.2169 0.0, 0.0787 -0.2087 0.0394, 0.0787 -0.2087 0.0, 0.0787 -0.3819 0.0, 0.0787 -0.3819 0.0394, 0.0795 -0.3737 0.0394, 0.0795 -0.3737 0.0, 0.0816 -0.3657 0.0394, 0.0816 -0.3657 0.0, 0.0851 -0.3583 0.0394, 0.0851 -0.3583 0.0, 0.0898 -0.3515 0.0394, 0.0898 -0.3515 0.0, 0.0956 -0.3457 0.0394, 0.0956 -0.3457 0.0, 0.1024 -0.341 0.0394, 0.1024 -0.341 0.0, 0.1098 -0.3375 0.0394, 0.1098 -0.3375 0.0, 0.1178 -0.3354 0.0394, 0.1178 -0.3354 0.0, 0.126 -0.3346 0.0394, 0.126 -0.3346 0.0, 0.3937 -0.3346 0.0, 0.3937 -0.3346 0.0394, 0.3937 -0.4528 0.0, 0.3937 -0.4528 0.0394, 0.126 -0.4528 0.0, 0.126 -0.4528 0.0394, 0.1178 -0.452 0.0394, 0.1178 -0.452 0.0, 0.1098 -0.4499 0.0394, 0.1098 -0.4499 0.0, 0.1024 -0.4464 0.0394, 0.1024 -0.4464 0.0, 0.0956 -0.4417 0.0394, 0.0956 -0.4417 0.0, 0.0898 -0.4359 0.0394, 0.0898 -0.4359 0.0, 0.0851 -0.4291 0.0394, 0.0851 -0.4291 0.0, 0.0816 -0.4217 0.0394, 0.0816 -0.4217 0.0, 0.0795 -0.4137 0.0394, 0.0795 -0.4137 0.0, 0.0787 -0.4055 0.0394, 0.0787 -0.4055 0.0, -0.3937 -0.4528 0.0, -0.1969 -0.4528 0.0, -0.3937 -0.4528 0.0394, -0.1969 -0.4528 0.0394, -0.3937 -0.3346 0.0, -0.3937 -0.3346 0.0394, -0.1969 -0.3346 0.0, -0.1969 -0.3346 0.0394, -0.1969 -0.2087 0.0, -0.1969 -0.185 0.0, -0.1969 -0.2087 0.0394, -0.1969 -0.185 0.0394, -0.1973 -0.2154 0.0394, -0.1973 -0.2154 0.0, -0.1988 -0.222 0.0394, -0.1988 -0.222 0.0, -0.2011 -0.2283 0.0394, -0.2011 -0.2283 0.0, -0.2044 -0.2342 0.0394, -0.2044 -0.2342 0.0, -0.2084 -0.2396 0.0394, -0.2084 -0.2396 0.0, -0.2132 -0.2444 0.0394, -0.2132 -0.2444 0.0, -0.2186 -0.2484 0.0394, -0.2186 -0.2484 0.0, -0.2245 -0.2516 0.0394, -0.2245 -0.2516 0.0, -0.2308 -0.254 0.0394, -0.2308 -0.254 0.0, -0.2374 -0.2554 0.0394, -0.2374 -0.2554 0.0, -0.2441 -0.2559 0.0394, -0.2441 -0.2559 0.0, -0.3937 -0.2559 0.0, -0.3937 -0.2559 0.0394, -0.3937 -0.1378 0.0, -0.3937 -0.1378 0.0394, -0.2441 -0.1378 0.0, -0.2441 -0.1378 0.0394, -0.2374 -0.1383 0.0394, -0.2374 -0.1383 0.0, -0.2308 -0.1397 0.0394, -0.2308 -0.1397 0.0, -0.2245 -0.1421 0.0394, -0.2245 -0.1421 0.0, -0.2186 -0.1453 0.0394, -0.2186 -0.1453 0.0, -0.2132 -0.1493 0.0394, -0.2132 -0.1493 0.0, -0.2084 -0.1541 0.0394, -0.2084 -0.1541 0.0, -0.2044 -0.1595 0.0394, -0.2044 -0.1595 0.0, -0.2011 -0.1654 0.0394, -0.2011 -0.1654 0.0, -0.1988 -0.1717 0.0394, -0.1988 -0.1717 0.0, -0.1973 -0.1783 0.0394, -0.1973 -0.1783 0.0, -0.1969 -0.0118 0.0, -0.1969 0.0118 0.0, -0.1969 -0.0118 0.0394, -0.1969 0.0118 0.0394, -0.1973 -0.0185 0.0394, -0.1973 -0.0185 0.0, -0.1988 -0.0251 0.0394, -0.1988 -0.0251 0.0, -0.2011 -0.0314 0.0394, -0.2011 -0.0314 0.0, -0.2044 -0.0374 0.0394, -0.2044 -0.0374 0.0, -0.2084 -0.0427 0.0394, -0.2084 -0.0427 0.0, -0.2132 -0.0475 0.0394, -0.2132 -0.0475 0.0, -0.2186 -0.0516 0.0394, -0.2186 -0.0516 0.0, -0.2245 -0.0548 0.0394, -0.2245 -0.0548 0.0, -0.2308 -0.0571 0.0394, -0.2308 -0.0571 0.0, -0.2374 -0.0586 0.0394, -0.2374 -0.0586 0.0, -0.2441 -0.0591 0.0394, -0.2441 -0.0591 0.0, -0.3937 -0.0591 0.0, -0.3937 -0.0591 0.0394, -0.3937 0.0591 0.0, -0.3937 0.0591 0.0394, -0.2441 0.0591 0.0, -0.2441 0.0591 0.0394, -0.2374 0.0586 0.0394, -0.2374 0.0586 0.0, -0.2308 0.0571 0.0394, -0.2308 0.0571 0.0, -0.2245 0.0548 0.0394, -0.2245 0.0548 0.0, -0.2186 0.0516 0.0394, -0.2186 0.0516 0.0, -0.2132 0.0475 0.0394, -0.2132 0.0475 0.0, -0.2084 0.0427 0.0394, -0.2084 0.0427 0.0, -0.2044 0.0374 0.0394, -0.2044 0.0374 0.0, -0.2011 0.0314 0.0394, -0.2011 0.0314 0.0, -0.1988 0.0251 0.0394, -0.1988 0.0251 0.0, -0.1973 0.0185 0.0394, -0.1973 0.0185 0.0, -0.1969 0.185 0.0, -0.1969 0.2087 0.0, -0.1969 0.185 0.0394, -0.1969 0.2087 0.0394, -0.1973 0.1783 0.0394, -0.1973 0.1783 0.0, -0.1988 0.1717 0.0394, -0.1988 0.1717 0.0, -0.2011 0.1654 0.0394, -0.2011 0.1654 0.0, -0.2044 0.1595 0.0394, -0.2044 0.1595 0.0, -0.2084 0.1541 0.0394, -0.2084 0.1541 0.0, -0.2132 0.1493 0.0394, -0.2132 0.1493 0.0, -0.2186 0.1453 0.0394, -0.2186 0.1453 0.0, -0.2245 0.1421 0.0394, -0.2245 0.1421 0.0, -0.2308 0.1397 0.0394, -0.2308 0.1397 0.0, -0.2374 0.1383 0.0394, -0.2374 0.1383 0.0, -0.2441 0.1378 0.0394, -0.2441 0.1378 0.0, -0.3937 0.1378 0.0, -0.3937 0.1378 0.0394, -0.3937 0.2559 0.0, -0.3937 0.2559 0.0394, -0.2441 0.2559 0.0, -0.2441 0.2559 0.0394, -0.2374 0.2554 0.0394, -0.2374 0.2554 0.0, -0.2308 0.254 0.0394, -0.2308 0.254 0.0, -0.2245 0.2516 0.0394, -0.2245 0.2516 0.0, -0.2186 0.2484 0.0394, -0.2186 0.2484 0.0, -0.2132 0.2444 0.0394, -0.2132 0.2444 0.0, -0.2084 0.2396 0.0394, -0.2084 0.2396 0.0, -0.2044 0.2342 0.0394, -0.2044 0.2342 0.0, -0.2011 0.2283 0.0394, -0.2011 0.2283 0.0, -0.1988 0.222 0.0394, -0.1988 0.222 0.0, -0.1973 0.2154 0.0394, -0.1973 0.2154 0.0
            ]
        }
        coordIndex [
            0,1,2,-1,2,1,3,-1,0,2,4,-1,0,4,5,-1,5,4,6,-1,5,6,7,-1,7,6,8,-1,7,8,9,-1,9,8,10,-1,9,10,11,-1,11,10,12,-1,11,12,13,-1,13,12,14,-1,13,14,15,-1,15,14,16,-1,15,16,17,-1,17,16,18,-1,17,18,19,-1,19,18,20,-1,19,20,21,-1,21,20,22,-1,21,22,23,-1,23,22,24,-1,23,24,25,-1,26,25,27,-1,27,25,24,-1,28,26,29,-1,29,26,27,-1,30,28,31,-1,31,28,29,-1,30,31,32,-1,30,32,33,-1,33,32,34,-1,33,34,35,-1,35,34,36,-1,35,36,37,-1,37,36,38,-1,37,38,39,-1,39,38,40,-1,39,40,41,-1,41,40,42,-1,41,42,43,-1,43,42,44,-1,43,44,45,-1,45,44,46,-1,45,46,47,-1,47,46,48,-1,47,48,49,-1,49,48,50,-1,49,50,51,-1,51,50,3,-1,51,3,1,-1,26,28,25,-1,25,28,30,-1,25,30,1,-1,1,0,25,-1,25,0,5,-1,25,5,7,-1,30,33,1,-1,1,33,35,-1,1,35,37,-1,11,19,21,-1,37,39,1,-1,1,39,41,-1,1,41,43,-1,43,45,1,-1,1,45,47,-1,1,47,51,-1,51,47,49,-1,11,13,19,-1,19,13,15,-1,19,15,17,-1,7,9,25,-1,25,9,11,-1,25,11,23,-1,23,11,21,-1,29,27,31,-1,31,27,24,-1,36,34,3,-1,18,16,14,-1,3,44,42,-1,6,4,24,-1,24,4,2,-1,24,2,31,-1,31,2,3,-1,31,3,32,-1,32,3,34,-1,22,10,24,-1,24,10,8,-1,24,8,6,-1,22,20,10,-1,10,20,18,-1,10,18,12,-1,12,18,14,-1,44,3,46,-1,46,3,50,-1,46,50,48,-1,42,40,3,-1,3,40,38,-1,3,38,36,-1,52,53,54,-1,52,54,55,-1,55,54,56,-1,55,56,57,-1,57,56,58,-1,57,58,59,-1,59,58,60,-1,59,60,61,-1,61,60,62,-1,61,62,63,-1,63,62,64,-1,63,64,65,-1,65,64,66,-1,65,66,67,-1,67,66,68,-1,67,68,69,-1,69,68,70,-1,69,70,71,-1,72,71,73,-1,73,71,70,-1,74,72,75,-1,75,72,73,-1,76,74,77,-1,77,74,75,-1,76,77,78,-1,76,78,79,-1,79,78,80,-1,79,80,81,-1,81,80,82,-1,81,82,83,-1,83,82,84,-1,83,84,85,-1,85,84,86,-1,85,86,87,-1,87,86,88,-1,87,88,89,-1,89,88,90,-1,89,90,91,-1,91,90,92,-1,91,92,93,-1,93,92,94,-1,93,94,95,-1,52,95,53,-1,53,95,94,-1,74,95,72,-1,72,95,52,-1,74,76,95,-1,95,76,79,-1,95,79,81,-1,67,69,52,-1,52,69,71,-1,52,71,72,-1,81,83,95,-1,95,83,85,-1,95,85,87,-1,87,89,95,-1,95,89,91,-1,95,91,93,-1,61,63,52,-1,52,63,65,-1,52,65,67,-1,55,57,52,-1,52,57,59,-1,52,59,61,-1,73,70,53,-1,53,70,68,-1,53,68,66,-1,66,64,53,-1,53,64,62,-1,53,62,60,-1,86,94,88,-1,88,94,92,-1,88,92,90,-1,86,84,94,-1,94,84,82,-1,94,82,80,-1,80,78,94,-1,94,78,77,-1,94,77,53,-1,53,77,75,-1,53,75,73,-1,60,58,53,-1,53,58,56,-1,53,56,54,-1,96,97,98,-1,96,98,99,-1,99,98,100,-1,99,100,101,-1,101,100,102,-1,101,102,103,-1,103,102,104,-1,103,104,105,-1,105,104,106,-1,105,106,107,-1,107,106,108,-1,107,108,109,-1,109,108,110,-1,109,110,111,-1,111,110,112,-1,111,112,113,-1,113,112,114,-1,113,114,115,-1,116,115,117,-1,117,115,114,-1,118,116,119,-1,119,116,117,-1,120,118,121,-1,121,118,119,-1,120,121,122,-1,120,122,123,-1,123,122,124,-1,123,124,125,-1,125,124,126,-1,125,126,127,-1,127,126,128,-1,127,128,129,-1,129,128,130,-1,129,130,131,-1,131,130,132,-1,131,132,133,-1,133,132,134,-1,133,134,135,-1,135,134,136,-1,135,136,137,-1,137,136,138,-1,137,138,139,-1,96,139,97,-1,97,139,138,-1,113,115,96,-1,96,115,116,-1,96,116,139,-1,139,116,118,-1,139,118,120,-1,120,123,139,-1,139,123,125,-1,139,125,127,-1,137,139,135,-1,135,139,133,-1,127,129,139,-1,139,129,131,-1,139,131,133,-1,101,103,111,-1,113,96,111,-1,111,96,99,-1,111,99,101,-1,103,105,111,-1,111,105,107,-1,111,107,109,-1,138,119,97,-1,97,119,117,-1,97,117,114,-1,124,122,138,-1,138,122,121,-1,138,121,119,-1,110,108,106,-1,134,132,126,-1,126,132,130,-1,126,130,128,-1,106,104,110,-1,110,104,102,-1,110,102,100,-1,114,112,97,-1,97,112,110,-1,97,110,98,-1,98,110,100,-1,124,138,126,-1,126,138,136,-1,126,136,134,-1,140,141,142,-1,140,142,143,-1,143,142,144,-1,143,144,145,-1,145,144,146,-1,145,146,147,-1,147,146,148,-1,147,148,149,-1,149,148,150,-1,149,150,151,-1,151,150,152,-1,151,152,153,-1,153,152,154,-1,153,154,155,-1,156,155,157,-1,157,155,154,-1,158,156,159,-1,159,156,157,-1,160,158,161,-1,161,158,159,-1,160,161,162,-1,160,162,163,-1,163,162,164,-1,163,164,165,-1,165,164,166,-1,165,166,167,-1,167,166,168,-1,167,168,169,-1,169,168,170,-1,169,170,171,-1,171,170,172,-1,171,172,173,-1,173,172,174,-1,173,174,175,-1,140,175,141,-1,141,175,174,-1,156,158,155,-1,155,158,160,-1,163,165,173,-1,163,173,160,-1,160,173,175,-1,160,175,155,-1,155,175,140,-1,155,140,153,-1,153,140,143,-1,153,143,145,-1,145,147,153,-1,153,147,149,-1,153,149,151,-1,167,169,165,-1,165,169,171,-1,165,171,173,-1,159,157,161,-1,161,157,174,-1,174,157,141,-1,141,157,154,-1,141,154,152,-1,172,164,174,-1,174,164,162,-1,174,162,161,-1,172,170,164,-1,164,170,168,-1,164,168,166,-1,146,152,148,-1,148,152,150,-1,146,144,152,-1,152,144,142,-1,152,142,141,-1,176,177,178,-1,176,178,179,-1,179,178,180,-1,179,180,181,-1,181,180,182,-1,181,182,183,-1,183,182,184,-1,183,184,185,-1,185,184,186,-1,185,186,187,-1,187,186,188,-1,187,188,189,-1,189,188,190,-1,189,190,191,-1,191,190,192,-1,191,192,193,-1,193,192,194,-1,193,194,195,-1,196,195,197,-1,197,195,194,-1,198,196,199,-1,199,196,197,-1,200,198,201,-1,201,198,199,-1,200,201,202,-1,200,202,203,-1,203,202,204,-1,203,204,205,-1,205,204,206,-1,205,206,207,-1,207,206,208,-1,207,208,209,-1,209,208,210,-1,209,210,211,-1,211,210,212,-1,211,212,213,-1,213,212,214,-1,213,214,215,-1,215,214,216,-1,215,216,217,-1,217,216,218,-1,217,218,219,-1,176,219,177,-1,177,219,218,-1,179,181,176,-1,176,181,183,-1,176,183,185,-1,185,187,176,-1,176,187,189,-1,176,189,191,-1,191,193,176,-1,176,193,195,-1,176,195,219,-1,196,198,195,-1,195,198,200,-1,195,200,219,-1,219,200,203,-1,219,203,205,-1,215,209,213,-1,213,209,211,-1,205,207,219,-1,219,207,209,-1,219,209,217,-1,217,209,215,-1,204,202,218,-1,218,202,201,-1,218,201,177,-1,177,201,199,-1,177,199,197,-1,197,194,177,-1,177,194,192,-1,177,192,190,-1,190,188,177,-1,177,188,186,-1,177,186,184,-1,184,182,177,-1,177,182,180,-1,177,180,178,-1,216,214,208,-1,208,214,212,-1,208,212,210,-1,216,208,218,-1,218,208,206,-1,218,206,204,-1,220,221,222,-1,220,222,223,-1,223,222,224,-1,223,224,225,-1,225,224,226,-1,225,226,227,-1,227,226,228,-1,227,228,229,-1,229,228,230,-1,229,230,231,-1,231,230,232,-1,231,232,233,-1,233,232,234,-1,233,234,235,-1,235,234,236,-1,235,236,237,-1,237,236,238,-1,237,238,239,-1,240,239,241,-1,241,239,238,-1,242,240,243,-1,243,240,241,-1,244,242,245,-1,245,242,243,-1,244,245,246,-1,244,246,247,-1,247,246,248,-1,247,248,249,-1,249,248,250,-1,249,250,251,-1,251,250,252,-1,251,252,253,-1,253,252,254,-1,253,254,255,-1,255,254,256,-1,255,256,257,-1,257,256,258,-1,257,258,259,-1,259,258,260,-1,259,260,261,-1,261,260,262,-1,261,262,263,-1,220,263,221,-1,221,263,262,-1,263,220,242,-1,240,242,239,-1,239,242,220,-1,239,220,237,-1,237,220,235,-1,242,244,263,-1,263,244,247,-1,263,247,249,-1,229,231,227,-1,227,231,225,-1,220,223,235,-1,235,223,225,-1,235,225,233,-1,233,225,231,-1,249,251,263,-1,263,251,253,-1,263,253,255,-1,255,257,263,-1,263,257,259,-1,263,259,261,-1,243,241,221,-1,221,241,238,-1,243,221,245,-1,245,221,262,-1,245,262,246,-1,238,236,221,-1,221,236,234,-1,221,234,222,-1,222,234,224,-1,234,232,224,-1,224,232,230,-1,224,230,226,-1,226,230,228,-1,262,260,258,-1,258,256,262,-1,262,256,254,-1,262,254,252,-1,252,250,262,-1,262,250,248,-1,262,248,246,-1,264,265,266,-1,266,265,267,-1,268,264,269,-1,269,264,266,-1,270,268,271,-1,271,268,269,-1,265,270,267,-1,267,270,271,-1,268,270,264,-1,264,270,265,-1,271,269,267,-1,267,269,266,-1,272,273,274,-1,274,273,275,-1,272,274,276,-1,272,276,277,-1,277,276,278,-1,277,278,279,-1,279,278,280,-1,279,280,281,-1,281,280,282,-1,281,282,283,-1,283,282,284,-1,283,284,285,-1,285,284,286,-1,285,286,287,-1,287,286,288,-1,287,288,289,-1,289,288,290,-1,289,290,291,-1,291,290,292,-1,291,292,293,-1,293,292,294,-1,293,294,295,-1,295,294,296,-1,295,296,297,-1,298,297,299,-1,299,297,296,-1,300,298,301,-1,301,298,299,-1,302,300,303,-1,303,300,301,-1,302,303,304,-1,302,304,305,-1,305,304,306,-1,305,306,307,-1,307,306,308,-1,307,308,309,-1,309,308,310,-1,309,310,311,-1,311,310,312,-1,311,312,313,-1,313,312,314,-1,313,314,315,-1,315,314,316,-1,315,316,317,-1,317,316,318,-1,317,318,319,-1,319,318,320,-1,319,320,321,-1,321,320,322,-1,321,322,323,-1,323,322,275,-1,323,275,273,-1,298,300,297,-1,297,300,302,-1,305,307,273,-1,273,307,309,-1,273,309,311,-1,317,319,273,-1,273,319,321,-1,273,321,323,-1,311,313,273,-1,273,313,315,-1,273,315,317,-1,291,293,277,-1,277,293,295,-1,277,295,272,-1,272,295,297,-1,272,297,273,-1,273,297,302,-1,273,302,305,-1,279,287,277,-1,277,287,289,-1,277,289,291,-1,279,281,287,-1,287,281,283,-1,287,283,285,-1,301,299,303,-1,303,299,296,-1,320,318,304,-1,292,290,276,-1,320,304,322,-1,322,304,275,-1,275,304,303,-1,275,303,274,-1,274,303,296,-1,274,296,276,-1,276,296,294,-1,276,294,292,-1,308,314,310,-1,310,314,312,-1,318,316,304,-1,304,316,314,-1,304,314,306,-1,306,314,308,-1,280,286,282,-1,282,286,284,-1,290,288,276,-1,276,288,286,-1,276,286,278,-1,278,286,280,-1,324,325,326,-1,326,325,327,-1,324,326,328,-1,324,328,329,-1,329,328,330,-1,329,330,331,-1,331,330,332,-1,331,332,333,-1,333,332,334,-1,333,334,335,-1,335,334,336,-1,335,336,337,-1,337,336,338,-1,337,338,339,-1,339,338,340,-1,339,340,341,-1,341,340,342,-1,341,342,343,-1,343,342,344,-1,343,344,345,-1,345,344,346,-1,345,346,347,-1,347,346,348,-1,347,348,349,-1,350,349,351,-1,351,349,348,-1,352,350,353,-1,353,350,351,-1,354,352,355,-1,355,352,353,-1,354,355,356,-1,354,356,357,-1,357,356,358,-1,357,358,359,-1,359,358,360,-1,359,360,361,-1,361,360,362,-1,361,362,363,-1,363,362,364,-1,363,364,365,-1,365,364,366,-1,365,366,367,-1,367,366,368,-1,367,368,369,-1,369,368,370,-1,369,370,371,-1,371,370,372,-1,371,372,373,-1,373,372,374,-1,373,374,375,-1,375,374,327,-1,375,327,325,-1,350,352,349,-1,349,352,354,-1,373,375,354,-1,354,375,325,-1,354,325,349,-1,349,325,324,-1,349,324,347,-1,347,324,329,-1,347,329,345,-1,341,331,333,-1,331,341,329,-1,329,341,343,-1,329,343,345,-1,354,357,373,-1,373,357,359,-1,373,359,361,-1,361,363,373,-1,373,363,365,-1,373,365,371,-1,371,365,367,-1,371,367,369,-1,333,335,341,-1,341,335,337,-1,341,337,339,-1,353,351,355,-1,355,351,348,-1,327,355,326,-1,326,355,348,-1,326,348,328,-1,328,348,346,-1,328,346,344,-1,344,342,328,-1,328,342,340,-1,328,340,330,-1,327,374,355,-1,355,374,372,-1,355,372,370,-1,362,360,358,-1,338,336,334,-1,362,358,364,-1,364,358,356,-1,364,356,355,-1,338,334,340,-1,340,334,332,-1,340,332,330,-1,370,368,355,-1,355,368,366,-1,355,366,364,-1,376,377,378,-1,378,377,379,-1,376,378,380,-1,376,380,381,-1,381,380,382,-1,381,382,383,-1,383,382,384,-1,383,384,385,-1,385,384,386,-1,385,386,387,-1,387,386,388,-1,387,388,389,-1,389,388,390,-1,389,390,391,-1,391,390,392,-1,391,392,393,-1,393,392,394,-1,393,394,395,-1,395,394,396,-1,395,396,397,-1,397,396,398,-1,397,398,399,-1,399,398,400,-1,399,400,401,-1,402,401,403,-1,403,401,400,-1,404,402,405,-1,405,402,403,-1,406,404,407,-1,407,404,405,-1,406,407,408,-1,406,408,409,-1,409,408,410,-1,409,410,411,-1,411,410,412,-1,411,412,413,-1,413,412,414,-1,413,414,415,-1,415,414,416,-1,415,416,417,-1,417,416,418,-1,417,418,419,-1,419,418,420,-1,419,420,421,-1,421,420,422,-1,421,422,423,-1,423,422,424,-1,423,424,425,-1,425,424,426,-1,425,426,427,-1,427,426,379,-1,427,379,377,-1,402,404,401,-1,401,404,406,-1,393,395,376,-1,376,395,397,-1,393,376,391,-1,391,376,381,-1,391,381,383,-1,383,385,391,-1,391,385,387,-1,391,387,389,-1,397,399,376,-1,376,399,401,-1,376,401,377,-1,377,401,406,-1,377,406,427,-1,427,406,409,-1,427,409,411,-1,423,415,421,-1,421,415,417,-1,421,417,419,-1,411,413,427,-1,427,413,415,-1,427,415,425,-1,425,415,423,-1,396,394,378,-1,378,394,392,-1,378,392,390,-1,405,403,407,-1,407,403,400,-1,407,400,378,-1,378,400,398,-1,378,398,396,-1,384,390,386,-1,386,390,388,-1,384,382,390,-1,390,382,380,-1,390,380,378,-1,378,379,407,-1,407,379,426,-1,407,426,408,-1,408,426,410,-1,424,422,414,-1,414,422,420,-1,414,420,416,-1,416,420,418,-1,424,414,426,-1,426,414,412,-1,426,412,410,-1,
        ]
    }
}
Shape{
    appearance Appearance {
        material  Material 	{
            diffuseColor 0.25098039215686274 0.25098039215686274 0.25098039215686274
            specularColor 0.12549019607843137 0.12549019607843137 0.12549019607843137
            ambientIntensity 0.251
            transparency 0.0
            shininess 0.5
        }
    }
    geometry IndexedFaceSet {
        ccw TRUE
        solid FALSE
        coord DEF co Coordinate {
            point [
                0.0397 -0.5428 0.0197, 0.0397 -0.5514 0.0197, 0.032 -0.556 0.0197, 0.0485 -0.4857 0.0197, 0.0411 -0.5436 0.0197, 0.0581 -0.4845 0.0197, 0.0659 -0.4853 0.0197, 0.1453 -0.5555 0.0197, 0.066 -0.556 0.0197, 0.105 -0.5555 0.0197, 0.071 -0.5555 0.0197, 0.0787 -0.5528 0.0197, 0.032 -0.0591 0.0197, 0.0397 -0.4789 0.0197, 0.0397 -0.4895 0.0197, 0.0718 -0.4874 0.0197, 0.0772 -0.4911 0.0197, 0.082 -0.4963 0.0197, 0.0877 -0.517 0.0197, 0.0869 -0.5255 0.0197, 0.0848 -0.5323 0.0197, 0.0672 -0.547 0.0197, 0.0599 -0.5478 0.0197, 0.073 -0.5449 0.0197, 0.0778 -0.5416 0.0197, 0.0815 -0.5377 0.0197, 0.0494 -0.5467 0.0197, 0.3937 -0.0591 0.0197, 0.3937 -0.1378 0.0197, 0.0852 -0.5024 0.0197, 0.0873 -0.5109 0.0197, 0.126 -0.1378 0.0197, 0.1138 -0.1394 0.0197, 0.1024 -0.1441 0.0197, 0.0926 -0.1516 0.0197, 0.0851 -0.1614 0.0197, 0.0803 -0.1728 0.0197, 0.1024 -0.2496 0.0197, 0.0926 -0.2421 0.0197, 0.0851 -0.2323 0.0197, 0.3937 -0.2559 0.0197, 0.3937 -0.3346 0.0197, 0.126 -0.2559 0.0197, 0.126 -0.3346 0.0197, 0.1138 -0.2543 0.0197, 0.1138 -0.3363 0.0197, 0.1024 -0.341 0.0197, 0.0926 -0.3485 0.0197, 0.0941 -0.4975 0.0197, 0.0895 -0.4901 0.0197, 0.1347 -0.4768 0.0197, 0.1138 -0.4511 0.0197, 0.1453 -0.4768 0.0197, 0.1024 -0.4464 0.0197, 0.0926 -0.4389 0.0197, 0.0851 -0.3583 0.0197, 0.0803 -0.3697 0.0197, 0.0787 -0.3819 0.0197, 0.0787 -0.4055 0.0197, 0.085 -0.5488 0.0197, 0.0909 -0.5426 0.0197, 0.105 -0.5469 0.0197, 0.0951 -0.5351 0.0197, 0.1347 -0.5469 0.0197, 0.0787 -0.185 0.0197, 0.0787 -0.2087 0.0197, 0.0803 -0.2209 0.0197, 0.0803 -0.4177 0.0197, 0.0851 -0.4291 0.0197, 0.0488 -0.4765 0.0197, 0.0582 -0.4758 0.0197, 0.0975 -0.5267 0.0197, 0.0983 -0.5176 0.0197, 0.0971 -0.5064 0.0197, 0.0824 -0.4833 0.0197, 0.0749 -0.479 0.0197, 0.0661 -0.4765 0.0197, 0.0481 -0.5549 0.0197, 0.056 -0.556 0.0197, 0.032 -0.5906 0.0197, 0.0592 -0.5564 0.0197, 0.0613 -0.5565 0.0197, 0.126 -0.4528 0.0197, 0.3937 -0.4528 0.0197, 0.3937 -0.556 0.0197, 0.3937 -0.5906 0.0197, -0.0179 -0.5555 0.0197, 0.0243 -0.5555 0.0197, -0.1024 -0.5555 0.0197, -0.0927 -0.5339 0.0197, -0.0882 -0.541 0.0197, 0.0243 -0.4768 0.0197, -0.0817 -0.5472 0.0197, -0.0735 -0.552 0.0197, -0.0645 -0.5547 0.0197, 0.032 0.5906 0.0197, -0.2032 0.4291 0.0197, -0.2107 0.4389 0.0197, -0.2205 0.4464 0.0197, -0.2319 0.4511 0.0197, -0.3937 0.5906 0.0197, -0.2441 0.4528 0.0197, -0.3937 0.4528 0.0197, -0.3937 -0.556 0.0197, -0.3937 -0.4528 0.0197, -0.1969 -0.4528 0.0197, 0.0138 -0.4854 0.0197, 0.0138 -0.5113 0.0197, -0.016 -0.4854 0.0197, -0.0141 -0.5113 0.0197, -0.0333 -0.4768 0.0197, -0.0141 -0.52 0.0197, 0.0138 -0.52 0.0197, 0.0138 -0.5469 0.0197, -0.0179 -0.5469 0.0197, -0.0333 -0.5555 0.0197, -0.0547 -0.5555 0.0197, -0.3937 -0.3346 0.0197, -0.3937 -0.2559 0.0197, -0.1969 -0.3346 0.0197, -0.2441 -0.2559 0.0197, -0.2319 -0.2543 0.0197, -0.1735 -0.5555 0.0197, -0.162 -0.5555 0.0197, -0.2107 -0.2421 0.0197, -0.2205 -0.2496 0.0197, -0.016 -0.4768 0.0197, -0.0555 -0.4768 0.0197, -0.0669 -0.478 0.0197, -0.1322 -0.4768 0.0197, -0.0761 -0.4812 0.0197, -0.0847 -0.487 0.0197, -0.154 -0.5334 0.0197, -0.1215 -0.5334 0.0197, -0.114 -0.5555 0.0197, -0.0437 -0.0574 0.0197, -0.0315 -0.0591 0.0197, -0.1985 -0.1728 0.0197, -0.1969 -0.185 0.0197, 0.032 0.0591 0.0197, -0.0315 0.0591 0.0197, -0.0437 0.0574 0.0197, -0.2032 0.2323 0.0197, -0.0551 0.0527 0.0197, -0.1985 0.2209 0.0197, -0.1969 0.2087 0.0197, -0.2107 0.2421 0.0197, -0.2205 0.341 0.0197, -0.2205 0.2496 0.0197, -0.2319 0.2543 0.0197, -0.0848 -0.487 0.0197, -0.0903 -0.4932 0.0197, -0.094 -0.5 0.0197, -0.0961 -0.5077 0.0197, -0.0967 -0.5151 0.0197, -0.0956 -0.5257 0.0197, -0.2032 -0.2323 0.0197, -0.1985 -0.2209 0.0197, -0.1969 -0.2087 0.0197, -0.2107 -0.1516 0.0197, -0.0771 -0.024 0.0197, -0.0724 -0.0354 0.0197, -0.1985 0.024 0.0197, -0.2032 0.0354 0.0197, -0.0771 0.024 0.0197, -0.0724 0.0354 0.0197, -0.2107 0.1516 0.0197, -0.2032 0.1614 0.0197, -0.0649 0.0452 0.0197, -0.1985 0.1728 0.0197, -0.1969 0.185 0.0197, -0.1969 0.3819 0.0197, -0.1969 0.4055 0.0197, -0.1985 0.4177 0.0197, -0.2032 -0.1614 0.0197, -0.0649 -0.0452 0.0197, -0.0551 -0.0527 0.0197, -0.3937 -0.1378 0.0197, -0.3937 -0.0591 0.0197, -0.2441 -0.1378 0.0197, -0.2441 -0.0591 0.0197, -0.2319 -0.1394 0.0197, -0.2319 -0.0574 0.0197, -0.2205 -0.1441 0.0197, -0.2205 -0.0527 0.0197, -0.2107 -0.0452 0.0197, -0.3937 0.2559 0.0197, -0.3937 0.3346 0.0197, -0.2441 0.2559 0.0197, -0.2441 0.3346 0.0197, -0.2319 0.3363 0.0197, -0.2107 0.3485 0.0197, -0.2032 0.3583 0.0197, -0.1985 0.3697 0.0197, -0.2205 0.1441 0.0197, -0.2032 -0.0354 0.0197, -0.1985 -0.024 0.0197, -0.1969 -0.0118 0.0197, -0.2107 0.0452 0.0197, -0.2205 0.0527 0.0197, -0.2319 0.1394 0.0197, -0.2319 0.0574 0.0197, -0.2441 0.1378 0.0197, -0.2441 0.0591 0.0197, -0.3937 0.1378 0.0197, -0.3937 0.0591 0.0197, -0.1969 0.0118 0.0197, -0.0787 0.0118 0.0197, -0.0787 -0.0118 0.0197, 0.3937 0.5906 0.0197, 0.3937 0.4528 0.0197, 0.126 0.4528 0.0197, 0.0803 0.3697 0.0197, 0.0851 0.3583 0.0197, 0.1138 0.2543 0.0197, 0.0926 0.3485 0.0197, 0.1138 0.4511 0.0197, 0.1024 0.4464 0.0197, 0.0926 0.4389 0.0197, 0.3937 0.3346 0.0197, 0.3937 0.2559 0.0197, 0.126 0.3346 0.0197, 0.126 0.2559 0.0197, 0.1138 0.3363 0.0197, 0.1024 0.341 0.0197, 0.0926 0.2421 0.0197, 0.0851 0.2323 0.0197, 0.3937 0.1378 0.0197, 0.3937 0.0591 0.0197, 0.126 0.1378 0.0197, 0.1138 0.1394 0.0197, 0.1024 0.1441 0.0197, 0.1024 0.2496 0.0197, 0.0803 0.1728 0.0197, 0.0851 0.1614 0.0197, 0.0926 0.1516 0.0197, 0.0803 0.2209 0.0197, 0.0787 0.2087 0.0197, 0.0787 0.185 0.0197, 0.0851 0.4291 0.0197, 0.0803 0.4177 0.0197, 0.0787 0.4055 0.0197, 0.0787 0.3819 0.0197, -0.1428 -0.4768 0.0197, -0.3937 -0.5906 0.0197, -0.3937 0.1378 0.0394, -0.3937 -0.2559 0.0394, -0.3937 -0.3346 0.0394, -0.3937 -0.4528 0.0394, -0.3937 -0.5906 0.374, -0.3937 0.5906 0.374, -0.3937 0.4528 0.0394, -0.3937 0.3346 0.0394, -0.3937 -0.0591 0.0394, -0.3937 -0.1378 0.0394, -0.3937 0.0591 0.0394, -0.3937 0.2559 0.0394, 0.3937 -0.3346 0.0394, 0.3937 -0.5906 0.374, 0.3937 0.0591 0.0394, 0.3937 0.1378 0.0394, 0.3937 0.2559 0.0394, 0.3937 0.5906 0.374, 0.3937 -0.1378 0.0394, 0.3937 -0.0591 0.0394, 0.3937 -0.2559 0.0394, 0.3937 -0.4528 0.0394, 0.3937 0.4528 0.0394, 0.3937 0.3346 0.0394, -0.2991 0.4335 0.374, -0.2839 0.4355 0.374, -0.2698 0.4414 0.374, -0.2576 0.4507 0.374, -0.2483 0.5214 0.374, -0.2425 0.5072 0.374, -0.3283 0.5428 0.374, -0.3142 0.5486 0.374, -0.2576 0.5335 0.374, -0.2405 0.4921 0.374, -0.2425 0.4769 0.374, -0.2483 0.4628 0.374, -0.3142 0.4355 0.374, -0.3283 0.4414 0.374, -0.3405 0.4507 0.374, -0.3556 0.5072 0.374, -0.3498 0.5214 0.374, -0.3405 0.5335 0.374, -0.2991 0.5506 0.374, -0.2839 0.5486 0.374, -0.2698 0.5428 0.374, -0.3498 0.4628 0.374, -0.3556 0.4769 0.374, -0.3576 0.4921 0.374, 0.126 0.3346 0.0394, 0.1138 0.3363 0.0394, 0.1024 0.341 0.0394, 0.0926 0.3485 0.0394, 0.0851 0.3583 0.0394, 0.0803 0.3697 0.0394, 0.0787 0.3819 0.0394, 0.126 0.4528 0.0394, 0.0787 0.4055 0.0394, 0.0803 0.4177 0.0394, 0.0851 0.4291 0.0394, 0.0926 0.4389 0.0394, 0.1024 0.4464 0.0394, 0.1138 0.4511 0.0394, -0.1969 -0.4528 0.0394, -0.1969 -0.3346 0.0394, -0.2441 0.0591 0.0394, -0.2319 0.0574 0.0394, -0.2205 0.0527 0.0394, -0.2107 0.0452 0.0394, -0.2032 0.0354 0.0394, -0.1985 0.024 0.0394, -0.1969 0.0118 0.0394, -0.2441 -0.0591 0.0394, -0.1969 -0.0118 0.0394, -0.1985 -0.024 0.0394, -0.2032 -0.0354 0.0394, -0.2107 -0.0452 0.0394, -0.2205 -0.0527 0.0394, -0.2319 -0.0574 0.0394, -0.2441 0.2559 0.0394, -0.2319 0.2543 0.0394, -0.2205 0.2496 0.0394, -0.2107 0.2421 0.0394, -0.2032 0.2323 0.0394, -0.1985 0.2209 0.0394, -0.1969 0.2087 0.0394, -0.2441 0.1378 0.0394, -0.1969 0.185 0.0394, -0.1985 0.1728 0.0394, -0.2032 0.1614 0.0394, -0.2107 0.1516 0.0394, -0.2205 0.1441 0.0394, -0.2319 0.1394 0.0394, 0.0787 0.2087 0.0394, 0.0787 0.185 0.0394, 0.126 0.1378 0.0394, 0.1138 0.1394 0.0394, 0.1024 0.1441 0.0394, 0.0926 0.1516 0.0394, 0.0851 0.1614 0.0394, 0.0803 0.1728 0.0394, 0.126 0.2559 0.0394, 0.0803 0.2209 0.0394, 0.0851 0.2323 0.0394, 0.0926 0.2421 0.0394, 0.1024 0.2496 0.0394, 0.1138 0.2543 0.0394, -0.2441 0.4528 0.0394, -0.2319 0.4511 0.0394, -0.2205 0.4464 0.0394, -0.2107 0.4389 0.0394, -0.2032 0.4291 0.0394, -0.1985 0.4177 0.0394, -0.1969 0.4055 0.0394, -0.2441 0.3346 0.0394, -0.1969 0.3819 0.0394, -0.1985 0.3697 0.0394, -0.2032 0.3583 0.0394, -0.2107 0.3485 0.0394, -0.2205 0.341 0.0394, -0.2319 0.3363 0.0394, 0.0787 -0.3819 0.0394, 0.0787 -0.4055 0.0394, 0.126 -0.4528 0.0394, 0.1138 -0.4511 0.0394, 0.1024 -0.4464 0.0394, 0.0926 -0.4389 0.0394, 0.0851 -0.4291 0.0394, 0.0803 -0.4177 0.0394, 0.126 -0.3346 0.0394, 0.0803 -0.3697 0.0394, 0.0851 -0.3583 0.0394, 0.0926 -0.3485 0.0394, 0.1024 -0.341 0.0394, 0.1138 -0.3363 0.0394, -0.2441 -0.1378 0.0394, -0.2319 -0.1394 0.0394, -0.2205 -0.1441 0.0394, -0.2107 -0.1516 0.0394, -0.2032 -0.1614 0.0394, -0.1985 -0.1728 0.0394, -0.1969 -0.185 0.0394, -0.2441 -0.2559 0.0394, -0.1969 -0.2087 0.0394, -0.1985 -0.2209 0.0394, -0.2032 -0.2323 0.0394, -0.2107 -0.2421 0.0394, -0.2205 -0.2496 0.0394, -0.2319 -0.2543 0.0394, 0.0787 -0.185 0.0394, 0.0787 -0.2087 0.0394, 0.126 -0.2559 0.0394, 0.1138 -0.2543 0.0394, 0.1024 -0.2496 0.0394, 0.0926 -0.2421 0.0394, 0.0851 -0.2323 0.0394, 0.0803 -0.2209 0.0394, 0.126 -0.1378 0.0394, 0.0803 -0.1728 0.0394, 0.0851 -0.1614 0.0394, 0.0926 -0.1516 0.0394, 0.1024 -0.1441 0.0394, 0.1138 -0.1394 0.0394, -0.0315 -0.0591 0.0394, -0.0437 -0.0574 0.0394, -0.0551 -0.0527 0.0394, -0.0649 -0.0452 0.0394, -0.0724 -0.0354 0.0394, -0.0771 -0.024 0.0394, -0.0787 -0.0118 0.0394, -0.0315 0.0591 0.0394, -0.0787 0.0118 0.0394, -0.0771 0.024 0.0394, -0.0724 0.0354 0.0394, -0.0649 0.0452 0.0394, -0.0551 0.0527 0.0394, -0.0437 0.0574 0.0394
            ]
        }
        coordIndex [
            0,1,2,-1,0,3,4,-1,4,3,5,-1,4,5,6,-1,7,8,9,-1,9,8,10,-1,9,10,11,-1,12,13,14,-1,6,15,4,-1,4,15,16,-1,4,16,17,-1,18,19,4,-1,4,19,20,-1,21,22,23,-1,23,22,24,-1,20,25,4,-1,4,25,24,-1,4,24,26,-1,26,24,22,-1,12,27,28,-1,17,29,4,-1,4,29,30,-1,4,30,18,-1,28,31,12,-1,12,31,32,-1,12,32,33,-1,33,34,12,-1,12,34,35,-1,12,35,36,-1,37,13,38,-1,38,13,39,-1,40,41,42,-1,42,41,43,-1,42,43,44,-1,44,43,45,-1,44,45,37,-1,37,45,46,-1,37,46,47,-1,48,49,50,-1,51,52,53,-1,53,52,50,-1,53,50,54,-1,54,50,49,-1,47,55,37,-1,37,55,56,-1,37,56,13,-1,13,56,57,-1,13,57,58,-1,11,59,9,-1,9,59,60,-1,9,60,61,-1,61,60,62,-1,61,62,63,-1,36,64,12,-1,12,64,65,-1,12,65,13,-1,13,65,66,-1,13,66,39,-1,58,67,13,-1,13,67,68,-1,13,68,69,-1,69,68,70,-1,62,71,63,-1,63,71,72,-1,63,72,50,-1,50,72,73,-1,50,73,48,-1,49,74,54,-1,54,74,75,-1,54,75,68,-1,68,75,76,-1,68,76,70,-1,1,77,2,-1,2,77,78,-1,2,78,79,-1,78,80,79,-1,79,80,81,-1,79,81,8,-1,51,82,52,-1,52,82,83,-1,52,83,7,-1,7,83,84,-1,7,84,8,-1,8,84,85,-1,8,85,79,-1,86,87,2,-1,88,89,90,-1,87,91,2,-1,2,91,12,-1,2,12,0,-1,0,12,14,-1,0,14,3,-1,90,92,88,-1,88,92,93,-1,88,93,94,-1,95,96,97,-1,97,98,95,-1,95,98,99,-1,95,99,100,-1,100,99,101,-1,100,101,102,-1,103,104,105,-1,106,107,108,-1,108,107,109,-1,108,109,110,-1,110,109,111,-1,112,113,111,-1,111,113,114,-1,111,114,110,-1,110,114,86,-1,110,86,115,-1,115,86,2,-1,115,2,116,-1,117,118,119,-1,119,118,120,-1,119,120,121,-1,122,123,2,-1,124,91,125,-1,125,91,126,-1,125,126,121,-1,127,128,129,-1,129,128,130,-1,129,130,131,-1,132,133,123,-1,123,133,134,-1,123,134,2,-1,2,134,88,-1,2,88,116,-1,116,88,94,-1,135,136,137,-1,137,136,12,-1,137,12,138,-1,139,140,95,-1,95,140,141,-1,95,141,142,-1,142,141,143,-1,142,143,144,-1,144,143,145,-1,142,146,147,-1,147,146,148,-1,147,148,149,-1,131,150,129,-1,129,150,151,-1,129,151,152,-1,152,153,129,-1,129,153,154,-1,129,154,88,-1,88,154,155,-1,88,155,89,-1,129,105,127,-1,127,105,119,-1,127,119,110,-1,110,119,121,-1,110,121,108,-1,108,121,126,-1,124,156,91,-1,91,156,157,-1,91,157,12,-1,12,157,158,-1,12,158,138,-1,159,160,161,-1,162,163,164,-1,164,163,165,-1,166,167,168,-1,168,167,169,-1,168,169,143,-1,143,169,170,-1,143,170,145,-1,171,172,95,-1,95,172,173,-1,95,173,96,-1,159,161,174,-1,174,161,175,-1,174,175,137,-1,137,175,176,-1,137,176,135,-1,177,178,179,-1,179,178,180,-1,179,180,181,-1,181,180,182,-1,181,182,183,-1,183,182,184,-1,183,184,159,-1,159,184,185,-1,159,185,160,-1,186,187,188,-1,188,187,189,-1,188,189,149,-1,149,189,190,-1,149,190,147,-1,147,191,142,-1,142,191,192,-1,142,192,95,-1,95,192,193,-1,95,193,171,-1,165,163,168,-1,168,163,194,-1,168,194,166,-1,185,195,160,-1,160,195,196,-1,160,196,197,-1,163,198,194,-1,194,198,199,-1,194,199,200,-1,200,199,201,-1,200,201,202,-1,202,201,203,-1,202,203,204,-1,204,203,205,-1,162,164,206,-1,206,164,207,-1,206,207,197,-1,197,207,208,-1,197,208,160,-1,209,210,95,-1,95,210,211,-1,212,213,214,-1,214,213,215,-1,211,216,95,-1,95,216,217,-1,95,217,218,-1,219,220,221,-1,221,220,222,-1,221,222,223,-1,223,222,214,-1,223,214,224,-1,224,214,215,-1,225,226,95,-1,227,228,229,-1,229,228,139,-1,229,139,230,-1,230,139,231,-1,225,95,232,-1,233,234,139,-1,139,234,235,-1,139,235,231,-1,226,236,95,-1,95,236,237,-1,95,237,139,-1,139,237,238,-1,139,238,233,-1,218,239,95,-1,95,239,240,-1,95,240,241,-1,241,242,95,-1,95,242,212,-1,95,212,232,-1,232,212,214,-1,129,243,105,-1,105,243,122,-1,105,122,103,-1,103,122,2,-1,103,2,244,-1,244,2,79,-1,245,204,205,-1,246,118,117,-1,247,248,249,-1,100,102,250,-1,250,102,251,-1,250,251,252,-1,178,177,253,-1,253,177,254,-1,248,104,249,-1,249,104,103,-1,249,103,244,-1,205,255,245,-1,245,255,250,-1,245,250,256,-1,256,250,252,-1,256,252,186,-1,186,252,187,-1,117,247,246,-1,246,247,249,-1,246,249,254,-1,254,249,250,-1,254,250,253,-1,253,250,255,-1,257,41,40,-1,258,85,84,-1,259,228,227,-1,260,261,262,-1,28,27,263,-1,263,27,264,-1,40,265,257,-1,257,265,258,-1,257,258,266,-1,266,258,84,-1,266,84,83,-1,227,260,259,-1,259,260,262,-1,259,262,264,-1,264,262,258,-1,264,258,263,-1,263,258,265,-1,210,209,267,-1,267,209,262,-1,267,262,268,-1,268,262,261,-1,268,261,219,-1,219,261,220,-1,249,244,258,-1,258,244,79,-1,258,79,85,-1,100,250,95,-1,95,250,262,-1,95,262,209,-1,269,249,270,-1,270,249,258,-1,270,258,271,-1,271,258,272,-1,273,274,262,-1,250,275,276,-1,273,262,277,-1,274,278,262,-1,262,278,279,-1,262,279,258,-1,258,279,280,-1,258,280,272,-1,269,281,249,-1,249,281,282,-1,249,282,283,-1,284,285,250,-1,250,285,286,-1,250,286,275,-1,276,287,250,-1,250,287,288,-1,250,288,262,-1,262,288,289,-1,262,289,277,-1,283,290,249,-1,249,290,291,-1,249,291,250,-1,250,291,292,-1,250,292,284,-1,293,221,294,-1,294,221,223,-1,294,223,295,-1,295,223,224,-1,295,224,296,-1,296,224,215,-1,296,215,297,-1,297,215,213,-1,297,213,298,-1,298,213,212,-1,298,212,299,-1,299,212,242,-1,293,268,221,-1,221,268,219,-1,267,300,210,-1,210,300,211,-1,301,241,302,-1,302,241,240,-1,302,240,303,-1,303,240,239,-1,303,239,304,-1,304,239,218,-1,304,218,305,-1,305,218,217,-1,305,217,306,-1,306,217,216,-1,306,216,300,-1,300,216,211,-1,301,299,241,-1,241,299,242,-1,267,299,301,-1,267,268,299,-1,299,268,293,-1,299,293,294,-1,294,295,299,-1,299,295,296,-1,299,296,298,-1,298,296,297,-1,302,306,301,-1,301,306,300,-1,301,300,267,-1,302,303,306,-1,306,303,304,-1,306,304,305,-1,248,307,104,-1,104,307,105,-1,307,308,105,-1,105,308,119,-1,308,247,119,-1,119,247,117,-1,308,307,247,-1,247,307,248,-1,309,203,310,-1,310,203,201,-1,310,201,311,-1,311,201,199,-1,311,199,312,-1,312,199,198,-1,312,198,313,-1,313,198,163,-1,313,163,314,-1,314,163,162,-1,314,162,315,-1,315,162,206,-1,309,255,203,-1,203,255,205,-1,253,316,178,-1,178,316,180,-1,317,197,318,-1,318,197,196,-1,318,196,319,-1,319,196,195,-1,319,195,320,-1,320,195,185,-1,320,185,321,-1,321,185,184,-1,321,184,322,-1,322,184,182,-1,322,182,316,-1,316,182,180,-1,317,315,197,-1,197,315,206,-1,253,255,316,-1,316,255,309,-1,310,314,309,-1,309,314,315,-1,309,315,316,-1,320,321,322,-1,310,311,314,-1,314,311,312,-1,314,312,313,-1,315,317,316,-1,316,317,318,-1,316,318,322,-1,322,318,319,-1,322,319,320,-1,323,188,324,-1,324,188,149,-1,324,149,325,-1,325,149,148,-1,325,148,326,-1,326,148,146,-1,326,146,327,-1,327,146,142,-1,327,142,328,-1,328,142,144,-1,328,144,329,-1,329,144,145,-1,323,256,188,-1,188,256,186,-1,245,330,204,-1,204,330,202,-1,331,170,332,-1,332,170,169,-1,332,169,333,-1,333,169,167,-1,333,167,334,-1,334,167,166,-1,334,166,335,-1,335,166,194,-1,335,194,336,-1,336,194,200,-1,336,200,330,-1,330,200,202,-1,331,329,170,-1,170,329,145,-1,245,256,323,-1,332,330,331,-1,331,330,245,-1,331,245,329,-1,323,324,245,-1,245,324,325,-1,245,325,326,-1,335,336,334,-1,334,336,330,-1,334,330,333,-1,333,330,332,-1,326,327,245,-1,245,327,328,-1,245,328,329,-1,337,338,237,-1,237,338,238,-1,339,229,340,-1,340,229,230,-1,340,230,341,-1,341,230,231,-1,341,231,342,-1,342,231,235,-1,342,235,343,-1,343,235,234,-1,343,234,344,-1,344,234,233,-1,344,233,338,-1,338,233,238,-1,339,260,229,-1,229,260,227,-1,261,345,220,-1,220,345,222,-1,337,237,346,-1,346,237,236,-1,346,236,347,-1,347,236,226,-1,347,226,348,-1,348,226,225,-1,348,225,349,-1,349,225,232,-1,349,232,350,-1,350,232,214,-1,350,214,345,-1,345,214,222,-1,261,260,345,-1,345,260,339,-1,341,342,343,-1,343,344,341,-1,341,344,338,-1,341,338,340,-1,349,350,337,-1,337,350,345,-1,337,345,338,-1,338,345,339,-1,338,339,340,-1,346,347,337,-1,337,347,348,-1,337,348,349,-1,351,101,352,-1,352,101,99,-1,352,99,353,-1,353,99,98,-1,353,98,354,-1,354,98,97,-1,354,97,355,-1,355,97,96,-1,355,96,356,-1,356,96,173,-1,356,173,357,-1,357,173,172,-1,351,251,101,-1,101,251,102,-1,252,358,187,-1,187,358,189,-1,359,171,360,-1,360,171,193,-1,360,193,361,-1,361,193,192,-1,361,192,362,-1,362,192,191,-1,362,191,363,-1,363,191,147,-1,363,147,364,-1,364,147,190,-1,364,190,358,-1,358,190,189,-1,359,357,171,-1,171,357,172,-1,252,251,358,-1,358,251,351,-1,362,363,364,-1,352,356,351,-1,351,356,357,-1,351,357,358,-1,352,353,356,-1,356,353,354,-1,356,354,355,-1,357,359,358,-1,358,359,360,-1,358,360,364,-1,364,360,361,-1,364,361,362,-1,365,366,57,-1,57,366,58,-1,367,82,368,-1,368,82,51,-1,368,51,369,-1,369,51,53,-1,369,53,370,-1,370,53,54,-1,370,54,371,-1,371,54,68,-1,371,68,372,-1,372,68,67,-1,372,67,366,-1,366,67,58,-1,367,266,82,-1,82,266,83,-1,257,373,41,-1,41,373,43,-1,365,57,374,-1,374,57,56,-1,374,56,375,-1,375,56,55,-1,375,55,376,-1,376,55,47,-1,376,47,377,-1,377,47,46,-1,377,46,378,-1,378,46,45,-1,378,45,373,-1,373,45,43,-1,373,257,266,-1,266,367,373,-1,373,367,366,-1,373,366,365,-1,367,368,366,-1,366,368,369,-1,366,369,372,-1,372,369,370,-1,372,370,371,-1,375,376,374,-1,374,376,377,-1,374,377,365,-1,365,377,378,-1,365,378,373,-1,379,179,380,-1,380,179,181,-1,380,181,381,-1,381,181,183,-1,381,183,382,-1,382,183,159,-1,382,159,383,-1,383,159,174,-1,383,174,384,-1,384,174,137,-1,384,137,385,-1,385,137,138,-1,379,254,179,-1,179,254,177,-1,246,386,118,-1,118,386,120,-1,387,158,388,-1,388,158,157,-1,388,157,389,-1,389,157,156,-1,389,156,390,-1,390,156,124,-1,390,124,391,-1,391,124,125,-1,391,125,392,-1,392,125,121,-1,392,121,386,-1,386,121,120,-1,387,385,158,-1,158,385,138,-1,384,385,246,-1,246,385,387,-1,254,379,246,-1,246,379,380,-1,246,380,381,-1,388,392,387,-1,387,392,386,-1,387,386,246,-1,381,382,246,-1,246,382,383,-1,246,383,384,-1,388,389,392,-1,392,389,390,-1,392,390,391,-1,393,394,64,-1,64,394,65,-1,395,42,396,-1,396,42,44,-1,396,44,397,-1,397,44,37,-1,397,37,398,-1,398,37,38,-1,398,38,399,-1,399,38,39,-1,399,39,400,-1,400,39,66,-1,400,66,394,-1,394,66,65,-1,395,265,42,-1,42,265,40,-1,263,401,28,-1,28,401,31,-1,393,64,402,-1,402,64,36,-1,402,36,403,-1,403,36,35,-1,403,35,404,-1,404,35,34,-1,404,34,405,-1,405,34,33,-1,405,33,406,-1,406,33,32,-1,406,32,401,-1,401,32,31,-1,394,395,396,-1,406,401,393,-1,393,401,263,-1,393,263,394,-1,394,263,265,-1,394,265,395,-1,403,404,405,-1,396,397,394,-1,394,397,398,-1,394,398,400,-1,400,398,399,-1,406,393,405,-1,405,393,402,-1,405,402,403,-1,407,136,408,-1,408,136,135,-1,408,135,409,-1,409,135,176,-1,409,176,410,-1,410,176,175,-1,410,175,411,-1,411,175,161,-1,411,161,412,-1,412,161,160,-1,412,160,413,-1,413,160,208,-1,136,407,12,-1,12,407,264,-1,12,264,27,-1,228,259,139,-1,139,259,414,-1,139,414,140,-1,415,207,416,-1,416,207,164,-1,416,164,417,-1,417,164,165,-1,417,165,418,-1,418,165,168,-1,418,168,419,-1,419,168,143,-1,419,143,420,-1,420,143,141,-1,420,141,414,-1,414,141,140,-1,415,413,207,-1,207,413,208,-1,420,414,415,-1,417,418,419,-1,412,413,407,-1,407,413,415,-1,407,415,264,-1,264,415,414,-1,264,414,259,-1,420,415,419,-1,419,415,416,-1,419,416,417,-1,407,408,409,-1,409,410,407,-1,407,410,411,-1,407,411,412,-1,
        ]
    }
}
Shape{
    appearance Appearance {
        material  Material 	{
            diffuseColor 0.7529411764705882 0.7529411764705882 0.7529411764705882
            specularColor 0.3764705882352941 0.3764705882352941 0.3764705882352941
            ambientIntensity 0.7529
            transparency 0.0
            shininess 0.5
        }
    }
    geometry IndexedFaceSet {
        ccw TRUE
        solid FALSE
        coord DEF co Coordinate {
            point [
                -0.2405 0.4921 0.3543, -0.2405 0.4921 0.374, -0.2425 0.5072 0.3543, -0.2425 0.5072 0.374, -0.2483 0.5214 0.3543, -0.2483 0.5214 0.374, -0.2576 0.5335 0.3543, -0.2576 0.5335 0.374, -0.2698 0.5428 0.3543, -0.2698 0.5428 0.374, -0.2839 0.5486 0.3543, -0.2839 0.5486 0.374, -0.2991 0.5506 0.3543, -0.2991 0.5506 0.374, -0.3142 0.5486 0.3543, -0.3142 0.5486 0.374, -0.3283 0.5428 0.3543, -0.3283 0.5428 0.374, -0.3405 0.5335 0.3543, -0.3405 0.5335 0.374, -0.3498 0.5214 0.3543, -0.3498 0.5214 0.374, -0.3556 0.5072 0.3543, -0.3556 0.5072 0.374, -0.3576 0.4921 0.3543, -0.3576 0.4921 0.374, -0.3556 0.4769 0.3543, -0.3556 0.4769 0.374, -0.3498 0.4628 0.3543, -0.3498 0.4628 0.374, -0.3405 0.4507 0.3543, -0.3405 0.4507 0.374, -0.3283 0.4414 0.3543, -0.3283 0.4414 0.374, -0.3142 0.4355 0.3543, -0.3142 0.4355 0.374, -0.2991 0.4335 0.3543, -0.2991 0.4335 0.374, -0.2839 0.4355 0.3543, -0.2839 0.4355 0.374, -0.2698 0.4414 0.3543, -0.2698 0.4414 0.374, -0.2576 0.4507 0.3543, -0.2576 0.4507 0.374, -0.2483 0.4628 0.3543, -0.2483 0.4628 0.374, -0.2425 0.4769 0.3543, -0.2425 0.4769 0.374, -0.2991 0.4921 0.3543
            ]
        }
        coordIndex [
            0,1,2,-1,2,1,3,-1,2,3,4,-1,4,3,5,-1,4,5,6,-1,6,5,7,-1,6,7,8,-1,8,7,9,-1,8,9,10,-1,10,9,11,-1,10,11,12,-1,12,11,13,-1,12,13,14,-1,14,13,15,-1,14,15,16,-1,16,15,17,-1,16,17,18,-1,18,17,19,-1,18,19,20,-1,20,19,21,-1,20,21,22,-1,22,21,23,-1,22,23,24,-1,24,23,25,-1,24,25,26,-1,26,25,27,-1,26,27,28,-1,28,27,29,-1,28,29,30,-1,30,29,31,-1,30,31,32,-1,32,31,33,-1,32,33,34,-1,34,33,35,-1,34,35,36,-1,36,35,37,-1,36,37,38,-1,38,37,39,-1,38,39,40,-1,40,39,41,-1,40,41,42,-1,42,41,43,-1,42,43,44,-1,44,43,45,-1,44,45,46,-1,46,45,47,-1,46,47,0,-1,0,47,1,-1,44,46,48,-1,48,46,0,-1,48,0,2,-1,38,40,48,-1,48,40,42,-1,48,42,44,-1,32,34,48,-1,48,34,36,-1,48,36,38,-1,26,28,48,-1,48,28,30,-1,48,30,32,-1,20,22,48,-1,48,22,24,-1,48,24,26,-1,14,16,48,-1,48,16,18,-1,48,18,20,-1,8,10,48,-1,48,10,12,-1,48,12,14,-1,2,4,48,-1,48,4,6,-1,48,6,8,-1,
        ]
    }
}
Shape{
    appearance Appearance {
        material  Material 	{
            diffuseColor 0.0 0.0 0.0
            specularColor 0.0 0.0 0.0
            ambientIntensity 0.0
            transparency 0.0
            shininess 0.5
        }
    }
    geometry IndexedFaceSet {
        ccw TRUE
        solid FALSE
        coord DEF co Coordinate {
            point [
                -0.1428 -0.4768 0.0394, -0.1735 -0.5555 0.0394, -0.1428 -0.4768 0.0197, -0.1735 -0.5555 0.0197, -0.162 -0.5555 0.0394, -0.162 -0.5555 0.0197, -0.154 -0.5334 0.0394, -0.154 -0.5334 0.0197, -0.1215 -0.5334 0.0394, -0.1215 -0.5334 0.0197, -0.114 -0.5555 0.0394, -0.114 -0.5555 0.0197, -0.1024 -0.5555 0.0394, -0.1024 -0.5555 0.0197, -0.1322 -0.4768 0.0394, -0.1322 -0.4768 0.0197, -0.1241 -0.5248 0.0394, -0.1505 -0.5248 0.0394, -0.1359 -0.4919 0.0394, -0.1366 -0.4892 0.0394, -0.1371 -0.4864 0.0394, -0.1374 -0.4864 0.0394, -0.1379 -0.4892 0.0394, -0.1386 -0.4919 0.0394, -0.1241 -0.5248 0.0197, -0.1505 -0.5248 0.0197, -0.1359 -0.4919 0.0197, -0.1366 -0.4892 0.0197, -0.1371 -0.4864 0.0197, -0.1374 -0.4864 0.0197, -0.1379 -0.4892 0.0197, -0.1386 -0.4919 0.0197, -0.0547 -0.5555 0.0394, -0.0333 -0.5555 0.0394, -0.0547 -0.5555 0.0197, -0.0333 -0.5555 0.0197, -0.0333 -0.4768 0.0394, -0.0333 -0.4768 0.0197, -0.0555 -0.4768 0.0394, -0.0555 -0.4768 0.0197, -0.0967 -0.5151 0.0394, -0.0967 -0.5151 0.0197, -0.0961 -0.5077 0.0197, -0.0961 -0.5077 0.0394, -0.094 -0.5 0.0197, -0.094 -0.5 0.0394, -0.0903 -0.4932 0.0197, -0.0903 -0.4932 0.0394, -0.0848 -0.487 0.0197, -0.0848 -0.487 0.0394, -0.0847 -0.487 0.0197, -0.0847 -0.487 0.0394, -0.0761 -0.4812 0.0197, -0.0761 -0.4812 0.0394, -0.0669 -0.478 0.0197, -0.0669 -0.478 0.0394, -0.0645 -0.5547 0.0197, -0.0645 -0.5547 0.0394, -0.0735 -0.552 0.0197, -0.0735 -0.552 0.0394, -0.0817 -0.5472 0.0197, -0.0817 -0.5472 0.0394, -0.0882 -0.541 0.0197, -0.0882 -0.541 0.0394, -0.0927 -0.5339 0.0197, -0.0927 -0.5339 0.0394, -0.0956 -0.5257 0.0197, -0.0956 -0.5257 0.0394, -0.0809 -0.4965 0.0394, -0.077 -0.4924 0.0394, -0.0713 -0.4887 0.0394, -0.0648 -0.4864 0.0394, -0.0555 -0.4854 0.0394, -0.0439 -0.4854 0.0394, -0.0439 -0.5469 0.0394, -0.055 -0.5469 0.0394, -0.0633 -0.5461 0.0394, -0.07 -0.544 0.0394, -0.0753 -0.5408 0.0394, -0.0798 -0.5365 0.0394, -0.0831 -0.531 0.0394, -0.0854 -0.5236 0.0394, -0.0861 -0.5154 0.0394, -0.0854 -0.5075 0.0394, -0.0836 -0.5013 0.0394, -0.0555 -0.4854 0.0197, -0.0439 -0.4854 0.0197, -0.0648 -0.4864 0.0197, -0.0713 -0.4887 0.0197, -0.077 -0.4924 0.0197, -0.0809 -0.4965 0.0197, -0.0836 -0.5013 0.0197, -0.0854 -0.5075 0.0197, -0.0861 -0.5154 0.0197, -0.0854 -0.5236 0.0197, -0.0831 -0.531 0.0197, -0.0798 -0.5365 0.0197, -0.0753 -0.5408 0.0197, -0.07 -0.544 0.0197, -0.0633 -0.5461 0.0197, -0.055 -0.5469 0.0197, -0.0439 -0.5469 0.0197, -0.0179 -0.5469 0.0394, -0.0179 -0.5555 0.0394, -0.0179 -0.5469 0.0197, -0.0179 -0.5555 0.0197, 0.0243 -0.5555 0.0394, 0.0243 -0.5555 0.0197, 0.0243 -0.4768 0.0394, 0.0243 -0.4768 0.0197, -0.016 -0.4768 0.0394, -0.016 -0.4768 0.0197, -0.016 -0.4854 0.0394, -0.016 -0.4854 0.0197, 0.0138 -0.4854 0.0394, 0.0138 -0.4854 0.0197, 0.0138 -0.5113 0.0394, 0.0138 -0.5113 0.0197, -0.0141 -0.5113 0.0394, -0.0141 -0.5113 0.0197, -0.0141 -0.52 0.0394, -0.0141 -0.52 0.0197, 0.0138 -0.52 0.0394, 0.0138 -0.52 0.0197, 0.0138 -0.5469 0.0394, 0.0138 -0.5469 0.0197, 0.0397 -0.5428 0.0394, 0.0397 -0.5514 0.0394, 0.0397 -0.5428 0.0197, 0.0397 -0.5514 0.0197, 0.0481 -0.5549 0.0394, 0.0613 -0.5565 0.0394, 0.0613 -0.5565 0.0197, 0.0592 -0.5564 0.0197, 0.0592 -0.5564 0.0394, 0.056 -0.556 0.0197, 0.0481 -0.5549 0.0197, 0.066 -0.556 0.0197, 0.071 -0.5555 0.0394, 0.071 -0.5555 0.0197, 0.0787 -0.5528 0.0394, 0.0787 -0.5528 0.0197, 0.085 -0.5488 0.0394, 0.085 -0.5488 0.0197, 0.0909 -0.5426 0.0394, 0.0909 -0.5426 0.0197, 0.0951 -0.5351 0.0394, 0.0951 -0.5351 0.0197, 0.0975 -0.5267 0.0394, 0.0975 -0.5267 0.0197, 0.0983 -0.5176 0.0394, 0.0983 -0.5176 0.0197, 0.0582 -0.4758 0.0394, 0.0582 -0.4758 0.0197, 0.0661 -0.4765 0.0197, 0.0661 -0.4765 0.0394, 0.0749 -0.479 0.0197, 0.0749 -0.479 0.0394, 0.0824 -0.4833 0.0197, 0.0824 -0.4833 0.0394, 0.0895 -0.4901 0.0197, 0.0895 -0.4901 0.0394, 0.0941 -0.4975 0.0197, 0.0941 -0.4975 0.0394, 0.0971 -0.5064 0.0197, 0.0971 -0.5064 0.0394, 0.0397 -0.4789 0.0394, 0.0397 -0.4789 0.0197, 0.0488 -0.4765 0.0197, 0.0488 -0.4765 0.0394, 0.0397 -0.4895 0.0394, 0.0397 -0.4895 0.0197, 0.0581 -0.4845 0.0394, 0.0581 -0.4845 0.0197, 0.0485 -0.4857 0.0197, 0.0485 -0.4857 0.0394, 0.0877 -0.517 0.0394, 0.0877 -0.517 0.0197, 0.0873 -0.5109 0.0197, 0.0873 -0.5109 0.0394, 0.0852 -0.5024 0.0197, 0.0852 -0.5024 0.0394, 0.082 -0.4963 0.0197, 0.082 -0.4963 0.0394, 0.0772 -0.4911 0.0197, 0.0772 -0.4911 0.0394, 0.0718 -0.4874 0.0197, 0.0718 -0.4874 0.0394, 0.0659 -0.4853 0.0197, 0.0659 -0.4853 0.0394, 0.0599 -0.5478 0.0394, 0.0599 -0.5478 0.0197, 0.0672 -0.547 0.0197, 0.0672 -0.547 0.0394, 0.073 -0.5449 0.0197, 0.073 -0.5449 0.0394, 0.0778 -0.5416 0.0197, 0.0778 -0.5416 0.0394, 0.0815 -0.5377 0.0197, 0.0815 -0.5377 0.0394, 0.0848 -0.5323 0.0197, 0.0848 -0.5323 0.0394, 0.0869 -0.5255 0.0197, 0.0869 -0.5255 0.0394, 0.0411 -0.5436 0.0197, 0.0411 -0.5436 0.0394, 0.0494 -0.5467 0.0197, 0.0494 -0.5467 0.0394, 0.105 -0.5469 0.0394, 0.105 -0.5555 0.0394, 0.105 -0.5469 0.0197, 0.105 -0.5555 0.0197, 0.1453 -0.5555 0.0394, 0.1453 -0.5555 0.0197, 0.1453 -0.4768 0.0394, 0.1453 -0.4768 0.0197, 0.1347 -0.4768 0.0394, 0.1347 -0.4768 0.0197, 0.1347 -0.5469 0.0394, 0.1347 -0.5469 0.0197
            ]
        }
        coordIndex [
            0,1,2,-1,2,1,3,-1,1,4,3,-1,3,4,5,-1,4,6,5,-1,5,6,7,-1,6,8,7,-1,7,8,9,-1,8,10,9,-1,9,10,11,-1,10,12,11,-1,11,12,13,-1,12,14,13,-1,13,14,15,-1,14,0,15,-1,15,0,2,-1,16,8,17,-1,17,8,6,-1,18,14,16,-1,16,14,12,-1,16,12,8,-1,8,12,10,-1,18,19,14,-1,14,19,20,-1,14,20,0,-1,0,20,21,-1,0,21,22,-1,22,23,0,-1,0,23,17,-1,0,17,1,-1,1,17,6,-1,1,6,4,-1,16,17,24,-1,24,17,25,-1,18,16,26,-1,26,16,24,-1,18,26,27,-1,18,27,19,-1,19,27,28,-1,19,28,20,-1,21,20,29,-1,29,20,28,-1,21,29,30,-1,21,30,22,-1,22,30,31,-1,22,31,23,-1,17,23,25,-1,25,23,31,-1,32,33,34,-1,34,33,35,-1,33,36,35,-1,35,36,37,-1,36,38,37,-1,37,38,39,-1,40,41,42,-1,40,42,43,-1,43,42,44,-1,43,44,45,-1,45,44,46,-1,45,46,47,-1,47,46,48,-1,47,48,49,-1,49,48,50,-1,49,50,51,-1,51,50,52,-1,51,52,53,-1,53,52,54,-1,53,54,55,-1,55,54,39,-1,55,39,38,-1,32,34,56,-1,32,56,57,-1,57,56,58,-1,57,58,59,-1,59,58,60,-1,59,60,61,-1,61,60,62,-1,61,62,63,-1,63,62,64,-1,63,64,65,-1,65,64,66,-1,65,66,67,-1,67,66,41,-1,67,41,40,-1,45,47,68,-1,68,47,49,-1,68,49,69,-1,69,49,51,-1,69,51,70,-1,70,51,53,-1,70,53,71,-1,71,53,55,-1,71,55,72,-1,72,55,38,-1,72,38,73,-1,73,38,36,-1,73,36,74,-1,74,36,33,-1,74,33,75,-1,75,33,32,-1,75,32,76,-1,76,32,57,-1,76,57,77,-1,77,57,59,-1,77,59,78,-1,78,59,61,-1,78,61,79,-1,79,61,63,-1,79,63,80,-1,80,63,65,-1,80,65,81,-1,81,65,67,-1,81,67,82,-1,82,67,40,-1,82,40,83,-1,83,40,43,-1,83,43,84,-1,84,43,45,-1,84,45,68,-1,72,73,85,-1,85,73,86,-1,72,85,87,-1,72,87,71,-1,71,87,88,-1,71,88,70,-1,70,88,89,-1,70,89,69,-1,69,89,90,-1,69,90,68,-1,68,90,91,-1,68,91,84,-1,84,91,92,-1,84,92,83,-1,83,92,93,-1,83,93,82,-1,82,93,94,-1,82,94,81,-1,81,94,95,-1,81,95,80,-1,80,95,96,-1,80,96,79,-1,79,96,97,-1,79,97,78,-1,78,97,98,-1,78,98,77,-1,77,98,99,-1,77,99,76,-1,76,99,100,-1,76,100,75,-1,74,75,101,-1,101,75,100,-1,73,74,86,-1,86,74,101,-1,102,103,104,-1,104,103,105,-1,103,106,105,-1,105,106,107,-1,106,108,107,-1,107,108,109,-1,108,110,109,-1,109,110,111,-1,110,112,111,-1,111,112,113,-1,112,114,113,-1,113,114,115,-1,114,116,115,-1,115,116,117,-1,116,118,117,-1,117,118,119,-1,118,120,119,-1,119,120,121,-1,120,122,121,-1,121,122,123,-1,122,124,123,-1,123,124,125,-1,124,102,125,-1,125,102,104,-1,106,103,102,-1,102,124,106,-1,106,124,122,-1,106,122,108,-1,112,110,114,-1,114,110,108,-1,114,108,116,-1,116,108,122,-1,116,122,118,-1,118,122,120,-1,126,127,128,-1,128,127,129,-1,129,127,130,-1,131,132,133,-1,131,133,134,-1,134,133,135,-1,134,135,130,-1,130,135,136,-1,130,136,129,-1,132,131,137,-1,137,131,138,-1,137,138,139,-1,139,138,140,-1,139,140,141,-1,141,140,142,-1,141,142,143,-1,143,142,144,-1,143,144,145,-1,145,144,146,-1,145,146,147,-1,147,146,148,-1,147,148,149,-1,149,148,150,-1,149,150,151,-1,152,153,154,-1,152,154,155,-1,155,154,156,-1,155,156,157,-1,157,156,158,-1,157,158,159,-1,159,158,160,-1,159,160,161,-1,161,160,162,-1,161,162,163,-1,163,162,164,-1,163,164,165,-1,165,164,151,-1,165,151,150,-1,166,167,168,-1,166,168,169,-1,169,168,153,-1,169,153,152,-1,166,170,167,-1,167,170,171,-1,172,173,174,-1,172,174,175,-1,175,174,171,-1,175,171,170,-1,176,177,178,-1,176,178,179,-1,179,178,180,-1,179,180,181,-1,181,180,182,-1,181,182,183,-1,183,182,184,-1,183,184,185,-1,185,184,186,-1,185,186,187,-1,187,186,188,-1,187,188,189,-1,189,188,173,-1,189,173,172,-1,190,191,192,-1,190,192,193,-1,193,192,194,-1,193,194,195,-1,195,194,196,-1,195,196,197,-1,197,196,198,-1,197,198,199,-1,199,198,200,-1,199,200,201,-1,201,200,202,-1,201,202,203,-1,203,202,177,-1,203,177,176,-1,126,128,204,-1,126,204,205,-1,205,204,206,-1,205,206,207,-1,207,206,191,-1,207,191,190,-1,193,131,190,-1,190,131,134,-1,190,134,207,-1,207,134,130,-1,207,130,205,-1,205,130,127,-1,205,127,126,-1,170,166,175,-1,175,166,169,-1,175,169,172,-1,172,169,152,-1,172,152,189,-1,189,152,155,-1,189,155,187,-1,187,155,157,-1,187,157,185,-1,185,157,159,-1,185,159,183,-1,183,159,161,-1,183,161,181,-1,181,161,163,-1,181,163,179,-1,179,163,165,-1,179,165,176,-1,176,165,150,-1,176,150,203,-1,203,150,148,-1,203,148,201,-1,201,148,146,-1,201,146,199,-1,199,146,144,-1,199,144,197,-1,197,144,142,-1,197,142,195,-1,195,142,140,-1,195,140,193,-1,193,140,138,-1,193,138,131,-1,208,209,210,-1,210,209,211,-1,209,212,211,-1,211,212,213,-1,212,214,213,-1,213,214,215,-1,214,216,215,-1,215,216,217,-1,216,218,217,-1,217,218,219,-1,218,208,219,-1,219,208,210,-1,216,214,218,-1,218,214,212,-1,218,212,208,-1,208,212,209,-1,
        ]
    }
}
Shape{
    appearance Appearance {
        material  Material 	{
            diffuseColor 0.25098039215686274 0.25098039215686274 0.25098039215686274
            specularColor 0.12549019607843137 0.12549019607843137 0.12549019607843137
            ambientIntensity 0.251
            transparency 0.0
            shininess 0.5
        }
    }
    geometry IndexedFaceSet {
        ccw TRUE
        solid FALSE
        coord DEF co Coordinate {
            point [
                -0.1241 -0.5248 0.0197, -0.1505 -0.5248 0.0197, -0.1359 -0.4919 0.0197, -0.1386 -0.4919 0.0197, -0.1366 -0.4892 0.0197, -0.1379 -0.4892 0.0197, -0.1371 -0.4864 0.0197, -0.1374 -0.4864 0.0197, -0.0439 -0.4854 0.0197, -0.0439 -0.5469 0.0197, -0.0555 -0.4854 0.0197, -0.055 -0.5469 0.0197, -0.0633 -0.5461 0.0197, -0.0861 -0.5154 0.0197, -0.0854 -0.5075 0.0197, -0.0836 -0.5013 0.0197, -0.0648 -0.4864 0.0197, -0.07 -0.544 0.0197, -0.0753 -0.5408 0.0197, -0.0798 -0.5365 0.0197, -0.0831 -0.531 0.0197, -0.0854 -0.5236 0.0197, -0.0809 -0.4965 0.0197, -0.077 -0.4924 0.0197, -0.0713 -0.4887 0.0197
            ]
        }
        coordIndex [
            0,1,2,-1,2,1,3,-1,2,3,4,-1,4,3,5,-1,4,5,6,-1,6,5,7,-1,8,9,10,-1,10,9,11,-1,10,11,12,-1,13,14,10,-1,10,14,15,-1,10,15,16,-1,12,17,10,-1,10,17,18,-1,10,18,19,-1,19,20,10,-1,10,20,21,-1,10,21,13,-1,22,23,15,-1,15,23,24,-1,15,24,16,-1,
        ]
    }
}